%TF.GenerationSoftware,KiCad,Pcbnew,6.0.0-d3dd2cf0fa~116~ubuntu21.04.1*%
%TF.CreationDate,2022-01-04T14:06:44-05:00*%
%TF.ProjectId,control_pcb,636f6e74-726f-46c5-9f70-63622e6b6963,rev?*%
%TF.SameCoordinates,Original*%
%TF.FileFunction,Soldermask,Top*%
%TF.FilePolarity,Negative*%
%FSLAX46Y46*%
G04 Gerber Fmt 4.6, Leading zero omitted, Abs format (unit mm)*
G04 Created by KiCad (PCBNEW 6.0.0-d3dd2cf0fa~116~ubuntu21.04.1) date 2022-01-04 14:06:44*
%MOMM*%
%LPD*%
G01*
G04 APERTURE LIST*
G04 Aperture macros list*
%AMRoundRect*
0 Rectangle with rounded corners*
0 $1 Rounding radius*
0 $2 $3 $4 $5 $6 $7 $8 $9 X,Y pos of 4 corners*
0 Add a 4 corners polygon primitive as box body*
4,1,4,$2,$3,$4,$5,$6,$7,$8,$9,$2,$3,0*
0 Add four circle primitives for the rounded corners*
1,1,$1+$1,$2,$3*
1,1,$1+$1,$4,$5*
1,1,$1+$1,$6,$7*
1,1,$1+$1,$8,$9*
0 Add four rect primitives between the rounded corners*
20,1,$1+$1,$2,$3,$4,$5,0*
20,1,$1+$1,$4,$5,$6,$7,0*
20,1,$1+$1,$6,$7,$8,$9,0*
20,1,$1+$1,$8,$9,$2,$3,0*%
G04 Aperture macros list end*
%ADD10RoundRect,0.250000X-0.620000X-0.845000X0.620000X-0.845000X0.620000X0.845000X-0.620000X0.845000X0*%
%ADD11O,1.740000X2.190000*%
%ADD12C,1.524000*%
%ADD13C,2.000000*%
%ADD14O,1.200000X1.750000*%
%ADD15RoundRect,0.250000X0.350000X0.625000X-0.350000X0.625000X-0.350000X-0.625000X0.350000X-0.625000X0*%
%ADD16RoundRect,0.250000X-0.625000X0.350000X-0.625000X-0.350000X0.625000X-0.350000X0.625000X0.350000X0*%
%ADD17O,1.750000X1.200000*%
%ADD18R,1.700000X1.700000*%
%ADD19O,1.700000X1.700000*%
G04 APERTURE END LIST*
D10*
%TO.C,J4*%
X134366000Y-135870000D03*
D11*
X136906000Y-135870000D03*
X139446000Y-135870000D03*
X141986000Y-135870000D03*
X144526000Y-135870000D03*
%TD*%
D12*
%TO.C,TTGO1*%
X162581000Y-80982000D03*
X162581000Y-101302000D03*
X131466000Y-102572000D03*
X134006000Y-102572000D03*
X136546000Y-102572000D03*
X139086000Y-102572000D03*
X141626000Y-102572000D03*
X144166000Y-102572000D03*
X146706000Y-102572000D03*
X149246000Y-102572000D03*
X151786000Y-102572000D03*
X154326000Y-102572000D03*
X156866000Y-102572000D03*
X159406000Y-102572000D03*
X159406000Y-79712000D03*
X156866000Y-79712000D03*
X154326000Y-79712000D03*
X151786000Y-79712000D03*
X149246000Y-79712000D03*
X146706000Y-79712000D03*
X144166000Y-79712000D03*
X141626000Y-79712000D03*
X139086000Y-79712000D03*
X136546000Y-79712000D03*
X134006000Y-79712000D03*
X131466000Y-79712000D03*
%TD*%
D13*
%TO.C,SW2*%
X121666000Y-110672000D03*
X115166000Y-110672000D03*
X121666000Y-115172000D03*
X115166000Y-115172000D03*
%TD*%
%TO.C,SW3*%
X147066000Y-111252000D03*
X140566000Y-111252000D03*
X147066000Y-115752000D03*
X140566000Y-115752000D03*
%TD*%
%TO.C,SW4*%
X164136000Y-110962000D03*
X170636000Y-110962000D03*
X170636000Y-115462000D03*
X164136000Y-115462000D03*
%TD*%
D14*
%TO.C,J3*%
X130366000Y-90352000D03*
X132366000Y-90352000D03*
D15*
X134366000Y-90352000D03*
%TD*%
%TO.C,J5*%
X156686000Y-90352000D03*
D14*
X154686000Y-90352000D03*
X152686000Y-90352000D03*
%TD*%
D16*
%TO.C,J6*%
X106934000Y-99346000D03*
D17*
X106934000Y-101346000D03*
%TD*%
D15*
%TO.C,J2*%
X124206000Y-90352000D03*
D14*
X122206000Y-90352000D03*
%TD*%
D18*
%TO.C,J1*%
X162306000Y-97972000D03*
D19*
X162306000Y-95432000D03*
X162306000Y-92892000D03*
X162306000Y-90352000D03*
X162306000Y-87812000D03*
X162306000Y-85272000D03*
%TD*%
M02*
