%TF.GenerationSoftware,KiCad,Pcbnew,6.0.0-d3dd2cf0fa~116~ubuntu21.04.1*%
%TF.CreationDate,2022-01-04T14:06:44-05:00*%
%TF.ProjectId,control_pcb,636f6e74-726f-46c5-9f70-63622e6b6963,rev?*%
%TF.SameCoordinates,Original*%
%TF.FileFunction,Legend,Bot*%
%TF.FilePolarity,Positive*%
%FSLAX46Y46*%
G04 Gerber Fmt 4.6, Leading zero omitted, Abs format (unit mm)*
G04 Created by KiCad (PCBNEW 6.0.0-d3dd2cf0fa~116~ubuntu21.04.1) date 2022-01-04 14:06:44*
%MOMM*%
%LPD*%
G01*
G04 APERTURE LIST*
%ADD10C,0.300000*%
%ADD11C,0.150000*%
%ADD12C,0.120000*%
G04 APERTURE END LIST*
D10*
X167961571Y-85088500D02*
X168104428Y-85017071D01*
X168318714Y-85017071D01*
X168533000Y-85088500D01*
X168675857Y-85231357D01*
X168747285Y-85374214D01*
X168818714Y-85659928D01*
X168818714Y-85874214D01*
X168747285Y-86159928D01*
X168675857Y-86302785D01*
X168533000Y-86445642D01*
X168318714Y-86517071D01*
X168175857Y-86517071D01*
X167961571Y-86445642D01*
X167890142Y-86374214D01*
X167890142Y-85874214D01*
X168175857Y-85874214D01*
X167247285Y-86517071D02*
X167247285Y-85017071D01*
X166390142Y-86517071D01*
X166390142Y-85017071D01*
X165675857Y-86517071D02*
X165675857Y-85017071D01*
X165318714Y-85017071D01*
X165104428Y-85088500D01*
X164961571Y-85231357D01*
X164890142Y-85374214D01*
X164818714Y-85659928D01*
X164818714Y-85874214D01*
X164890142Y-86159928D01*
X164961571Y-86302785D01*
X165104428Y-86445642D01*
X165318714Y-86517071D01*
X165675857Y-86517071D01*
X170104428Y-87503500D02*
X170247285Y-87432071D01*
X170461571Y-87432071D01*
X170675857Y-87503500D01*
X170818714Y-87646357D01*
X170890142Y-87789214D01*
X170961571Y-88074928D01*
X170961571Y-88289214D01*
X170890142Y-88574928D01*
X170818714Y-88717785D01*
X170675857Y-88860642D01*
X170461571Y-88932071D01*
X170318714Y-88932071D01*
X170104428Y-88860642D01*
X170033000Y-88789214D01*
X170033000Y-88289214D01*
X170318714Y-88289214D01*
X169390142Y-88932071D02*
X169390142Y-87432071D01*
X168818714Y-87432071D01*
X168675857Y-87503500D01*
X168604428Y-87574928D01*
X168533000Y-87717785D01*
X168533000Y-87932071D01*
X168604428Y-88074928D01*
X168675857Y-88146357D01*
X168818714Y-88217785D01*
X169390142Y-88217785D01*
X167890142Y-88932071D02*
X167890142Y-87432071D01*
X166890142Y-87432071D02*
X166604428Y-87432071D01*
X166461571Y-87503500D01*
X166318714Y-87646357D01*
X166247285Y-87932071D01*
X166247285Y-88432071D01*
X166318714Y-88717785D01*
X166461571Y-88860642D01*
X166604428Y-88932071D01*
X166890142Y-88932071D01*
X167033000Y-88860642D01*
X167175857Y-88717785D01*
X167247285Y-88432071D01*
X167247285Y-87932071D01*
X167175857Y-87646357D01*
X167033000Y-87503500D01*
X166890142Y-87432071D01*
X165675857Y-87574928D02*
X165604428Y-87503500D01*
X165461571Y-87432071D01*
X165104428Y-87432071D01*
X164961571Y-87503500D01*
X164890142Y-87574928D01*
X164818714Y-87717785D01*
X164818714Y-87860642D01*
X164890142Y-88074928D01*
X165747285Y-88932071D01*
X164818714Y-88932071D01*
X171533000Y-89918500D02*
X171675857Y-89847071D01*
X171890142Y-89847071D01*
X172104428Y-89918500D01*
X172247285Y-90061357D01*
X172318714Y-90204214D01*
X172390142Y-90489928D01*
X172390142Y-90704214D01*
X172318714Y-90989928D01*
X172247285Y-91132785D01*
X172104428Y-91275642D01*
X171890142Y-91347071D01*
X171747285Y-91347071D01*
X171533000Y-91275642D01*
X171461571Y-91204214D01*
X171461571Y-90704214D01*
X171747285Y-90704214D01*
X170818714Y-91347071D02*
X170818714Y-89847071D01*
X170247285Y-89847071D01*
X170104428Y-89918500D01*
X170033000Y-89989928D01*
X169961571Y-90132785D01*
X169961571Y-90347071D01*
X170033000Y-90489928D01*
X170104428Y-90561357D01*
X170247285Y-90632785D01*
X170818714Y-90632785D01*
X169318714Y-91347071D02*
X169318714Y-89847071D01*
X168318714Y-89847071D02*
X168033000Y-89847071D01*
X167890142Y-89918500D01*
X167747285Y-90061357D01*
X167675857Y-90347071D01*
X167675857Y-90847071D01*
X167747285Y-91132785D01*
X167890142Y-91275642D01*
X168033000Y-91347071D01*
X168318714Y-91347071D01*
X168461571Y-91275642D01*
X168604428Y-91132785D01*
X168675857Y-90847071D01*
X168675857Y-90347071D01*
X168604428Y-90061357D01*
X168461571Y-89918500D01*
X168318714Y-89847071D01*
X166247285Y-91347071D02*
X167104428Y-91347071D01*
X166675857Y-91347071D02*
X166675857Y-89847071D01*
X166818714Y-90061357D01*
X166961571Y-90204214D01*
X167104428Y-90275642D01*
X165747285Y-89847071D02*
X164818714Y-89847071D01*
X165318714Y-90418500D01*
X165104428Y-90418500D01*
X164961571Y-90489928D01*
X164890142Y-90561357D01*
X164818714Y-90704214D01*
X164818714Y-91061357D01*
X164890142Y-91204214D01*
X164961571Y-91275642D01*
X165104428Y-91347071D01*
X165533000Y-91347071D01*
X165675857Y-91275642D01*
X165747285Y-91204214D01*
X171533000Y-92333500D02*
X171675857Y-92262071D01*
X171890142Y-92262071D01*
X172104428Y-92333500D01*
X172247285Y-92476357D01*
X172318714Y-92619214D01*
X172390142Y-92904928D01*
X172390142Y-93119214D01*
X172318714Y-93404928D01*
X172247285Y-93547785D01*
X172104428Y-93690642D01*
X171890142Y-93762071D01*
X171747285Y-93762071D01*
X171533000Y-93690642D01*
X171461571Y-93619214D01*
X171461571Y-93119214D01*
X171747285Y-93119214D01*
X170818714Y-93762071D02*
X170818714Y-92262071D01*
X170247285Y-92262071D01*
X170104428Y-92333500D01*
X170033000Y-92404928D01*
X169961571Y-92547785D01*
X169961571Y-92762071D01*
X170033000Y-92904928D01*
X170104428Y-92976357D01*
X170247285Y-93047785D01*
X170818714Y-93047785D01*
X169318714Y-93762071D02*
X169318714Y-92262071D01*
X168318714Y-92262071D02*
X168033000Y-92262071D01*
X167890142Y-92333500D01*
X167747285Y-92476357D01*
X167675857Y-92762071D01*
X167675857Y-93262071D01*
X167747285Y-93547785D01*
X167890142Y-93690642D01*
X168033000Y-93762071D01*
X168318714Y-93762071D01*
X168461571Y-93690642D01*
X168604428Y-93547785D01*
X168675857Y-93262071D01*
X168675857Y-92762071D01*
X168604428Y-92476357D01*
X168461571Y-92333500D01*
X168318714Y-92262071D01*
X167175857Y-92262071D02*
X166247285Y-92262071D01*
X166747285Y-92833500D01*
X166533000Y-92833500D01*
X166390142Y-92904928D01*
X166318714Y-92976357D01*
X166247285Y-93119214D01*
X166247285Y-93476357D01*
X166318714Y-93619214D01*
X166390142Y-93690642D01*
X166533000Y-93762071D01*
X166961571Y-93762071D01*
X167104428Y-93690642D01*
X167175857Y-93619214D01*
X165747285Y-92262071D02*
X164747285Y-92262071D01*
X165390142Y-93762071D01*
X171533000Y-94748500D02*
X171675857Y-94677071D01*
X171890142Y-94677071D01*
X172104428Y-94748500D01*
X172247285Y-94891357D01*
X172318714Y-95034214D01*
X172390142Y-95319928D01*
X172390142Y-95534214D01*
X172318714Y-95819928D01*
X172247285Y-95962785D01*
X172104428Y-96105642D01*
X171890142Y-96177071D01*
X171747285Y-96177071D01*
X171533000Y-96105642D01*
X171461571Y-96034214D01*
X171461571Y-95534214D01*
X171747285Y-95534214D01*
X170818714Y-96177071D02*
X170818714Y-94677071D01*
X170247285Y-94677071D01*
X170104428Y-94748500D01*
X170033000Y-94819928D01*
X169961571Y-94962785D01*
X169961571Y-95177071D01*
X170033000Y-95319928D01*
X170104428Y-95391357D01*
X170247285Y-95462785D01*
X170818714Y-95462785D01*
X169318714Y-96177071D02*
X169318714Y-94677071D01*
X168318714Y-94677071D02*
X168033000Y-94677071D01*
X167890142Y-94748500D01*
X167747285Y-94891357D01*
X167675857Y-95177071D01*
X167675857Y-95677071D01*
X167747285Y-95962785D01*
X167890142Y-96105642D01*
X168033000Y-96177071D01*
X168318714Y-96177071D01*
X168461571Y-96105642D01*
X168604428Y-95962785D01*
X168675857Y-95677071D01*
X168675857Y-95177071D01*
X168604428Y-94891357D01*
X168461571Y-94748500D01*
X168318714Y-94677071D01*
X167175857Y-94677071D02*
X166247285Y-94677071D01*
X166747285Y-95248500D01*
X166533000Y-95248500D01*
X166390142Y-95319928D01*
X166318714Y-95391357D01*
X166247285Y-95534214D01*
X166247285Y-95891357D01*
X166318714Y-96034214D01*
X166390142Y-96105642D01*
X166533000Y-96177071D01*
X166961571Y-96177071D01*
X167104428Y-96105642D01*
X167175857Y-96034214D01*
X165390142Y-95319928D02*
X165533000Y-95248500D01*
X165604428Y-95177071D01*
X165675857Y-95034214D01*
X165675857Y-94962785D01*
X165604428Y-94819928D01*
X165533000Y-94748500D01*
X165390142Y-94677071D01*
X165104428Y-94677071D01*
X164961571Y-94748500D01*
X164890142Y-94819928D01*
X164818714Y-94962785D01*
X164818714Y-95034214D01*
X164890142Y-95177071D01*
X164961571Y-95248500D01*
X165104428Y-95319928D01*
X165390142Y-95319928D01*
X165533000Y-95391357D01*
X165604428Y-95462785D01*
X165675857Y-95605642D01*
X165675857Y-95891357D01*
X165604428Y-96034214D01*
X165533000Y-96105642D01*
X165390142Y-96177071D01*
X165104428Y-96177071D01*
X164961571Y-96105642D01*
X164890142Y-96034214D01*
X164818714Y-95891357D01*
X164818714Y-95605642D01*
X164890142Y-95462785D01*
X164961571Y-95391357D01*
X165104428Y-95319928D01*
X168675857Y-97092071D02*
X168175857Y-98592071D01*
X167675857Y-97092071D01*
X166318714Y-98449214D02*
X166390142Y-98520642D01*
X166604428Y-98592071D01*
X166747285Y-98592071D01*
X166961571Y-98520642D01*
X167104428Y-98377785D01*
X167175857Y-98234928D01*
X167247285Y-97949214D01*
X167247285Y-97734928D01*
X167175857Y-97449214D01*
X167104428Y-97306357D01*
X166961571Y-97163500D01*
X166747285Y-97092071D01*
X166604428Y-97092071D01*
X166390142Y-97163500D01*
X166318714Y-97234928D01*
X164818714Y-98449214D02*
X164890142Y-98520642D01*
X165104428Y-98592071D01*
X165247285Y-98592071D01*
X165461571Y-98520642D01*
X165604428Y-98377785D01*
X165675857Y-98234928D01*
X165747285Y-97949214D01*
X165747285Y-97734928D01*
X165675857Y-97449214D01*
X165604428Y-97306357D01*
X165461571Y-97163500D01*
X165247285Y-97092071D01*
X165104428Y-97092071D01*
X164890142Y-97163500D01*
X164818714Y-97234928D01*
D11*
%TO.C,U3*%
X125392380Y-120904095D02*
X126201904Y-120904095D01*
X126297142Y-120951714D01*
X126344761Y-120999333D01*
X126392380Y-121094571D01*
X126392380Y-121285047D01*
X126344761Y-121380285D01*
X126297142Y-121427904D01*
X126201904Y-121475523D01*
X125392380Y-121475523D01*
X125392380Y-121856476D02*
X125392380Y-122475523D01*
X125773333Y-122142190D01*
X125773333Y-122285047D01*
X125820952Y-122380285D01*
X125868571Y-122427904D01*
X125963809Y-122475523D01*
X126201904Y-122475523D01*
X126297142Y-122427904D01*
X126344761Y-122380285D01*
X126392380Y-122285047D01*
X126392380Y-121999333D01*
X126344761Y-121904095D01*
X126297142Y-121856476D01*
%TO.C,U2*%
X162564380Y-120965095D02*
X163373904Y-120965095D01*
X163469142Y-121012714D01*
X163516761Y-121060333D01*
X163564380Y-121155571D01*
X163564380Y-121346047D01*
X163516761Y-121441285D01*
X163469142Y-121488904D01*
X163373904Y-121536523D01*
X162564380Y-121536523D01*
X162659619Y-121965095D02*
X162612000Y-122012714D01*
X162564380Y-122107952D01*
X162564380Y-122346047D01*
X162612000Y-122441285D01*
X162659619Y-122488904D01*
X162754857Y-122536523D01*
X162850095Y-122536523D01*
X162992952Y-122488904D01*
X163564380Y-121917476D01*
X163564380Y-122536523D01*
%TO.C,U1*%
X149058380Y-120904095D02*
X149867904Y-120904095D01*
X149963142Y-120951714D01*
X150010761Y-120999333D01*
X150058380Y-121094571D01*
X150058380Y-121285047D01*
X150010761Y-121380285D01*
X149963142Y-121427904D01*
X149867904Y-121475523D01*
X149058380Y-121475523D01*
X150058380Y-122475523D02*
X150058380Y-121904095D01*
X150058380Y-122189809D02*
X149058380Y-122189809D01*
X149201238Y-122094571D01*
X149296476Y-121999333D01*
X149344095Y-121904095D01*
%TO.C,R3*%
X135294666Y-128594380D02*
X135628000Y-128118190D01*
X135866095Y-128594380D02*
X135866095Y-127594380D01*
X135485142Y-127594380D01*
X135389904Y-127642000D01*
X135342285Y-127689619D01*
X135294666Y-127784857D01*
X135294666Y-127927714D01*
X135342285Y-128022952D01*
X135389904Y-128070571D01*
X135485142Y-128118190D01*
X135866095Y-128118190D01*
X134961333Y-127594380D02*
X134342285Y-127594380D01*
X134675619Y-127975333D01*
X134532761Y-127975333D01*
X134437523Y-128022952D01*
X134389904Y-128070571D01*
X134342285Y-128165809D01*
X134342285Y-128403904D01*
X134389904Y-128499142D01*
X134437523Y-128546761D01*
X134532761Y-128594380D01*
X134818476Y-128594380D01*
X134913714Y-128546761D01*
X134961333Y-128499142D01*
%TO.C,R2*%
X160440666Y-132465380D02*
X160774000Y-131989190D01*
X161012095Y-132465380D02*
X161012095Y-131465380D01*
X160631142Y-131465380D01*
X160535904Y-131513000D01*
X160488285Y-131560619D01*
X160440666Y-131655857D01*
X160440666Y-131798714D01*
X160488285Y-131893952D01*
X160535904Y-131941571D01*
X160631142Y-131989190D01*
X161012095Y-131989190D01*
X160059714Y-131560619D02*
X160012095Y-131513000D01*
X159916857Y-131465380D01*
X159678761Y-131465380D01*
X159583523Y-131513000D01*
X159535904Y-131560619D01*
X159488285Y-131655857D01*
X159488285Y-131751095D01*
X159535904Y-131893952D01*
X160107333Y-132465380D01*
X159488285Y-132465380D01*
%TO.C,R1*%
X154344666Y-132822880D02*
X154678000Y-132346690D01*
X154916095Y-132822880D02*
X154916095Y-131822880D01*
X154535142Y-131822880D01*
X154439904Y-131870500D01*
X154392285Y-131918119D01*
X154344666Y-132013357D01*
X154344666Y-132156214D01*
X154392285Y-132251452D01*
X154439904Y-132299071D01*
X154535142Y-132346690D01*
X154916095Y-132346690D01*
X153392285Y-132822880D02*
X153963714Y-132822880D01*
X153678000Y-132822880D02*
X153678000Y-131822880D01*
X153773238Y-131965738D01*
X153868476Y-132060976D01*
X153963714Y-132108595D01*
%TO.C,J4*%
X139779333Y-139442380D02*
X139779333Y-140156666D01*
X139826952Y-140299523D01*
X139922190Y-140394761D01*
X140065047Y-140442380D01*
X140160285Y-140442380D01*
X138874571Y-139775714D02*
X138874571Y-140442380D01*
X139112666Y-139394761D02*
X139350761Y-140109047D01*
X138731714Y-140109047D01*
%TO.C,J3*%
X132699333Y-86904380D02*
X132699333Y-87618666D01*
X132746952Y-87761523D01*
X132842190Y-87856761D01*
X132985047Y-87904380D01*
X133080285Y-87904380D01*
X132318380Y-86904380D02*
X131699333Y-86904380D01*
X132032666Y-87285333D01*
X131889809Y-87285333D01*
X131794571Y-87332952D01*
X131746952Y-87380571D01*
X131699333Y-87475809D01*
X131699333Y-87713904D01*
X131746952Y-87809142D01*
X131794571Y-87856761D01*
X131889809Y-87904380D01*
X132175523Y-87904380D01*
X132270761Y-87856761D01*
X132318380Y-87809142D01*
X133580285Y-94804380D02*
X133913619Y-94328190D01*
X134151714Y-94804380D02*
X134151714Y-93804380D01*
X133770761Y-93804380D01*
X133675523Y-93852000D01*
X133627904Y-93899619D01*
X133580285Y-93994857D01*
X133580285Y-94137714D01*
X133627904Y-94232952D01*
X133675523Y-94280571D01*
X133770761Y-94328190D01*
X134151714Y-94328190D01*
X132770761Y-94756761D02*
X132866000Y-94804380D01*
X133056476Y-94804380D01*
X133151714Y-94756761D01*
X133199333Y-94661523D01*
X133199333Y-94280571D01*
X133151714Y-94185333D01*
X133056476Y-94137714D01*
X132866000Y-94137714D01*
X132770761Y-94185333D01*
X132723142Y-94280571D01*
X132723142Y-94375809D01*
X133199333Y-94471047D01*
X132151714Y-94804380D02*
X132246952Y-94756761D01*
X132294571Y-94661523D01*
X132294571Y-93804380D01*
X131342190Y-94804380D02*
X131342190Y-94280571D01*
X131389809Y-94185333D01*
X131485047Y-94137714D01*
X131675523Y-94137714D01*
X131770761Y-94185333D01*
X131342190Y-94756761D02*
X131437428Y-94804380D01*
X131675523Y-94804380D01*
X131770761Y-94756761D01*
X131818380Y-94661523D01*
X131818380Y-94566285D01*
X131770761Y-94471047D01*
X131675523Y-94423428D01*
X131437428Y-94423428D01*
X131342190Y-94375809D01*
X130961238Y-94137714D02*
X130723142Y-94804380D01*
X130485047Y-94137714D02*
X130723142Y-94804380D01*
X130818380Y-95042476D01*
X130866000Y-95090095D01*
X130961238Y-95137714D01*
%TO.C,J5*%
X155019333Y-86904380D02*
X155019333Y-87618666D01*
X155066952Y-87761523D01*
X155162190Y-87856761D01*
X155305047Y-87904380D01*
X155400285Y-87904380D01*
X154066952Y-86904380D02*
X154543142Y-86904380D01*
X154590761Y-87380571D01*
X154543142Y-87332952D01*
X154447904Y-87285333D01*
X154209809Y-87285333D01*
X154114571Y-87332952D01*
X154066952Y-87380571D01*
X154019333Y-87475809D01*
X154019333Y-87713904D01*
X154066952Y-87809142D01*
X154114571Y-87856761D01*
X154209809Y-87904380D01*
X154447904Y-87904380D01*
X154543142Y-87856761D01*
X154590761Y-87809142D01*
X156400285Y-94804380D02*
X156733619Y-94328190D01*
X156971714Y-94804380D02*
X156971714Y-93804380D01*
X156590761Y-93804380D01*
X156495523Y-93852000D01*
X156447904Y-93899619D01*
X156400285Y-93994857D01*
X156400285Y-94137714D01*
X156447904Y-94232952D01*
X156495523Y-94280571D01*
X156590761Y-94328190D01*
X156971714Y-94328190D01*
X155828857Y-94804380D02*
X155924095Y-94756761D01*
X155971714Y-94709142D01*
X156019333Y-94613904D01*
X156019333Y-94328190D01*
X155971714Y-94232952D01*
X155924095Y-94185333D01*
X155828857Y-94137714D01*
X155686000Y-94137714D01*
X155590761Y-94185333D01*
X155543142Y-94232952D01*
X155495523Y-94328190D01*
X155495523Y-94613904D01*
X155543142Y-94709142D01*
X155590761Y-94756761D01*
X155686000Y-94804380D01*
X155828857Y-94804380D01*
X154638380Y-94756761D02*
X154733619Y-94804380D01*
X154924095Y-94804380D01*
X155019333Y-94756761D01*
X155066952Y-94709142D01*
X155114571Y-94613904D01*
X155114571Y-94328190D01*
X155066952Y-94232952D01*
X155019333Y-94185333D01*
X154924095Y-94137714D01*
X154733619Y-94137714D01*
X154638380Y-94185333D01*
X154209809Y-94804380D02*
X154209809Y-93804380D01*
X154114571Y-94423428D02*
X153828857Y-94804380D01*
X153828857Y-94137714D02*
X154209809Y-94518666D01*
X153019333Y-94756761D02*
X153114571Y-94804380D01*
X153305047Y-94804380D01*
X153400285Y-94756761D01*
X153447904Y-94661523D01*
X153447904Y-94280571D01*
X153400285Y-94185333D01*
X153305047Y-94137714D01*
X153114571Y-94137714D01*
X153019333Y-94185333D01*
X152971714Y-94280571D01*
X152971714Y-94375809D01*
X153447904Y-94471047D01*
X152543142Y-94804380D02*
X152543142Y-94137714D01*
X152543142Y-94328190D02*
X152495523Y-94232952D01*
X152447904Y-94185333D01*
X152352666Y-94137714D01*
X152257428Y-94137714D01*
%TO.C,J6*%
X103486380Y-100012666D02*
X104200666Y-100012666D01*
X104343523Y-99965047D01*
X104438761Y-99869809D01*
X104486380Y-99726952D01*
X104486380Y-99631714D01*
X103486380Y-100917428D02*
X103486380Y-100726952D01*
X103534000Y-100631714D01*
X103581619Y-100584095D01*
X103724476Y-100488857D01*
X103914952Y-100441238D01*
X104295904Y-100441238D01*
X104391142Y-100488857D01*
X104438761Y-100536476D01*
X104486380Y-100631714D01*
X104486380Y-100822190D01*
X104438761Y-100917428D01*
X104391142Y-100965047D01*
X104295904Y-101012666D01*
X104057809Y-101012666D01*
X103962571Y-100965047D01*
X103914952Y-100917428D01*
X103867333Y-100822190D01*
X103867333Y-100631714D01*
X103914952Y-100536476D01*
X103962571Y-100488857D01*
X104057809Y-100441238D01*
X111386380Y-99012666D02*
X110386380Y-99012666D01*
X110386380Y-99393619D01*
X110434000Y-99488857D01*
X110481619Y-99536476D01*
X110576857Y-99584095D01*
X110719714Y-99584095D01*
X110814952Y-99536476D01*
X110862571Y-99488857D01*
X110910190Y-99393619D01*
X110910190Y-99012666D01*
X110386380Y-99917428D02*
X111386380Y-100155523D01*
X110672095Y-100346000D01*
X111386380Y-100536476D01*
X110386380Y-100774571D01*
X111386380Y-101726952D02*
X110910190Y-101393619D01*
X111386380Y-101155523D02*
X110386380Y-101155523D01*
X110386380Y-101536476D01*
X110434000Y-101631714D01*
X110481619Y-101679333D01*
X110576857Y-101726952D01*
X110719714Y-101726952D01*
X110814952Y-101679333D01*
X110862571Y-101631714D01*
X110910190Y-101536476D01*
X110910190Y-101155523D01*
%TO.C,J2*%
X123539333Y-86904380D02*
X123539333Y-87618666D01*
X123586952Y-87761523D01*
X123682190Y-87856761D01*
X123825047Y-87904380D01*
X123920285Y-87904380D01*
X123110761Y-86999619D02*
X123063142Y-86952000D01*
X122967904Y-86904380D01*
X122729809Y-86904380D01*
X122634571Y-86952000D01*
X122586952Y-86999619D01*
X122539333Y-87094857D01*
X122539333Y-87190095D01*
X122586952Y-87332952D01*
X123158380Y-87904380D01*
X122539333Y-87904380D01*
X125134571Y-94280571D02*
X124991714Y-94328190D01*
X124944095Y-94375809D01*
X124896476Y-94471047D01*
X124896476Y-94613904D01*
X124944095Y-94709142D01*
X124991714Y-94756761D01*
X125086952Y-94804380D01*
X125467904Y-94804380D01*
X125467904Y-93804380D01*
X125134571Y-93804380D01*
X125039333Y-93852000D01*
X124991714Y-93899619D01*
X124944095Y-93994857D01*
X124944095Y-94090095D01*
X124991714Y-94185333D01*
X125039333Y-94232952D01*
X125134571Y-94280571D01*
X125467904Y-94280571D01*
X124039333Y-94137714D02*
X124039333Y-94804380D01*
X124467904Y-94137714D02*
X124467904Y-94661523D01*
X124420285Y-94756761D01*
X124325047Y-94804380D01*
X124182190Y-94804380D01*
X124086952Y-94756761D01*
X124039333Y-94709142D01*
X123658380Y-94137714D02*
X123134571Y-94137714D01*
X123658380Y-94804380D01*
X123134571Y-94804380D01*
X122848857Y-94137714D02*
X122325047Y-94137714D01*
X122848857Y-94804380D01*
X122325047Y-94804380D01*
X121563142Y-94756761D02*
X121658380Y-94804380D01*
X121848857Y-94804380D01*
X121944095Y-94756761D01*
X121991714Y-94661523D01*
X121991714Y-94280571D01*
X121944095Y-94185333D01*
X121848857Y-94137714D01*
X121658380Y-94137714D01*
X121563142Y-94185333D01*
X121515523Y-94280571D01*
X121515523Y-94375809D01*
X121991714Y-94471047D01*
X121086952Y-94804380D02*
X121086952Y-94137714D01*
X121086952Y-94328190D02*
X121039333Y-94232952D01*
X120991714Y-94185333D01*
X120896476Y-94137714D01*
X120801238Y-94137714D01*
%TO.C,J1*%
X165179333Y-99754380D02*
X165179333Y-100468666D01*
X165226952Y-100611523D01*
X165322190Y-100706761D01*
X165465047Y-100754380D01*
X165560285Y-100754380D01*
X164179333Y-100754380D02*
X164750761Y-100754380D01*
X164465047Y-100754380D02*
X164465047Y-99754380D01*
X164560285Y-99897238D01*
X164655523Y-99992476D01*
X164750761Y-100040095D01*
X163972666Y-82870571D02*
X163639333Y-82870571D01*
X163496476Y-83394380D02*
X163972666Y-83394380D01*
X163972666Y-82394380D01*
X163496476Y-82394380D01*
X163163142Y-83394380D02*
X162639333Y-82727714D01*
X163163142Y-82727714D02*
X162639333Y-83394380D01*
X162401238Y-82727714D02*
X162020285Y-82727714D01*
X162258380Y-82394380D02*
X162258380Y-83251523D01*
X162210761Y-83346761D01*
X162115523Y-83394380D01*
X162020285Y-83394380D01*
X161686952Y-83394380D02*
X161686952Y-82727714D01*
X161686952Y-82918190D02*
X161639333Y-82822952D01*
X161591714Y-82775333D01*
X161496476Y-82727714D01*
X161401238Y-82727714D01*
X160639333Y-83394380D02*
X160639333Y-82870571D01*
X160686952Y-82775333D01*
X160782190Y-82727714D01*
X160972666Y-82727714D01*
X161067904Y-82775333D01*
X160639333Y-83346761D02*
X160734571Y-83394380D01*
X160972666Y-83394380D01*
X161067904Y-83346761D01*
X161115523Y-83251523D01*
X161115523Y-83156285D01*
X161067904Y-83061047D01*
X160972666Y-83013428D01*
X160734571Y-83013428D01*
X160639333Y-82965809D01*
D12*
%TO.C,U3*%
X126940000Y-122666000D02*
G75*
G03*
X126940000Y-120666000I0J1000000D01*
G01*
X126940000Y-120666000D02*
X126940000Y-118431000D01*
X126940000Y-118431000D02*
X132140000Y-118431000D01*
X132140000Y-118431000D02*
X132140000Y-124901000D01*
X132140000Y-124901000D02*
X126940000Y-124901000D01*
X126940000Y-124901000D02*
X126940000Y-122666000D01*
%TO.C,U2*%
X162112000Y-120727000D02*
G75*
G03*
X162112000Y-122727000I0J-1000000D01*
G01*
X162112000Y-122727000D02*
X162112000Y-124962000D01*
X162112000Y-124962000D02*
X156912000Y-124962000D01*
X156912000Y-124962000D02*
X156912000Y-118492000D01*
X156912000Y-118492000D02*
X162112000Y-118492000D01*
X162112000Y-118492000D02*
X162112000Y-120727000D01*
%TO.C,U1*%
X155762000Y-120727000D02*
G75*
G03*
X155762000Y-122727000I0J-1000000D01*
G01*
X155762000Y-122727000D02*
X155762000Y-124962000D01*
X155762000Y-124962000D02*
X150562000Y-124962000D01*
X150562000Y-124962000D02*
X150562000Y-118492000D01*
X150562000Y-118492000D02*
X155762000Y-118492000D01*
X155762000Y-118492000D02*
X155762000Y-120727000D01*
%TO.C,R3*%
X134900936Y-127227000D02*
X135355064Y-127227000D01*
X134900936Y-125757000D02*
X135355064Y-125757000D01*
%TO.C,R2*%
X160046936Y-131098000D02*
X160501064Y-131098000D01*
X160046936Y-129628000D02*
X160501064Y-129628000D01*
%TO.C,R1*%
X153950936Y-131455500D02*
X154405064Y-131455500D01*
X153950936Y-129985500D02*
X154405064Y-129985500D01*
%TO.C,J4*%
X132986000Y-138900000D02*
X132986000Y-132880000D01*
X132986000Y-132880000D02*
X145906000Y-132880000D01*
X145906000Y-132880000D02*
X145906000Y-138900000D01*
X145906000Y-138900000D02*
X132986000Y-138900000D01*
X132696000Y-137870000D02*
X132696000Y-133870000D01*
X134366000Y-132880000D02*
X134366000Y-133880000D01*
X134366000Y-133880000D02*
X144526000Y-133880000D01*
X144526000Y-133880000D02*
X144526000Y-132880000D01*
X134366000Y-133880000D02*
X134616000Y-134410000D01*
X134616000Y-134410000D02*
X144276000Y-134410000D01*
X144276000Y-134410000D02*
X144526000Y-133880000D01*
X134616000Y-132880000D02*
X134616000Y-133880000D01*
X144276000Y-132880000D02*
X144276000Y-133880000D01*
X133566000Y-138900000D02*
X133566000Y-138300000D01*
X133566000Y-138300000D02*
X135166000Y-138300000D01*
X135166000Y-138300000D02*
X135166000Y-138900000D01*
X136106000Y-138900000D02*
X136106000Y-138300000D01*
X136106000Y-138300000D02*
X137706000Y-138300000D01*
X137706000Y-138300000D02*
X137706000Y-138900000D01*
X138646000Y-138900000D02*
X138646000Y-138300000D01*
X138646000Y-138300000D02*
X140246000Y-138300000D01*
X140246000Y-138300000D02*
X140246000Y-138900000D01*
X141186000Y-138900000D02*
X141186000Y-138300000D01*
X141186000Y-138300000D02*
X142786000Y-138300000D01*
X142786000Y-138300000D02*
X142786000Y-138900000D01*
X143726000Y-138900000D02*
X143726000Y-138300000D01*
X143726000Y-138300000D02*
X145326000Y-138300000D01*
X145326000Y-138300000D02*
X145326000Y-138900000D01*
%TO.C,J3*%
X128306000Y-91152000D02*
X128916000Y-91152000D01*
X128916000Y-89152000D02*
X130866000Y-89152000D01*
X136426000Y-88542000D02*
X136426000Y-93262000D01*
X134666000Y-88442000D02*
X134966000Y-88442000D01*
X135816000Y-92652000D02*
X128916000Y-92652000D01*
X134966000Y-88342000D02*
X134966000Y-88542000D01*
X136426000Y-89852000D02*
X135816000Y-89852000D01*
X135816000Y-89152000D02*
X135816000Y-92652000D01*
X133266000Y-92152000D02*
X133266000Y-92652000D01*
X133866000Y-89152000D02*
X135816000Y-89152000D01*
X128306000Y-89852000D02*
X128916000Y-89852000D01*
X133466000Y-92152000D02*
X133266000Y-92152000D01*
X133466000Y-92652000D02*
X133466000Y-92152000D01*
X130866000Y-89152000D02*
X130866000Y-88542000D01*
X128306000Y-88542000D02*
X136426000Y-88542000D01*
X131366000Y-92652000D02*
X131366000Y-92152000D01*
X136426000Y-91152000D02*
X135816000Y-91152000D01*
X134666000Y-88342000D02*
X134966000Y-88342000D01*
X131466000Y-92152000D02*
X131266000Y-92152000D01*
X136426000Y-93262000D02*
X128306000Y-93262000D01*
X128306000Y-93262000D02*
X128306000Y-88542000D01*
X134666000Y-88542000D02*
X134666000Y-88342000D01*
X131466000Y-92652000D02*
X131466000Y-92152000D01*
X131266000Y-92152000D02*
X131266000Y-92652000D01*
X128916000Y-92652000D02*
X128916000Y-89152000D01*
X133866000Y-88542000D02*
X133866000Y-89152000D01*
X133366000Y-92652000D02*
X133366000Y-92152000D01*
X136726000Y-88242000D02*
X136726000Y-89492000D01*
X135476000Y-88242000D02*
X136726000Y-88242000D01*
%TO.C,J5*%
X150626000Y-89852000D02*
X151236000Y-89852000D01*
X155686000Y-92652000D02*
X155686000Y-92152000D01*
X159046000Y-88242000D02*
X159046000Y-89492000D01*
X150626000Y-93262000D02*
X150626000Y-88542000D01*
X151236000Y-89152000D02*
X153186000Y-89152000D01*
X150626000Y-88542000D02*
X158746000Y-88542000D01*
X153786000Y-92152000D02*
X153586000Y-92152000D01*
X156186000Y-88542000D02*
X156186000Y-89152000D01*
X158746000Y-89852000D02*
X158136000Y-89852000D01*
X157286000Y-88342000D02*
X157286000Y-88542000D01*
X158746000Y-93262000D02*
X150626000Y-93262000D01*
X158746000Y-91152000D02*
X158136000Y-91152000D01*
X156986000Y-88442000D02*
X157286000Y-88442000D01*
X151236000Y-92652000D02*
X151236000Y-89152000D01*
X156986000Y-88542000D02*
X156986000Y-88342000D01*
X158746000Y-88542000D02*
X158746000Y-93262000D01*
X153186000Y-89152000D02*
X153186000Y-88542000D01*
X157796000Y-88242000D02*
X159046000Y-88242000D01*
X155786000Y-92652000D02*
X155786000Y-92152000D01*
X158136000Y-89152000D02*
X158136000Y-92652000D01*
X153586000Y-92152000D02*
X153586000Y-92652000D01*
X156986000Y-88342000D02*
X157286000Y-88342000D01*
X155786000Y-92152000D02*
X155586000Y-92152000D01*
X155586000Y-92152000D02*
X155586000Y-92652000D01*
X153786000Y-92652000D02*
X153786000Y-92152000D01*
X156186000Y-89152000D02*
X158136000Y-89152000D01*
X150626000Y-91152000D02*
X151236000Y-91152000D01*
X153686000Y-92652000D02*
X153686000Y-92152000D01*
X158136000Y-92652000D02*
X151236000Y-92652000D01*
%TO.C,J6*%
X109234000Y-102796000D02*
X105734000Y-102796000D01*
X108734000Y-100446000D02*
X109234000Y-100446000D01*
X107734000Y-97286000D02*
X107734000Y-97896000D01*
X105124000Y-103406000D02*
X105124000Y-97286000D01*
X109844000Y-103406000D02*
X105124000Y-103406000D01*
X106434000Y-97286000D02*
X106434000Y-97896000D01*
X105124000Y-99846000D02*
X105734000Y-99846000D01*
X109234000Y-97896000D02*
X109234000Y-102796000D01*
X108734000Y-100246000D02*
X108734000Y-100446000D01*
X105734000Y-100846000D02*
X105124000Y-100846000D01*
X105124000Y-97286000D02*
X109844000Y-97286000D01*
X105734000Y-99846000D02*
X105734000Y-97896000D01*
X104824000Y-98236000D02*
X104824000Y-96986000D01*
X104824000Y-96986000D02*
X106074000Y-96986000D01*
X106434000Y-103406000D02*
X106434000Y-102796000D01*
X105734000Y-97896000D02*
X109234000Y-97896000D01*
X105024000Y-99046000D02*
X105024000Y-98746000D01*
X109844000Y-97286000D02*
X109844000Y-103406000D01*
X109234000Y-100246000D02*
X108734000Y-100246000D01*
X107734000Y-103406000D02*
X107734000Y-102796000D01*
X109234000Y-100346000D02*
X108734000Y-100346000D01*
X105124000Y-99046000D02*
X104924000Y-99046000D01*
X104924000Y-99046000D02*
X104924000Y-98746000D01*
X105734000Y-102796000D02*
X105734000Y-100846000D01*
X104924000Y-98746000D02*
X105124000Y-98746000D01*
%TO.C,J2*%
X126266000Y-91152000D02*
X125656000Y-91152000D01*
X120756000Y-92652000D02*
X120756000Y-89152000D01*
X123306000Y-92652000D02*
X123306000Y-92152000D01*
X125316000Y-88242000D02*
X126566000Y-88242000D01*
X123106000Y-92152000D02*
X123106000Y-92652000D01*
X124806000Y-88342000D02*
X124806000Y-88542000D01*
X126266000Y-93262000D02*
X120146000Y-93262000D01*
X125656000Y-92652000D02*
X120756000Y-92652000D01*
X120146000Y-93262000D02*
X120146000Y-88542000D01*
X125656000Y-89152000D02*
X125656000Y-92652000D01*
X120146000Y-91152000D02*
X120756000Y-91152000D01*
X123306000Y-92152000D02*
X123106000Y-92152000D01*
X120146000Y-89852000D02*
X120756000Y-89852000D01*
X123206000Y-92652000D02*
X123206000Y-92152000D01*
X126266000Y-89852000D02*
X125656000Y-89852000D01*
X123706000Y-89152000D02*
X125656000Y-89152000D01*
X124506000Y-88542000D02*
X124506000Y-88342000D01*
X120146000Y-88542000D02*
X126266000Y-88542000D01*
X124506000Y-88442000D02*
X124806000Y-88442000D01*
X123706000Y-88542000D02*
X123706000Y-89152000D01*
X122706000Y-89152000D02*
X122706000Y-88542000D01*
X120756000Y-89152000D02*
X122706000Y-89152000D01*
X124506000Y-88342000D02*
X124806000Y-88342000D01*
X126266000Y-88542000D02*
X126266000Y-93262000D01*
X126566000Y-88242000D02*
X126566000Y-89492000D01*
%TO.C,J1*%
X160976000Y-96702000D02*
X160976000Y-83942000D01*
X160976000Y-83942000D02*
X163636000Y-83942000D01*
X160976000Y-96702000D02*
X163636000Y-96702000D01*
X160976000Y-99302000D02*
X162306000Y-99302000D01*
X160976000Y-97972000D02*
X160976000Y-99302000D01*
X163636000Y-96702000D02*
X163636000Y-83942000D01*
%TD*%
M02*
