%TF.GenerationSoftware,KiCad,Pcbnew,6.0.0-d3dd2cf0fa~116~ubuntu21.04.1*%
%TF.CreationDate,2022-01-04T14:06:44-05:00*%
%TF.ProjectId,control_pcb,636f6e74-726f-46c5-9f70-63622e6b6963,rev?*%
%TF.SameCoordinates,Original*%
%TF.FileFunction,Copper,L1,Top*%
%TF.FilePolarity,Positive*%
%FSLAX46Y46*%
G04 Gerber Fmt 4.6, Leading zero omitted, Abs format (unit mm)*
G04 Created by KiCad (PCBNEW 6.0.0-d3dd2cf0fa~116~ubuntu21.04.1) date 2022-01-04 14:06:44*
%MOMM*%
%LPD*%
G01*
G04 APERTURE LIST*
G04 Aperture macros list*
%AMRoundRect*
0 Rectangle with rounded corners*
0 $1 Rounding radius*
0 $2 $3 $4 $5 $6 $7 $8 $9 X,Y pos of 4 corners*
0 Add a 4 corners polygon primitive as box body*
4,1,4,$2,$3,$4,$5,$6,$7,$8,$9,$2,$3,0*
0 Add four circle primitives for the rounded corners*
1,1,$1+$1,$2,$3*
1,1,$1+$1,$4,$5*
1,1,$1+$1,$6,$7*
1,1,$1+$1,$8,$9*
0 Add four rect primitives between the rounded corners*
20,1,$1+$1,$2,$3,$4,$5,0*
20,1,$1+$1,$4,$5,$6,$7,0*
20,1,$1+$1,$6,$7,$8,$9,0*
20,1,$1+$1,$8,$9,$2,$3,0*%
G04 Aperture macros list end*
%TA.AperFunction,ComponentPad*%
%ADD10RoundRect,0.250000X-0.620000X-0.845000X0.620000X-0.845000X0.620000X0.845000X-0.620000X0.845000X0*%
%TD*%
%TA.AperFunction,ComponentPad*%
%ADD11O,1.740000X2.190000*%
%TD*%
%TA.AperFunction,ComponentPad*%
%ADD12C,1.524000*%
%TD*%
%TA.AperFunction,ComponentPad*%
%ADD13C,2.000000*%
%TD*%
%TA.AperFunction,ComponentPad*%
%ADD14O,1.200000X1.750000*%
%TD*%
%TA.AperFunction,ComponentPad*%
%ADD15RoundRect,0.250000X0.350000X0.625000X-0.350000X0.625000X-0.350000X-0.625000X0.350000X-0.625000X0*%
%TD*%
%TA.AperFunction,ComponentPad*%
%ADD16RoundRect,0.250000X-0.625000X0.350000X-0.625000X-0.350000X0.625000X-0.350000X0.625000X0.350000X0*%
%TD*%
%TA.AperFunction,ComponentPad*%
%ADD17O,1.750000X1.200000*%
%TD*%
%TA.AperFunction,ComponentPad*%
%ADD18R,1.700000X1.700000*%
%TD*%
%TA.AperFunction,ComponentPad*%
%ADD19O,1.700000X1.700000*%
%TD*%
%TA.AperFunction,ViaPad*%
%ADD20C,0.800000*%
%TD*%
%TA.AperFunction,Conductor*%
%ADD21C,0.250000*%
%TD*%
G04 APERTURE END LIST*
D10*
%TO.P,J4,1,Pin_1*%
%TO.N,+BATT*%
X134366000Y-135870000D03*
D11*
%TO.P,J4,2,Pin_2*%
%TO.N,/DRL_FET*%
X136906000Y-135870000D03*
%TO.P,J4,3,Pin_3*%
%TO.N,/DRL_LID*%
X139446000Y-135870000D03*
%TO.P,J4,4,Pin_4*%
%TO.N,/DRL_SPIN*%
X141986000Y-135870000D03*
%TO.P,J4,5,Pin_5*%
%TO.N,GND*%
X144526000Y-135870000D03*
%TD*%
D12*
%TO.P,TTGO1,1,5V*%
%TO.N,VDD*%
X131466000Y-102572000D03*
%TO.P,TTGO1,2,GND*%
%TO.N,GNDD*%
X134006000Y-102572000D03*
%TO.P,TTGO1,3,GPIO27*%
%TO.N,/IND_ON*%
X136546000Y-102572000D03*
%TO.P,TTGO1,4,GPIO26*%
%TO.N,/FET_OUT*%
X139086000Y-102572000D03*
%TO.P,TTGO1,5,GPIO25*%
%TO.N,/BUZZER*%
X141626000Y-102572000D03*
%TO.P,TTGO1,6,GPIO33*%
%TO.N,/RELAY*%
X144166000Y-102572000D03*
%TO.P,TTGO1,7,GPIO32*%
%TO.N,/IND_OFF*%
X146706000Y-102572000D03*
%TO.P,TTGO1,8,SVN*%
%TO.N,unconnected-(TTGO1-Pad8)*%
X149246000Y-102572000D03*
%TO.P,TTGO1,9,GPIO38*%
%TO.N,/GPIO38*%
X151786000Y-102572000D03*
%TO.P,TTGO1,10,GPIO37*%
%TO.N,/GPIO37*%
X154326000Y-102572000D03*
%TO.P,TTGO1,11,SVP*%
%TO.N,unconnected-(TTGO1-Pad11)*%
X156866000Y-102572000D03*
%TO.P,TTGO1,12,3.3V*%
%TO.N,unconnected-(TTGO1-Pad12)*%
X159406000Y-102572000D03*
%TO.P,TTGO1,13,GND*%
%TO.N,GNDD*%
X159406000Y-79712000D03*
%TO.P,TTGO1,14,GND*%
X156866000Y-79712000D03*
%TO.P,TTGO1,15,GPIO21*%
%TO.N,/SW_NUDGE*%
X154326000Y-79712000D03*
%TO.P,TTGO1,16,GPIO22*%
%TO.N,/IND_PULSE*%
X151786000Y-79712000D03*
%TO.P,TTGO1,17,GPIO17*%
%TO.N,/SW_ARM*%
X149246000Y-79712000D03*
%TO.P,TTGO1,18,GPIO2*%
%TO.N,/GPIO2*%
X146706000Y-79712000D03*
%TO.P,TTGO1,19,GPIO15*%
%TO.N,/SW_LID*%
X144166000Y-79712000D03*
%TO.P,TTGO1,20,GPIO13*%
%TO.N,/GPIO13*%
X141626000Y-79712000D03*
%TO.P,TTGO1,21,GPIO12*%
%TO.N,/SW_SPIN*%
X139086000Y-79712000D03*
%TO.P,TTGO1,22,GND*%
%TO.N,GNDD*%
X136546000Y-79712000D03*
%TO.P,TTGO1,23,GND*%
X134006000Y-79712000D03*
%TO.P,TTGO1,24,3.3V*%
%TO.N,unconnected-(TTGO1-Pad24)*%
X131466000Y-79712000D03*
%TD*%
D13*
%TO.P,SW2,1,A*%
%TO.N,/IND_OFF*%
X121666000Y-110672000D03*
X115166000Y-110672000D03*
%TO.P,SW2,2,B*%
%TO.N,GNDD*%
X121666000Y-115172000D03*
X115166000Y-115172000D03*
%TD*%
%TO.P,SW3,1,A*%
%TO.N,/IND_ON*%
X147066000Y-111252000D03*
X140566000Y-111252000D03*
%TO.P,SW3,2,B*%
%TO.N,GNDD*%
X147066000Y-115752000D03*
X140566000Y-115752000D03*
%TD*%
%TO.P,SW4,1,A*%
%TO.N,/IND_PULSE*%
X164136000Y-110962000D03*
X170636000Y-110962000D03*
%TO.P,SW4,2,B*%
%TO.N,GNDD*%
X170636000Y-115462000D03*
X164136000Y-115462000D03*
%TD*%
D14*
%TO.P,J3,3,Pin_3*%
%TO.N,GNDD*%
X130366000Y-90352000D03*
%TO.P,J3,2,Pin_2*%
%TO.N,VDD*%
X132366000Y-90352000D03*
D15*
%TO.P,J3,1,Pin_1*%
%TO.N,/RELAY*%
X134366000Y-90352000D03*
%TD*%
%TO.P,J5,1,Pin_1*%
%TO.N,/SW_ARM*%
X156686000Y-90352000D03*
D14*
%TO.P,J5,2,Pin_2*%
%TO.N,GNDD*%
X154686000Y-90352000D03*
%TO.P,J5,3,Pin_3*%
%TO.N,/SW_NUDGE*%
X152686000Y-90352000D03*
%TD*%
D16*
%TO.P,J6,1,Pin_1*%
%TO.N,VDD*%
X106934000Y-99346000D03*
D17*
%TO.P,J6,2,Pin_2*%
%TO.N,GNDD*%
X106934000Y-101346000D03*
%TD*%
D15*
%TO.P,J2,1,Pin_1*%
%TO.N,/BUZZER*%
X124206000Y-90352000D03*
D14*
%TO.P,J2,2,Pin_2*%
%TO.N,GNDD*%
X122206000Y-90352000D03*
%TD*%
D18*
%TO.P,J1,1,Pin_1*%
%TO.N,VDD*%
X162306000Y-97972000D03*
D19*
%TO.P,J1,2,Pin_2*%
%TO.N,/GPIO38*%
X162306000Y-95432000D03*
%TO.P,J1,3,Pin_3*%
%TO.N,/GPIO37*%
X162306000Y-92892000D03*
%TO.P,J1,4,Pin_4*%
%TO.N,/GPIO13*%
X162306000Y-90352000D03*
%TO.P,J1,5,Pin_5*%
%TO.N,/GPIO2*%
X162306000Y-87812000D03*
%TO.P,J1,6,Pin_6*%
%TO.N,GNDD*%
X162306000Y-85272000D03*
%TD*%
D20*
%TO.N,/SW_SPIN*%
X139827000Y-93091000D03*
%TO.N,/SW_LID*%
X144272000Y-91694000D03*
X153162000Y-114300000D03*
X151638000Y-92366500D03*
%TO.N,/SW_SPIN*%
X160782000Y-114554000D03*
X160020000Y-93472000D03*
%TO.N,/FET_OUT*%
X139954000Y-108204000D03*
%TO.N,/GPIO38*%
X151892000Y-95686000D03*
%TO.N,/GPIO37*%
X154432000Y-94416000D03*
%TO.N,/GPIO13*%
X143002000Y-81970000D03*
X160020000Y-82224000D03*
%TO.N,/GPIO2*%
X146558000Y-87304000D03*
%TO.N,/BUZZER*%
X129286000Y-95432000D03*
X141986000Y-95432000D03*
%TO.N,/RELAY*%
X144018000Y-95178000D03*
X138430000Y-94416000D03*
%TO.N,/SW_ARM*%
X156210000Y-82986000D03*
X149098000Y-82986000D03*
%TO.N,/IND_OFF*%
X146812000Y-107116000D03*
%TO.N,/IND_PULSE*%
X150622000Y-98988000D03*
X163322000Y-104576000D03*
%TD*%
D21*
%TO.N,/SW_SPIN*%
X139086000Y-92350000D02*
X139827000Y-93091000D01*
X139086000Y-92350000D02*
X139086000Y-79712000D01*
%TO.N,/SW_LID*%
X144272000Y-91694000D02*
X144166000Y-91588000D01*
X153162000Y-92964000D02*
X152654000Y-92456000D01*
X152654000Y-92456000D02*
X151727500Y-92456000D01*
X153162000Y-114300000D02*
X153162000Y-92964000D01*
X151727500Y-92456000D02*
X151638000Y-92366500D01*
X144166000Y-91588000D02*
X144166000Y-79712000D01*
%TO.N,/SW_SPIN*%
X160020000Y-93472000D02*
X160782000Y-94234000D01*
X160782000Y-114046000D02*
X160782000Y-114554000D01*
X160782000Y-94234000D02*
X160782000Y-114046000D01*
%TO.N,/FET_OUT*%
X139086000Y-107336000D02*
X139086000Y-102572000D01*
X139954000Y-108204000D02*
X139086000Y-107336000D01*
%TO.N,/GPIO38*%
X151786000Y-102572000D02*
X151786000Y-95792000D01*
X151786000Y-95792000D02*
X151892000Y-95686000D01*
%TO.N,/GPIO37*%
X154326000Y-94522000D02*
X154326000Y-102572000D01*
X154432000Y-94416000D02*
X154326000Y-94522000D01*
%TO.N,/GPIO13*%
X143002000Y-81088000D02*
X143002000Y-81970000D01*
X160020000Y-88066000D02*
X162306000Y-90352000D01*
X160020000Y-82224000D02*
X160020000Y-88066000D01*
X141626000Y-79712000D02*
X143002000Y-81088000D01*
%TO.N,/GPIO2*%
X146706000Y-87156000D02*
X146706000Y-79712000D01*
X146558000Y-87304000D02*
X146706000Y-87156000D01*
%TO.N,/BUZZER*%
X141626000Y-95792000D02*
X141626000Y-102572000D01*
X141986000Y-95432000D02*
X141626000Y-95792000D01*
X124206000Y-90352000D02*
X129286000Y-95432000D01*
%TO.N,/RELAY*%
X134366000Y-90352000D02*
X138430000Y-94416000D01*
X144018000Y-95178000D02*
X144166000Y-95326000D01*
X144166000Y-95326000D02*
X144166000Y-102572000D01*
%TO.N,/SW_ARM*%
X156686000Y-83462000D02*
X156210000Y-82986000D01*
X149246000Y-82838000D02*
X149246000Y-79712000D01*
X149098000Y-82986000D02*
X149246000Y-82838000D01*
X156686000Y-90352000D02*
X156686000Y-83462000D01*
%TO.N,/SW_NUDGE*%
X154326000Y-79712000D02*
X154326000Y-88712000D01*
X154326000Y-88712000D02*
X152686000Y-90352000D01*
%TO.N,/IND_OFF*%
X146706000Y-107010000D02*
X146706000Y-102572000D01*
X146812000Y-107116000D02*
X146706000Y-107010000D01*
%TO.N,/IND_ON*%
X136546000Y-102572000D02*
X136546000Y-107232000D01*
X147066000Y-111252000D02*
X140566000Y-111252000D01*
X136546000Y-107232000D02*
X140566000Y-111252000D01*
%TO.N,/IND_PULSE*%
X150622000Y-80876000D02*
X150622000Y-98988000D01*
X164136000Y-110962000D02*
X170636000Y-110962000D01*
X164136000Y-105390000D02*
X164136000Y-110962000D01*
X163322000Y-104576000D02*
X164136000Y-105390000D01*
X151786000Y-79712000D02*
X150622000Y-80876000D01*
%TD*%
%TA.AperFunction,Conductor*%
%TO.N,VDD*%
G36*
X179774121Y-76728002D02*
G01*
X179820614Y-76781658D01*
X179832000Y-76834000D01*
X179832000Y-118238000D01*
X179811998Y-118306121D01*
X179758342Y-118352614D01*
X179706000Y-118364000D01*
X102234000Y-118364000D01*
X102165879Y-118343998D01*
X102119386Y-118290342D01*
X102108000Y-118238000D01*
X102108000Y-115172000D01*
X113652835Y-115172000D01*
X113671465Y-115408711D01*
X113672619Y-115413518D01*
X113672620Y-115413524D01*
X113707640Y-115559391D01*
X113726895Y-115639594D01*
X113728788Y-115644165D01*
X113728789Y-115644167D01*
X113773455Y-115752000D01*
X113817760Y-115858963D01*
X113820346Y-115863183D01*
X113939241Y-116057202D01*
X113939245Y-116057208D01*
X113941824Y-116061416D01*
X114096031Y-116241969D01*
X114276584Y-116396176D01*
X114280792Y-116398755D01*
X114280798Y-116398759D01*
X114474817Y-116517654D01*
X114479037Y-116520240D01*
X114483607Y-116522133D01*
X114483611Y-116522135D01*
X114693833Y-116609211D01*
X114698406Y-116611105D01*
X114778609Y-116630360D01*
X114924476Y-116665380D01*
X114924482Y-116665381D01*
X114929289Y-116666535D01*
X115166000Y-116685165D01*
X115402711Y-116666535D01*
X115407518Y-116665381D01*
X115407524Y-116665380D01*
X115553391Y-116630360D01*
X115633594Y-116611105D01*
X115638167Y-116609211D01*
X115848389Y-116522135D01*
X115848393Y-116522133D01*
X115852963Y-116520240D01*
X115857183Y-116517654D01*
X116051202Y-116398759D01*
X116051208Y-116398755D01*
X116055416Y-116396176D01*
X116235969Y-116241969D01*
X116390176Y-116061416D01*
X116392755Y-116057208D01*
X116392759Y-116057202D01*
X116511654Y-115863183D01*
X116514240Y-115858963D01*
X116558546Y-115752000D01*
X116603211Y-115644167D01*
X116603212Y-115644165D01*
X116605105Y-115639594D01*
X116624360Y-115559391D01*
X116659380Y-115413524D01*
X116659381Y-115413518D01*
X116660535Y-115408711D01*
X116679165Y-115172000D01*
X120152835Y-115172000D01*
X120171465Y-115408711D01*
X120172619Y-115413518D01*
X120172620Y-115413524D01*
X120207640Y-115559391D01*
X120226895Y-115639594D01*
X120228788Y-115644165D01*
X120228789Y-115644167D01*
X120273455Y-115752000D01*
X120317760Y-115858963D01*
X120320346Y-115863183D01*
X120439241Y-116057202D01*
X120439245Y-116057208D01*
X120441824Y-116061416D01*
X120596031Y-116241969D01*
X120776584Y-116396176D01*
X120780792Y-116398755D01*
X120780798Y-116398759D01*
X120974817Y-116517654D01*
X120979037Y-116520240D01*
X120983607Y-116522133D01*
X120983611Y-116522135D01*
X121193833Y-116609211D01*
X121198406Y-116611105D01*
X121278609Y-116630360D01*
X121424476Y-116665380D01*
X121424482Y-116665381D01*
X121429289Y-116666535D01*
X121666000Y-116685165D01*
X121902711Y-116666535D01*
X121907518Y-116665381D01*
X121907524Y-116665380D01*
X122053391Y-116630360D01*
X122133594Y-116611105D01*
X122138167Y-116609211D01*
X122348389Y-116522135D01*
X122348393Y-116522133D01*
X122352963Y-116520240D01*
X122357183Y-116517654D01*
X122551202Y-116398759D01*
X122551208Y-116398755D01*
X122555416Y-116396176D01*
X122735969Y-116241969D01*
X122890176Y-116061416D01*
X122892755Y-116057208D01*
X122892759Y-116057202D01*
X123011654Y-115863183D01*
X123014240Y-115858963D01*
X123058546Y-115752000D01*
X139052835Y-115752000D01*
X139071465Y-115988711D01*
X139126895Y-116219594D01*
X139128788Y-116224165D01*
X139128789Y-116224167D01*
X139179752Y-116347202D01*
X139217760Y-116438963D01*
X139220346Y-116443183D01*
X139339241Y-116637202D01*
X139339245Y-116637208D01*
X139341824Y-116641416D01*
X139496031Y-116821969D01*
X139676584Y-116976176D01*
X139680792Y-116978755D01*
X139680798Y-116978759D01*
X139874817Y-117097654D01*
X139879037Y-117100240D01*
X139883607Y-117102133D01*
X139883611Y-117102135D01*
X140093833Y-117189211D01*
X140098406Y-117191105D01*
X140178609Y-117210360D01*
X140324476Y-117245380D01*
X140324482Y-117245381D01*
X140329289Y-117246535D01*
X140566000Y-117265165D01*
X140802711Y-117246535D01*
X140807518Y-117245381D01*
X140807524Y-117245380D01*
X140953391Y-117210360D01*
X141033594Y-117191105D01*
X141038167Y-117189211D01*
X141248389Y-117102135D01*
X141248393Y-117102133D01*
X141252963Y-117100240D01*
X141257183Y-117097654D01*
X141451202Y-116978759D01*
X141451208Y-116978755D01*
X141455416Y-116976176D01*
X141635969Y-116821969D01*
X141790176Y-116641416D01*
X141792755Y-116637208D01*
X141792759Y-116637202D01*
X141911654Y-116443183D01*
X141914240Y-116438963D01*
X141952249Y-116347202D01*
X142003211Y-116224167D01*
X142003212Y-116224165D01*
X142005105Y-116219594D01*
X142060535Y-115988711D01*
X142079165Y-115752000D01*
X145552835Y-115752000D01*
X145571465Y-115988711D01*
X145626895Y-116219594D01*
X145628788Y-116224165D01*
X145628789Y-116224167D01*
X145679752Y-116347202D01*
X145717760Y-116438963D01*
X145720346Y-116443183D01*
X145839241Y-116637202D01*
X145839245Y-116637208D01*
X145841824Y-116641416D01*
X145996031Y-116821969D01*
X146176584Y-116976176D01*
X146180792Y-116978755D01*
X146180798Y-116978759D01*
X146374817Y-117097654D01*
X146379037Y-117100240D01*
X146383607Y-117102133D01*
X146383611Y-117102135D01*
X146593833Y-117189211D01*
X146598406Y-117191105D01*
X146678609Y-117210360D01*
X146824476Y-117245380D01*
X146824482Y-117245381D01*
X146829289Y-117246535D01*
X147066000Y-117265165D01*
X147302711Y-117246535D01*
X147307518Y-117245381D01*
X147307524Y-117245380D01*
X147453391Y-117210360D01*
X147533594Y-117191105D01*
X147538167Y-117189211D01*
X147748389Y-117102135D01*
X147748393Y-117102133D01*
X147752963Y-117100240D01*
X147757183Y-117097654D01*
X147951202Y-116978759D01*
X147951208Y-116978755D01*
X147955416Y-116976176D01*
X148135969Y-116821969D01*
X148290176Y-116641416D01*
X148292755Y-116637208D01*
X148292759Y-116637202D01*
X148411654Y-116443183D01*
X148414240Y-116438963D01*
X148452249Y-116347202D01*
X148503211Y-116224167D01*
X148503212Y-116224165D01*
X148505105Y-116219594D01*
X148560535Y-115988711D01*
X148579165Y-115752000D01*
X148560535Y-115515289D01*
X148547742Y-115462000D01*
X148506260Y-115289218D01*
X148505105Y-115284406D01*
X148482662Y-115230223D01*
X148416135Y-115069611D01*
X148416133Y-115069607D01*
X148414240Y-115065037D01*
X148358425Y-114973955D01*
X148292759Y-114866798D01*
X148292755Y-114866792D01*
X148290176Y-114862584D01*
X148135969Y-114682031D01*
X147955416Y-114527824D01*
X147951208Y-114525245D01*
X147951202Y-114525241D01*
X147757183Y-114406346D01*
X147752963Y-114403760D01*
X147748393Y-114401867D01*
X147748389Y-114401865D01*
X147538167Y-114314789D01*
X147538165Y-114314788D01*
X147533594Y-114312895D01*
X147424892Y-114286798D01*
X147307524Y-114258620D01*
X147307518Y-114258619D01*
X147302711Y-114257465D01*
X147066000Y-114238835D01*
X146829289Y-114257465D01*
X146824482Y-114258619D01*
X146824476Y-114258620D01*
X146707108Y-114286798D01*
X146598406Y-114312895D01*
X146593835Y-114314788D01*
X146593833Y-114314789D01*
X146383611Y-114401865D01*
X146383607Y-114401867D01*
X146379037Y-114403760D01*
X146374817Y-114406346D01*
X146180798Y-114525241D01*
X146180792Y-114525245D01*
X146176584Y-114527824D01*
X145996031Y-114682031D01*
X145841824Y-114862584D01*
X145839245Y-114866792D01*
X145839241Y-114866798D01*
X145773575Y-114973955D01*
X145717760Y-115065037D01*
X145715867Y-115069607D01*
X145715865Y-115069611D01*
X145649338Y-115230223D01*
X145626895Y-115284406D01*
X145625740Y-115289218D01*
X145584259Y-115462000D01*
X145571465Y-115515289D01*
X145552835Y-115752000D01*
X142079165Y-115752000D01*
X142060535Y-115515289D01*
X142047742Y-115462000D01*
X142006260Y-115289218D01*
X142005105Y-115284406D01*
X141982662Y-115230223D01*
X141916135Y-115069611D01*
X141916133Y-115069607D01*
X141914240Y-115065037D01*
X141858425Y-114973955D01*
X141792759Y-114866798D01*
X141792755Y-114866792D01*
X141790176Y-114862584D01*
X141635969Y-114682031D01*
X141455416Y-114527824D01*
X141451208Y-114525245D01*
X141451202Y-114525241D01*
X141257183Y-114406346D01*
X141252963Y-114403760D01*
X141248393Y-114401867D01*
X141248389Y-114401865D01*
X141038167Y-114314789D01*
X141038165Y-114314788D01*
X141033594Y-114312895D01*
X140924892Y-114286798D01*
X140807524Y-114258620D01*
X140807518Y-114258619D01*
X140802711Y-114257465D01*
X140566000Y-114238835D01*
X140329289Y-114257465D01*
X140324482Y-114258619D01*
X140324476Y-114258620D01*
X140207108Y-114286798D01*
X140098406Y-114312895D01*
X140093835Y-114314788D01*
X140093833Y-114314789D01*
X139883611Y-114401865D01*
X139883607Y-114401867D01*
X139879037Y-114403760D01*
X139874817Y-114406346D01*
X139680798Y-114525241D01*
X139680792Y-114525245D01*
X139676584Y-114527824D01*
X139496031Y-114682031D01*
X139341824Y-114862584D01*
X139339245Y-114866792D01*
X139339241Y-114866798D01*
X139273575Y-114973955D01*
X139217760Y-115065037D01*
X139215867Y-115069607D01*
X139215865Y-115069611D01*
X139149338Y-115230223D01*
X139126895Y-115284406D01*
X139125740Y-115289218D01*
X139084259Y-115462000D01*
X139071465Y-115515289D01*
X139052835Y-115752000D01*
X123058546Y-115752000D01*
X123103211Y-115644167D01*
X123103212Y-115644165D01*
X123105105Y-115639594D01*
X123124360Y-115559391D01*
X123159380Y-115413524D01*
X123159381Y-115413518D01*
X123160535Y-115408711D01*
X123179165Y-115172000D01*
X123160535Y-114935289D01*
X123158199Y-114925556D01*
X123121049Y-114770817D01*
X123105105Y-114704406D01*
X123088895Y-114665271D01*
X123016135Y-114489611D01*
X123016133Y-114489607D01*
X123014240Y-114485037D01*
X122963272Y-114401865D01*
X122892759Y-114286798D01*
X122892755Y-114286792D01*
X122890176Y-114282584D01*
X122735969Y-114102031D01*
X122555416Y-113947824D01*
X122551208Y-113945245D01*
X122551202Y-113945241D01*
X122357183Y-113826346D01*
X122352963Y-113823760D01*
X122348393Y-113821867D01*
X122348389Y-113821865D01*
X122138167Y-113734789D01*
X122138165Y-113734788D01*
X122133594Y-113732895D01*
X122053391Y-113713640D01*
X121907524Y-113678620D01*
X121907518Y-113678619D01*
X121902711Y-113677465D01*
X121666000Y-113658835D01*
X121429289Y-113677465D01*
X121424482Y-113678619D01*
X121424476Y-113678620D01*
X121278609Y-113713640D01*
X121198406Y-113732895D01*
X121193835Y-113734788D01*
X121193833Y-113734789D01*
X120983611Y-113821865D01*
X120983607Y-113821867D01*
X120979037Y-113823760D01*
X120974817Y-113826346D01*
X120780798Y-113945241D01*
X120780792Y-113945245D01*
X120776584Y-113947824D01*
X120596031Y-114102031D01*
X120441824Y-114282584D01*
X120439245Y-114286792D01*
X120439241Y-114286798D01*
X120368728Y-114401865D01*
X120317760Y-114485037D01*
X120315867Y-114489607D01*
X120315865Y-114489611D01*
X120243105Y-114665271D01*
X120226895Y-114704406D01*
X120210951Y-114770817D01*
X120173802Y-114925556D01*
X120171465Y-114935289D01*
X120152835Y-115172000D01*
X116679165Y-115172000D01*
X116660535Y-114935289D01*
X116658199Y-114925556D01*
X116621049Y-114770817D01*
X116605105Y-114704406D01*
X116588895Y-114665271D01*
X116516135Y-114489611D01*
X116516133Y-114489607D01*
X116514240Y-114485037D01*
X116463272Y-114401865D01*
X116392759Y-114286798D01*
X116392755Y-114286792D01*
X116390176Y-114282584D01*
X116235969Y-114102031D01*
X116055416Y-113947824D01*
X116051208Y-113945245D01*
X116051202Y-113945241D01*
X115857183Y-113826346D01*
X115852963Y-113823760D01*
X115848393Y-113821867D01*
X115848389Y-113821865D01*
X115638167Y-113734789D01*
X115638165Y-113734788D01*
X115633594Y-113732895D01*
X115553391Y-113713640D01*
X115407524Y-113678620D01*
X115407518Y-113678619D01*
X115402711Y-113677465D01*
X115166000Y-113658835D01*
X114929289Y-113677465D01*
X114924482Y-113678619D01*
X114924476Y-113678620D01*
X114778609Y-113713640D01*
X114698406Y-113732895D01*
X114693835Y-113734788D01*
X114693833Y-113734789D01*
X114483611Y-113821865D01*
X114483607Y-113821867D01*
X114479037Y-113823760D01*
X114474817Y-113826346D01*
X114280798Y-113945241D01*
X114280792Y-113945245D01*
X114276584Y-113947824D01*
X114096031Y-114102031D01*
X113941824Y-114282584D01*
X113939245Y-114286792D01*
X113939241Y-114286798D01*
X113868728Y-114401865D01*
X113817760Y-114485037D01*
X113815867Y-114489607D01*
X113815865Y-114489611D01*
X113743105Y-114665271D01*
X113726895Y-114704406D01*
X113710951Y-114770817D01*
X113673802Y-114925556D01*
X113671465Y-114935289D01*
X113652835Y-115172000D01*
X102108000Y-115172000D01*
X102108000Y-110672000D01*
X113652835Y-110672000D01*
X113671465Y-110908711D01*
X113672619Y-110913518D01*
X113672620Y-110913524D01*
X113707640Y-111059391D01*
X113726895Y-111139594D01*
X113728788Y-111144165D01*
X113728789Y-111144167D01*
X113773455Y-111252000D01*
X113817760Y-111358963D01*
X113820346Y-111363183D01*
X113939241Y-111557202D01*
X113939245Y-111557208D01*
X113941824Y-111561416D01*
X114096031Y-111741969D01*
X114276584Y-111896176D01*
X114280792Y-111898755D01*
X114280798Y-111898759D01*
X114357342Y-111945665D01*
X114479037Y-112020240D01*
X114483607Y-112022133D01*
X114483611Y-112022135D01*
X114693833Y-112109211D01*
X114698406Y-112111105D01*
X114778609Y-112130360D01*
X114924476Y-112165380D01*
X114924482Y-112165381D01*
X114929289Y-112166535D01*
X115166000Y-112185165D01*
X115402711Y-112166535D01*
X115407518Y-112165381D01*
X115407524Y-112165380D01*
X115553391Y-112130360D01*
X115633594Y-112111105D01*
X115638167Y-112109211D01*
X115848389Y-112022135D01*
X115848393Y-112022133D01*
X115852963Y-112020240D01*
X115974658Y-111945665D01*
X116051202Y-111898759D01*
X116051208Y-111898755D01*
X116055416Y-111896176D01*
X116235969Y-111741969D01*
X116390176Y-111561416D01*
X116392755Y-111557208D01*
X116392759Y-111557202D01*
X116511654Y-111363183D01*
X116514240Y-111358963D01*
X116558546Y-111252000D01*
X116603211Y-111144167D01*
X116603212Y-111144165D01*
X116605105Y-111139594D01*
X116624360Y-111059391D01*
X116659380Y-110913524D01*
X116659381Y-110913518D01*
X116660535Y-110908711D01*
X116679165Y-110672000D01*
X120152835Y-110672000D01*
X120171465Y-110908711D01*
X120172619Y-110913518D01*
X120172620Y-110913524D01*
X120207640Y-111059391D01*
X120226895Y-111139594D01*
X120228788Y-111144165D01*
X120228789Y-111144167D01*
X120273455Y-111252000D01*
X120317760Y-111358963D01*
X120320346Y-111363183D01*
X120439241Y-111557202D01*
X120439245Y-111557208D01*
X120441824Y-111561416D01*
X120596031Y-111741969D01*
X120776584Y-111896176D01*
X120780792Y-111898755D01*
X120780798Y-111898759D01*
X120857342Y-111945665D01*
X120979037Y-112020240D01*
X120983607Y-112022133D01*
X120983611Y-112022135D01*
X121193833Y-112109211D01*
X121198406Y-112111105D01*
X121278609Y-112130360D01*
X121424476Y-112165380D01*
X121424482Y-112165381D01*
X121429289Y-112166535D01*
X121666000Y-112185165D01*
X121902711Y-112166535D01*
X121907518Y-112165381D01*
X121907524Y-112165380D01*
X122053391Y-112130360D01*
X122133594Y-112111105D01*
X122138167Y-112109211D01*
X122348389Y-112022135D01*
X122348393Y-112022133D01*
X122352963Y-112020240D01*
X122474658Y-111945665D01*
X122551202Y-111898759D01*
X122551208Y-111898755D01*
X122555416Y-111896176D01*
X122735969Y-111741969D01*
X122890176Y-111561416D01*
X122892755Y-111557208D01*
X122892759Y-111557202D01*
X123011654Y-111363183D01*
X123014240Y-111358963D01*
X123058546Y-111252000D01*
X123103211Y-111144167D01*
X123103212Y-111144165D01*
X123105105Y-111139594D01*
X123124360Y-111059391D01*
X123159380Y-110913524D01*
X123159381Y-110913518D01*
X123160535Y-110908711D01*
X123179165Y-110672000D01*
X123160535Y-110435289D01*
X123105105Y-110204406D01*
X123094508Y-110178823D01*
X123016135Y-109989611D01*
X123016133Y-109989607D01*
X123014240Y-109985037D01*
X122963272Y-109901865D01*
X122892759Y-109786798D01*
X122892755Y-109786792D01*
X122890176Y-109782584D01*
X122735969Y-109602031D01*
X122555416Y-109447824D01*
X122551208Y-109445245D01*
X122551202Y-109445241D01*
X122357183Y-109326346D01*
X122352963Y-109323760D01*
X122348393Y-109321867D01*
X122348389Y-109321865D01*
X122138167Y-109234789D01*
X122138165Y-109234788D01*
X122133594Y-109232895D01*
X122053391Y-109213640D01*
X121907524Y-109178620D01*
X121907518Y-109178619D01*
X121902711Y-109177465D01*
X121666000Y-109158835D01*
X121429289Y-109177465D01*
X121424482Y-109178619D01*
X121424476Y-109178620D01*
X121278609Y-109213640D01*
X121198406Y-109232895D01*
X121193835Y-109234788D01*
X121193833Y-109234789D01*
X120983611Y-109321865D01*
X120983607Y-109321867D01*
X120979037Y-109323760D01*
X120974817Y-109326346D01*
X120780798Y-109445241D01*
X120780792Y-109445245D01*
X120776584Y-109447824D01*
X120596031Y-109602031D01*
X120441824Y-109782584D01*
X120439245Y-109786792D01*
X120439241Y-109786798D01*
X120368728Y-109901865D01*
X120317760Y-109985037D01*
X120315867Y-109989607D01*
X120315865Y-109989611D01*
X120237492Y-110178823D01*
X120226895Y-110204406D01*
X120171465Y-110435289D01*
X120152835Y-110672000D01*
X116679165Y-110672000D01*
X116660535Y-110435289D01*
X116605105Y-110204406D01*
X116594508Y-110178823D01*
X116516135Y-109989611D01*
X116516133Y-109989607D01*
X116514240Y-109985037D01*
X116463272Y-109901865D01*
X116392759Y-109786798D01*
X116392755Y-109786792D01*
X116390176Y-109782584D01*
X116235969Y-109602031D01*
X116055416Y-109447824D01*
X116051208Y-109445245D01*
X116051202Y-109445241D01*
X115857183Y-109326346D01*
X115852963Y-109323760D01*
X115848393Y-109321867D01*
X115848389Y-109321865D01*
X115638167Y-109234789D01*
X115638165Y-109234788D01*
X115633594Y-109232895D01*
X115553391Y-109213640D01*
X115407524Y-109178620D01*
X115407518Y-109178619D01*
X115402711Y-109177465D01*
X115166000Y-109158835D01*
X114929289Y-109177465D01*
X114924482Y-109178619D01*
X114924476Y-109178620D01*
X114778609Y-109213640D01*
X114698406Y-109232895D01*
X114693835Y-109234788D01*
X114693833Y-109234789D01*
X114483611Y-109321865D01*
X114483607Y-109321867D01*
X114479037Y-109323760D01*
X114474817Y-109326346D01*
X114280798Y-109445241D01*
X114280792Y-109445245D01*
X114276584Y-109447824D01*
X114096031Y-109602031D01*
X113941824Y-109782584D01*
X113939245Y-109786792D01*
X113939241Y-109786798D01*
X113868728Y-109901865D01*
X113817760Y-109985037D01*
X113815867Y-109989607D01*
X113815865Y-109989611D01*
X113737492Y-110178823D01*
X113726895Y-110204406D01*
X113671465Y-110435289D01*
X113652835Y-110672000D01*
X102108000Y-110672000D01*
X102108000Y-103630777D01*
X130771777Y-103630777D01*
X130781074Y-103642793D01*
X130824069Y-103672898D01*
X130833555Y-103678376D01*
X131024993Y-103767645D01*
X131035285Y-103771391D01*
X131239309Y-103826059D01*
X131250104Y-103827962D01*
X131460525Y-103846372D01*
X131471475Y-103846372D01*
X131681896Y-103827962D01*
X131692691Y-103826059D01*
X131896715Y-103771391D01*
X131907007Y-103767645D01*
X132098445Y-103678376D01*
X132107931Y-103672898D01*
X132151764Y-103642207D01*
X132160139Y-103631729D01*
X132153071Y-103618281D01*
X131478812Y-102944022D01*
X131464868Y-102936408D01*
X131463035Y-102936539D01*
X131456420Y-102940790D01*
X130778207Y-103619003D01*
X130771777Y-103630777D01*
X102108000Y-103630777D01*
X102108000Y-102577475D01*
X130191628Y-102577475D01*
X130210038Y-102787896D01*
X130211941Y-102798691D01*
X130266609Y-103002715D01*
X130270355Y-103013007D01*
X130359623Y-103204441D01*
X130365103Y-103213932D01*
X130395794Y-103257765D01*
X130406271Y-103266140D01*
X130419718Y-103259072D01*
X131093978Y-102584812D01*
X131101592Y-102570868D01*
X131101461Y-102569035D01*
X131097210Y-102562420D01*
X130418997Y-101884207D01*
X130407223Y-101877777D01*
X130395207Y-101887074D01*
X130365103Y-101930068D01*
X130359623Y-101939559D01*
X130270355Y-102130993D01*
X130266609Y-102141285D01*
X130211941Y-102345309D01*
X130210038Y-102356104D01*
X130191628Y-102566525D01*
X130191628Y-102577475D01*
X102108000Y-102577475D01*
X102108000Y-101291604D01*
X105546787Y-101291604D01*
X105556567Y-101502899D01*
X105557971Y-101508724D01*
X105557971Y-101508725D01*
X105578008Y-101591864D01*
X105606125Y-101708534D01*
X105608607Y-101713992D01*
X105608608Y-101713996D01*
X105652053Y-101809546D01*
X105693674Y-101901087D01*
X105816054Y-102073611D01*
X105968850Y-102219881D01*
X106146548Y-102334620D01*
X106199857Y-102356104D01*
X106337168Y-102411442D01*
X106337171Y-102411443D01*
X106342737Y-102413686D01*
X106550337Y-102454228D01*
X106555899Y-102454500D01*
X107261846Y-102454500D01*
X107419566Y-102439452D01*
X107622534Y-102379908D01*
X107627862Y-102377164D01*
X107805249Y-102285804D01*
X107805252Y-102285802D01*
X107810580Y-102283058D01*
X107976920Y-102152396D01*
X107980852Y-102147865D01*
X107980855Y-102147862D01*
X108111621Y-101997167D01*
X108115552Y-101992637D01*
X108118552Y-101987451D01*
X108118555Y-101987447D01*
X108218467Y-101814742D01*
X108221473Y-101809546D01*
X108290861Y-101609729D01*
X108293451Y-101591864D01*
X108304992Y-101512271D01*
X130771860Y-101512271D01*
X130778928Y-101525718D01*
X131453188Y-102199978D01*
X131467132Y-102207592D01*
X131468965Y-102207461D01*
X131475580Y-102203210D01*
X132153793Y-101524997D01*
X132160223Y-101513223D01*
X132150926Y-101501207D01*
X132107931Y-101471102D01*
X132098445Y-101465624D01*
X131907007Y-101376355D01*
X131896715Y-101372609D01*
X131692691Y-101317941D01*
X131681896Y-101316038D01*
X131471475Y-101297628D01*
X131460525Y-101297628D01*
X131250104Y-101316038D01*
X131239309Y-101317941D01*
X131035285Y-101372609D01*
X131024993Y-101376355D01*
X130833559Y-101465623D01*
X130824068Y-101471103D01*
X130780235Y-101501794D01*
X130771860Y-101512271D01*
X108304992Y-101512271D01*
X108320352Y-101406336D01*
X108320352Y-101406333D01*
X108321213Y-101400396D01*
X108311433Y-101189101D01*
X108261875Y-100983466D01*
X108218525Y-100888122D01*
X108207084Y-100862959D01*
X108174326Y-100790913D01*
X108051946Y-100618389D01*
X108047623Y-100614251D01*
X108047619Y-100614246D01*
X107956309Y-100526836D01*
X107920933Y-100465280D01*
X107924452Y-100394371D01*
X107965749Y-100336621D01*
X107977137Y-100328674D01*
X108026807Y-100297937D01*
X108038208Y-100288901D01*
X108152739Y-100174171D01*
X108161751Y-100162760D01*
X108246816Y-100024757D01*
X108252963Y-100011576D01*
X108304138Y-99857290D01*
X108307005Y-99843914D01*
X108316672Y-99749562D01*
X108317000Y-99743146D01*
X108317000Y-99618115D01*
X108312525Y-99602876D01*
X108311135Y-99601671D01*
X108303452Y-99600000D01*
X105569116Y-99600000D01*
X105553877Y-99604475D01*
X105552672Y-99605865D01*
X105551001Y-99613548D01*
X105551001Y-99743095D01*
X105551338Y-99749614D01*
X105561257Y-99845206D01*
X105564149Y-99858600D01*
X105615588Y-100012784D01*
X105621761Y-100025962D01*
X105707063Y-100163807D01*
X105716099Y-100175208D01*
X105830829Y-100289739D01*
X105842240Y-100298751D01*
X105887655Y-100326745D01*
X105935148Y-100379517D01*
X105946572Y-100449589D01*
X105918298Y-100514713D01*
X105899375Y-100533088D01*
X105891080Y-100539604D01*
X105887148Y-100544135D01*
X105887145Y-100544138D01*
X105822634Y-100618481D01*
X105752448Y-100699363D01*
X105749448Y-100704549D01*
X105749445Y-100704553D01*
X105702312Y-100786026D01*
X105646527Y-100882454D01*
X105577139Y-101082271D01*
X105576278Y-101088206D01*
X105576278Y-101088208D01*
X105550277Y-101267537D01*
X105546787Y-101291604D01*
X102108000Y-101291604D01*
X102108000Y-99073885D01*
X105551000Y-99073885D01*
X105555475Y-99089124D01*
X105556865Y-99090329D01*
X105564548Y-99092000D01*
X106661885Y-99092000D01*
X106677124Y-99087525D01*
X106678329Y-99086135D01*
X106680000Y-99078452D01*
X106680000Y-99073885D01*
X107188000Y-99073885D01*
X107192475Y-99089124D01*
X107193865Y-99090329D01*
X107201548Y-99092000D01*
X108298884Y-99092000D01*
X108314123Y-99087525D01*
X108315328Y-99086135D01*
X108316999Y-99078452D01*
X108316999Y-98948905D01*
X108316662Y-98942386D01*
X108306743Y-98846794D01*
X108303851Y-98833400D01*
X108252412Y-98679216D01*
X108246239Y-98666038D01*
X108160937Y-98528193D01*
X108151901Y-98516792D01*
X108037171Y-98402261D01*
X108025760Y-98393249D01*
X107887757Y-98308184D01*
X107874576Y-98302037D01*
X107720290Y-98250862D01*
X107706914Y-98247995D01*
X107612562Y-98238328D01*
X107606145Y-98238000D01*
X107206115Y-98238000D01*
X107190876Y-98242475D01*
X107189671Y-98243865D01*
X107188000Y-98251548D01*
X107188000Y-99073885D01*
X106680000Y-99073885D01*
X106680000Y-98256116D01*
X106675525Y-98240877D01*
X106674135Y-98239672D01*
X106666452Y-98238001D01*
X106261905Y-98238001D01*
X106255386Y-98238338D01*
X106159794Y-98248257D01*
X106146400Y-98251149D01*
X105992216Y-98302588D01*
X105979038Y-98308761D01*
X105841193Y-98394063D01*
X105829792Y-98403099D01*
X105715261Y-98517829D01*
X105706249Y-98529240D01*
X105621184Y-98667243D01*
X105615037Y-98680424D01*
X105563862Y-98834710D01*
X105560995Y-98848086D01*
X105551328Y-98942438D01*
X105551000Y-98948855D01*
X105551000Y-99073885D01*
X102108000Y-99073885D01*
X102108000Y-90679846D01*
X121097500Y-90679846D01*
X121112548Y-90837566D01*
X121172092Y-91040534D01*
X121174836Y-91045861D01*
X121174836Y-91045862D01*
X121235050Y-91162774D01*
X121268942Y-91228580D01*
X121399604Y-91394920D01*
X121404135Y-91398852D01*
X121404138Y-91398855D01*
X121533923Y-91511476D01*
X121559363Y-91533552D01*
X121564549Y-91536552D01*
X121564553Y-91536555D01*
X121660957Y-91592326D01*
X121742454Y-91639473D01*
X121942271Y-91708861D01*
X121948206Y-91709722D01*
X121948208Y-91709722D01*
X122145664Y-91738352D01*
X122145667Y-91738352D01*
X122151604Y-91739213D01*
X122362899Y-91729433D01*
X122509924Y-91694000D01*
X122562701Y-91681281D01*
X122562703Y-91681280D01*
X122568534Y-91679875D01*
X122573992Y-91677393D01*
X122573996Y-91677392D01*
X122697705Y-91621144D01*
X122761087Y-91592326D01*
X122933611Y-91469946D01*
X122937753Y-91465619D01*
X122937759Y-91465614D01*
X123024806Y-91374683D01*
X123086361Y-91339306D01*
X123157270Y-91342825D01*
X123215021Y-91384121D01*
X123222965Y-91395504D01*
X123257522Y-91451348D01*
X123382697Y-91576305D01*
X123388927Y-91580145D01*
X123388928Y-91580146D01*
X123526090Y-91664694D01*
X123533262Y-91669115D01*
X123601098Y-91691615D01*
X123694611Y-91722632D01*
X123694613Y-91722632D01*
X123701139Y-91724797D01*
X123707975Y-91725497D01*
X123707978Y-91725498D01*
X123746386Y-91729433D01*
X123805600Y-91735500D01*
X124606400Y-91735500D01*
X124609646Y-91735163D01*
X124609650Y-91735163D01*
X124625724Y-91733495D01*
X124695546Y-91746360D01*
X124727823Y-91769727D01*
X128338878Y-95380783D01*
X128372904Y-95443095D01*
X128375093Y-95456706D01*
X128379143Y-95495240D01*
X128391610Y-95613855D01*
X128392458Y-95621928D01*
X128451473Y-95803556D01*
X128454776Y-95809278D01*
X128454777Y-95809279D01*
X128465481Y-95827819D01*
X128546960Y-95968944D01*
X128674747Y-96110866D01*
X128829248Y-96223118D01*
X128835276Y-96225802D01*
X128835278Y-96225803D01*
X128937750Y-96271426D01*
X129003712Y-96300794D01*
X129097112Y-96320647D01*
X129184056Y-96339128D01*
X129184061Y-96339128D01*
X129190513Y-96340500D01*
X129381487Y-96340500D01*
X129387939Y-96339128D01*
X129387944Y-96339128D01*
X129474888Y-96320647D01*
X129568288Y-96300794D01*
X129634250Y-96271426D01*
X129736722Y-96225803D01*
X129736724Y-96225802D01*
X129742752Y-96223118D01*
X129897253Y-96110866D01*
X130025040Y-95968944D01*
X130106519Y-95827819D01*
X130117223Y-95809279D01*
X130117224Y-95809278D01*
X130120527Y-95803556D01*
X130179542Y-95621928D01*
X130180391Y-95613855D01*
X130198814Y-95438565D01*
X130199504Y-95432000D01*
X130189941Y-95341015D01*
X130180232Y-95248635D01*
X130180232Y-95248633D01*
X130179542Y-95242072D01*
X130120527Y-95060444D01*
X130025040Y-94895056D01*
X129945254Y-94806444D01*
X129901675Y-94758045D01*
X129901674Y-94758044D01*
X129897253Y-94753134D01*
X129742752Y-94640882D01*
X129736724Y-94638198D01*
X129736722Y-94638197D01*
X129574319Y-94565891D01*
X129574318Y-94565891D01*
X129568288Y-94563206D01*
X129474887Y-94543353D01*
X129387944Y-94524872D01*
X129387939Y-94524872D01*
X129381487Y-94523500D01*
X129325594Y-94523500D01*
X129257473Y-94503498D01*
X129236499Y-94486595D01*
X125429751Y-90679846D01*
X129257500Y-90679846D01*
X129272548Y-90837566D01*
X129332092Y-91040534D01*
X129334836Y-91045861D01*
X129334836Y-91045862D01*
X129395050Y-91162774D01*
X129428942Y-91228580D01*
X129559604Y-91394920D01*
X129564135Y-91398852D01*
X129564138Y-91398855D01*
X129693923Y-91511476D01*
X129719363Y-91533552D01*
X129724549Y-91536552D01*
X129724553Y-91536555D01*
X129820957Y-91592326D01*
X129902454Y-91639473D01*
X130102271Y-91708861D01*
X130108206Y-91709722D01*
X130108208Y-91709722D01*
X130305664Y-91738352D01*
X130305667Y-91738352D01*
X130311604Y-91739213D01*
X130522899Y-91729433D01*
X130669924Y-91694000D01*
X130722701Y-91681281D01*
X130722703Y-91681280D01*
X130728534Y-91679875D01*
X130733992Y-91677393D01*
X130733996Y-91677392D01*
X130857705Y-91621144D01*
X130921087Y-91592326D01*
X131093611Y-91469946D01*
X131234813Y-91322444D01*
X131235736Y-91321480D01*
X131239881Y-91317150D01*
X131243130Y-91312119D01*
X131243135Y-91312112D01*
X131261033Y-91284393D01*
X131314789Y-91238016D01*
X131385085Y-91228063D01*
X131449602Y-91257696D01*
X131465970Y-91274909D01*
X131556262Y-91389857D01*
X131564499Y-91398506D01*
X131715123Y-91529212D01*
X131724847Y-91536147D01*
X131897467Y-91636010D01*
X131908331Y-91640984D01*
X132096727Y-91706407D01*
X132097716Y-91706648D01*
X132108008Y-91705180D01*
X132112000Y-91691615D01*
X132112000Y-89016598D01*
X132108027Y-89003067D01*
X132098601Y-89001712D01*
X132009463Y-89023194D01*
X131998168Y-89027083D01*
X131816618Y-89109629D01*
X131806276Y-89115576D01*
X131643603Y-89230968D01*
X131634575Y-89238761D01*
X131496658Y-89382831D01*
X131489259Y-89392200D01*
X131471582Y-89419577D01*
X131417828Y-89465955D01*
X131347532Y-89475909D01*
X131283015Y-89446278D01*
X131266644Y-89429063D01*
X131230084Y-89382520D01*
X131172396Y-89309080D01*
X131167865Y-89305148D01*
X131167862Y-89305145D01*
X131017167Y-89174379D01*
X131012637Y-89170448D01*
X131007451Y-89167448D01*
X131007447Y-89167445D01*
X130834742Y-89067533D01*
X130829546Y-89064527D01*
X130629729Y-88995139D01*
X130623794Y-88994278D01*
X130623792Y-88994278D01*
X130426336Y-88965648D01*
X130426333Y-88965648D01*
X130420396Y-88964787D01*
X130209101Y-88974567D01*
X130096466Y-89001712D01*
X130009299Y-89022719D01*
X130009297Y-89022720D01*
X130003466Y-89024125D01*
X129998008Y-89026607D01*
X129998004Y-89026608D01*
X129906990Y-89067990D01*
X129810913Y-89111674D01*
X129638389Y-89234054D01*
X129492119Y-89386850D01*
X129377380Y-89564548D01*
X129375137Y-89570114D01*
X129317718Y-89712590D01*
X129298314Y-89760737D01*
X129257772Y-89968337D01*
X129257500Y-89973899D01*
X129257500Y-90679846D01*
X125429751Y-90679846D01*
X125351405Y-90601500D01*
X125317379Y-90539188D01*
X125314500Y-90512405D01*
X125314500Y-89676600D01*
X125303526Y-89570834D01*
X125299749Y-89559511D01*
X125249868Y-89410002D01*
X125247550Y-89403054D01*
X125154478Y-89252652D01*
X125029303Y-89127695D01*
X125023072Y-89123854D01*
X124884968Y-89038725D01*
X124884966Y-89038724D01*
X124878738Y-89034885D01*
X124770005Y-88998820D01*
X124717389Y-88981368D01*
X124717387Y-88981368D01*
X124710861Y-88979203D01*
X124704025Y-88978503D01*
X124704022Y-88978502D01*
X124660969Y-88974091D01*
X124606400Y-88968500D01*
X123805600Y-88968500D01*
X123802354Y-88968837D01*
X123802350Y-88968837D01*
X123706692Y-88978762D01*
X123706688Y-88978763D01*
X123699834Y-88979474D01*
X123693298Y-88981655D01*
X123693296Y-88981655D01*
X123629117Y-89003067D01*
X123532054Y-89035450D01*
X123381652Y-89128522D01*
X123256695Y-89253697D01*
X123252855Y-89259927D01*
X123252854Y-89259928D01*
X123224926Y-89305236D01*
X123172154Y-89352729D01*
X123102082Y-89364153D01*
X123036958Y-89335879D01*
X123018582Y-89316955D01*
X123012396Y-89309080D01*
X123007865Y-89305148D01*
X123007862Y-89305145D01*
X122857167Y-89174379D01*
X122852637Y-89170448D01*
X122847451Y-89167448D01*
X122847447Y-89167445D01*
X122674742Y-89067533D01*
X122669546Y-89064527D01*
X122469729Y-88995139D01*
X122463794Y-88994278D01*
X122463792Y-88994278D01*
X122266336Y-88965648D01*
X122266333Y-88965648D01*
X122260396Y-88964787D01*
X122049101Y-88974567D01*
X121936466Y-89001712D01*
X121849299Y-89022719D01*
X121849297Y-89022720D01*
X121843466Y-89024125D01*
X121838008Y-89026607D01*
X121838004Y-89026608D01*
X121746990Y-89067990D01*
X121650913Y-89111674D01*
X121478389Y-89234054D01*
X121332119Y-89386850D01*
X121217380Y-89564548D01*
X121215137Y-89570114D01*
X121157718Y-89712590D01*
X121138314Y-89760737D01*
X121097772Y-89968337D01*
X121097500Y-89973899D01*
X121097500Y-90679846D01*
X102108000Y-90679846D01*
X102108000Y-81258399D01*
X104617304Y-81258399D01*
X104617711Y-81265451D01*
X104633457Y-81538539D01*
X104634282Y-81542746D01*
X104634283Y-81542751D01*
X104657392Y-81660536D01*
X104687480Y-81813894D01*
X104778372Y-82079371D01*
X104904454Y-82330055D01*
X105063390Y-82561309D01*
X105066277Y-82564482D01*
X105066278Y-82564483D01*
X105094552Y-82595556D01*
X105252241Y-82768853D01*
X105255530Y-82771603D01*
X105464219Y-82946096D01*
X105464224Y-82946100D01*
X105467511Y-82948848D01*
X105530363Y-82988275D01*
X105701578Y-83095678D01*
X105701582Y-83095680D01*
X105705218Y-83097961D01*
X105771043Y-83127682D01*
X105957050Y-83211668D01*
X105957054Y-83211670D01*
X105960962Y-83213434D01*
X105965082Y-83214654D01*
X105965081Y-83214654D01*
X106225899Y-83291912D01*
X106225903Y-83291913D01*
X106230012Y-83293130D01*
X106234246Y-83293778D01*
X106234251Y-83293779D01*
X106503147Y-83334925D01*
X106503149Y-83334925D01*
X106507389Y-83335574D01*
X106650199Y-83337818D01*
X106783668Y-83339915D01*
X106783674Y-83339915D01*
X106787959Y-83339982D01*
X107066532Y-83306271D01*
X107337952Y-83235065D01*
X107597197Y-83127682D01*
X107612719Y-83118612D01*
X107835764Y-82988275D01*
X107839471Y-82986109D01*
X108060289Y-82812966D01*
X108070301Y-82802635D01*
X108252582Y-82614534D01*
X108255565Y-82611456D01*
X108258098Y-82608008D01*
X108258102Y-82608003D01*
X108419149Y-82388763D01*
X108421687Y-82385308D01*
X108442335Y-82347279D01*
X108553530Y-82142484D01*
X108553531Y-82142482D01*
X108555580Y-82138708D01*
X108654767Y-81876217D01*
X108699215Y-81682148D01*
X108716454Y-81606878D01*
X108716455Y-81606874D01*
X108717412Y-81602694D01*
X108718420Y-81591406D01*
X108742137Y-81325665D01*
X108742357Y-81323200D01*
X108742809Y-81280000D01*
X108741629Y-81262682D01*
X108735570Y-81173808D01*
X108723724Y-81000045D01*
X108722857Y-80995859D01*
X108722856Y-80995851D01*
X108667689Y-80729467D01*
X108666820Y-80725270D01*
X108596705Y-80527270D01*
X108574584Y-80464801D01*
X108573153Y-80460760D01*
X108444453Y-80211409D01*
X108427596Y-80187423D01*
X108325940Y-80042782D01*
X108283104Y-79981832D01*
X108154378Y-79843307D01*
X108095011Y-79779420D01*
X108095008Y-79779418D01*
X108092090Y-79776277D01*
X108013559Y-79712000D01*
X130190647Y-79712000D01*
X130210022Y-79933463D01*
X130267560Y-80148196D01*
X130269882Y-80153177D01*
X130269883Y-80153178D01*
X130359186Y-80344689D01*
X130359189Y-80344694D01*
X130361512Y-80349676D01*
X130364668Y-80354183D01*
X130364669Y-80354185D01*
X130470533Y-80505374D01*
X130489023Y-80531781D01*
X130646219Y-80688977D01*
X130650727Y-80692134D01*
X130650730Y-80692136D01*
X130726495Y-80745187D01*
X130828323Y-80816488D01*
X130833305Y-80818811D01*
X130833310Y-80818814D01*
X130975256Y-80885004D01*
X131029804Y-80910440D01*
X131035112Y-80911862D01*
X131035114Y-80911863D01*
X131100949Y-80929503D01*
X131244537Y-80967978D01*
X131466000Y-80987353D01*
X131687463Y-80967978D01*
X131831051Y-80929503D01*
X131896886Y-80911863D01*
X131896888Y-80911862D01*
X131902196Y-80910440D01*
X131956744Y-80885004D01*
X132098690Y-80818814D01*
X132098695Y-80818811D01*
X132103677Y-80816488D01*
X132205505Y-80745187D01*
X132281270Y-80692136D01*
X132281273Y-80692134D01*
X132285781Y-80688977D01*
X132442977Y-80531781D01*
X132461468Y-80505374D01*
X132567331Y-80354185D01*
X132567332Y-80354183D01*
X132570488Y-80349676D01*
X132572811Y-80344694D01*
X132572814Y-80344689D01*
X132621805Y-80239627D01*
X132668723Y-80186342D01*
X132737000Y-80166881D01*
X132804960Y-80187423D01*
X132850195Y-80239627D01*
X132899186Y-80344689D01*
X132899189Y-80344694D01*
X132901512Y-80349676D01*
X132904668Y-80354183D01*
X132904669Y-80354185D01*
X133010533Y-80505374D01*
X133029023Y-80531781D01*
X133186219Y-80688977D01*
X133190727Y-80692134D01*
X133190730Y-80692136D01*
X133266495Y-80745187D01*
X133368323Y-80816488D01*
X133373305Y-80818811D01*
X133373310Y-80818814D01*
X133515256Y-80885004D01*
X133569804Y-80910440D01*
X133575112Y-80911862D01*
X133575114Y-80911863D01*
X133640949Y-80929503D01*
X133784537Y-80967978D01*
X134006000Y-80987353D01*
X134227463Y-80967978D01*
X134371051Y-80929503D01*
X134436886Y-80911863D01*
X134436888Y-80911862D01*
X134442196Y-80910440D01*
X134496744Y-80885004D01*
X134638690Y-80818814D01*
X134638695Y-80818811D01*
X134643677Y-80816488D01*
X134745505Y-80745187D01*
X134821270Y-80692136D01*
X134821273Y-80692134D01*
X134825781Y-80688977D01*
X134982977Y-80531781D01*
X135001468Y-80505374D01*
X135107331Y-80354185D01*
X135107332Y-80354183D01*
X135110488Y-80349676D01*
X135112811Y-80344694D01*
X135112814Y-80344689D01*
X135161805Y-80239627D01*
X135208723Y-80186342D01*
X135277000Y-80166881D01*
X135344960Y-80187423D01*
X135390195Y-80239627D01*
X135439186Y-80344689D01*
X135439189Y-80344694D01*
X135441512Y-80349676D01*
X135444668Y-80354183D01*
X135444669Y-80354185D01*
X135550533Y-80505374D01*
X135569023Y-80531781D01*
X135726219Y-80688977D01*
X135730727Y-80692134D01*
X135730730Y-80692136D01*
X135806495Y-80745187D01*
X135908323Y-80816488D01*
X135913305Y-80818811D01*
X135913310Y-80818814D01*
X136055256Y-80885004D01*
X136109804Y-80910440D01*
X136115112Y-80911862D01*
X136115114Y-80911863D01*
X136180949Y-80929503D01*
X136324537Y-80967978D01*
X136546000Y-80987353D01*
X136767463Y-80967978D01*
X136911051Y-80929503D01*
X136976886Y-80911863D01*
X136976888Y-80911862D01*
X136982196Y-80910440D01*
X137036744Y-80885004D01*
X137178690Y-80818814D01*
X137178695Y-80818811D01*
X137183677Y-80816488D01*
X137285505Y-80745187D01*
X137361270Y-80692136D01*
X137361273Y-80692134D01*
X137365781Y-80688977D01*
X137522977Y-80531781D01*
X137541468Y-80505374D01*
X137647331Y-80354185D01*
X137647332Y-80354183D01*
X137650488Y-80349676D01*
X137652811Y-80344694D01*
X137652814Y-80344689D01*
X137701805Y-80239627D01*
X137748723Y-80186342D01*
X137817000Y-80166881D01*
X137884960Y-80187423D01*
X137930195Y-80239627D01*
X137979186Y-80344689D01*
X137979189Y-80344694D01*
X137981512Y-80349676D01*
X137984668Y-80354183D01*
X137984669Y-80354185D01*
X138090533Y-80505374D01*
X138109023Y-80531781D01*
X138266219Y-80688977D01*
X138270727Y-80692134D01*
X138270730Y-80692136D01*
X138398771Y-80781791D01*
X138443099Y-80837248D01*
X138452500Y-80885004D01*
X138452500Y-92271233D01*
X138451973Y-92282416D01*
X138450298Y-92289909D01*
X138450547Y-92297835D01*
X138450547Y-92297836D01*
X138452438Y-92357986D01*
X138452500Y-92361945D01*
X138452500Y-92389856D01*
X138452997Y-92393790D01*
X138452997Y-92393791D01*
X138453005Y-92393856D01*
X138453938Y-92405693D01*
X138455327Y-92449889D01*
X138460978Y-92469339D01*
X138464987Y-92488700D01*
X138467526Y-92508797D01*
X138470445Y-92516168D01*
X138470445Y-92516170D01*
X138483804Y-92549912D01*
X138487649Y-92561142D01*
X138499982Y-92603593D01*
X138504015Y-92610412D01*
X138504017Y-92610417D01*
X138510293Y-92621028D01*
X138518988Y-92638776D01*
X138526448Y-92657617D01*
X138531110Y-92664033D01*
X138531110Y-92664034D01*
X138552436Y-92693387D01*
X138558952Y-92703307D01*
X138572213Y-92725729D01*
X138581458Y-92741362D01*
X138595779Y-92755683D01*
X138608619Y-92770716D01*
X138620528Y-92787107D01*
X138633745Y-92798041D01*
X138654605Y-92815298D01*
X138663384Y-92823288D01*
X138879878Y-93039782D01*
X138913904Y-93102094D01*
X138916093Y-93115707D01*
X138929669Y-93244873D01*
X138933458Y-93280928D01*
X138935498Y-93287206D01*
X138984565Y-93438218D01*
X138986593Y-93509185D01*
X138949930Y-93569983D01*
X138886218Y-93601309D01*
X138813484Y-93592261D01*
X138751427Y-93564632D01*
X138718319Y-93549891D01*
X138718318Y-93549891D01*
X138712288Y-93547206D01*
X138618887Y-93527353D01*
X138531944Y-93508872D01*
X138531939Y-93508872D01*
X138525487Y-93507500D01*
X138469594Y-93507500D01*
X138401473Y-93487498D01*
X138380499Y-93470595D01*
X135511405Y-90601500D01*
X135477379Y-90539188D01*
X135474500Y-90512405D01*
X135474500Y-89676600D01*
X135463526Y-89570834D01*
X135459749Y-89559511D01*
X135409868Y-89410002D01*
X135407550Y-89403054D01*
X135314478Y-89252652D01*
X135189303Y-89127695D01*
X135183072Y-89123854D01*
X135044968Y-89038725D01*
X135044966Y-89038724D01*
X135038738Y-89034885D01*
X134930005Y-88998820D01*
X134877389Y-88981368D01*
X134877387Y-88981368D01*
X134870861Y-88979203D01*
X134864025Y-88978503D01*
X134864022Y-88978502D01*
X134820969Y-88974091D01*
X134766400Y-88968500D01*
X133965600Y-88968500D01*
X133962354Y-88968837D01*
X133962350Y-88968837D01*
X133866692Y-88978762D01*
X133866688Y-88978763D01*
X133859834Y-88979474D01*
X133853298Y-88981655D01*
X133853296Y-88981655D01*
X133789117Y-89003067D01*
X133692054Y-89035450D01*
X133541652Y-89128522D01*
X133416695Y-89253697D01*
X133412854Y-89259928D01*
X133412852Y-89259931D01*
X133384645Y-89305690D01*
X133331873Y-89353183D01*
X133261801Y-89364605D01*
X133196677Y-89336331D01*
X133178298Y-89317403D01*
X133175738Y-89314144D01*
X133167501Y-89305494D01*
X133016877Y-89174788D01*
X133007153Y-89167853D01*
X132834533Y-89067990D01*
X132823669Y-89063016D01*
X132635273Y-88997593D01*
X132634284Y-88997352D01*
X132623992Y-88998820D01*
X132620000Y-89012385D01*
X132620000Y-91687402D01*
X132623973Y-91700933D01*
X132633399Y-91702288D01*
X132722537Y-91680806D01*
X132733832Y-91676917D01*
X132915382Y-91594371D01*
X132925724Y-91588424D01*
X133088397Y-91473032D01*
X133097425Y-91465239D01*
X133184535Y-91374243D01*
X133246090Y-91338867D01*
X133317000Y-91342386D01*
X133374750Y-91383683D01*
X133382685Y-91395053D01*
X133417522Y-91451348D01*
X133542697Y-91576305D01*
X133548927Y-91580145D01*
X133548928Y-91580146D01*
X133686090Y-91664694D01*
X133693262Y-91669115D01*
X133761098Y-91691615D01*
X133854611Y-91722632D01*
X133854613Y-91722632D01*
X133861139Y-91724797D01*
X133867975Y-91725497D01*
X133867978Y-91725498D01*
X133906386Y-91729433D01*
X133965600Y-91735500D01*
X134766400Y-91735500D01*
X134769646Y-91735163D01*
X134769650Y-91735163D01*
X134785724Y-91733495D01*
X134855546Y-91746360D01*
X134887823Y-91769727D01*
X137482878Y-94364783D01*
X137516904Y-94427095D01*
X137519093Y-94440708D01*
X137535463Y-94596457D01*
X137536458Y-94605928D01*
X137595473Y-94787556D01*
X137598776Y-94793278D01*
X137598777Y-94793279D01*
X137632686Y-94852010D01*
X137690960Y-94952944D01*
X137695378Y-94957851D01*
X137695379Y-94957852D01*
X137722483Y-94987954D01*
X137818747Y-95094866D01*
X137850561Y-95117980D01*
X137942207Y-95184565D01*
X137973248Y-95207118D01*
X137979276Y-95209802D01*
X137979278Y-95209803D01*
X138051756Y-95242072D01*
X138147712Y-95284794D01*
X138241113Y-95304647D01*
X138328056Y-95323128D01*
X138328061Y-95323128D01*
X138334513Y-95324500D01*
X138525487Y-95324500D01*
X138531939Y-95323128D01*
X138531944Y-95323128D01*
X138618888Y-95304647D01*
X138712288Y-95284794D01*
X138808244Y-95242072D01*
X138880722Y-95209803D01*
X138880724Y-95209802D01*
X138886752Y-95207118D01*
X138917794Y-95184565D01*
X139009439Y-95117980D01*
X139041253Y-95094866D01*
X139137517Y-94987954D01*
X139164621Y-94957852D01*
X139164622Y-94957851D01*
X139169040Y-94952944D01*
X139227314Y-94852010D01*
X139261223Y-94793279D01*
X139261224Y-94793278D01*
X139264527Y-94787556D01*
X139323542Y-94605928D01*
X139324538Y-94596457D01*
X139342814Y-94422565D01*
X139343504Y-94416000D01*
X139335600Y-94340794D01*
X139324232Y-94232635D01*
X139324232Y-94232633D01*
X139323542Y-94226072D01*
X139272435Y-94068782D01*
X139270407Y-93997815D01*
X139307070Y-93937017D01*
X139370782Y-93905691D01*
X139443516Y-93914739D01*
X139544712Y-93959794D01*
X139638113Y-93979647D01*
X139725056Y-93998128D01*
X139725061Y-93998128D01*
X139731513Y-93999500D01*
X139922487Y-93999500D01*
X139928939Y-93998128D01*
X139928944Y-93998128D01*
X140015887Y-93979647D01*
X140109288Y-93959794D01*
X140121320Y-93954437D01*
X140277722Y-93884803D01*
X140277724Y-93884802D01*
X140283752Y-93882118D01*
X140438253Y-93769866D01*
X140566040Y-93627944D01*
X140652284Y-93478565D01*
X140658223Y-93468279D01*
X140658224Y-93468278D01*
X140661527Y-93462556D01*
X140720542Y-93280928D01*
X140724332Y-93244873D01*
X140739814Y-93097565D01*
X140740504Y-93091000D01*
X140720542Y-92901072D01*
X140661527Y-92719444D01*
X140566040Y-92554056D01*
X140556336Y-92543278D01*
X140442675Y-92417045D01*
X140442674Y-92417044D01*
X140438253Y-92412134D01*
X140283752Y-92299882D01*
X140277724Y-92297198D01*
X140277722Y-92297197D01*
X140115319Y-92224891D01*
X140115318Y-92224891D01*
X140109288Y-92222206D01*
X140015887Y-92202353D01*
X139928944Y-92183872D01*
X139928939Y-92183872D01*
X139922487Y-92182500D01*
X139866595Y-92182500D01*
X139798474Y-92162498D01*
X139777500Y-92145595D01*
X139756405Y-92124500D01*
X139722379Y-92062188D01*
X139719500Y-92035405D01*
X139719500Y-80885004D01*
X139739502Y-80816883D01*
X139773229Y-80781791D01*
X139901270Y-80692136D01*
X139901273Y-80692134D01*
X139905781Y-80688977D01*
X140062977Y-80531781D01*
X140081468Y-80505374D01*
X140187331Y-80354185D01*
X140187332Y-80354183D01*
X140190488Y-80349676D01*
X140192811Y-80344694D01*
X140192814Y-80344689D01*
X140241805Y-80239627D01*
X140288723Y-80186342D01*
X140357000Y-80166881D01*
X140424960Y-80187423D01*
X140470195Y-80239627D01*
X140519186Y-80344689D01*
X140519189Y-80344694D01*
X140521512Y-80349676D01*
X140524668Y-80354183D01*
X140524669Y-80354185D01*
X140630533Y-80505374D01*
X140649023Y-80531781D01*
X140806219Y-80688977D01*
X140810727Y-80692134D01*
X140810730Y-80692136D01*
X140886495Y-80745187D01*
X140988323Y-80816488D01*
X140993305Y-80818811D01*
X140993310Y-80818814D01*
X141135256Y-80885004D01*
X141189804Y-80910440D01*
X141195112Y-80911862D01*
X141195114Y-80911863D01*
X141260949Y-80929503D01*
X141404537Y-80967978D01*
X141626000Y-80987353D01*
X141847463Y-80967978D01*
X141852777Y-80966554D01*
X141852783Y-80966553D01*
X141886514Y-80957515D01*
X141957490Y-80959204D01*
X142008221Y-80990126D01*
X142267576Y-81249481D01*
X142301602Y-81311793D01*
X142296537Y-81382608D01*
X142272120Y-81422883D01*
X142262960Y-81433056D01*
X142167473Y-81598444D01*
X142108458Y-81780072D01*
X142107768Y-81786633D01*
X142107768Y-81786635D01*
X142097888Y-81880642D01*
X142088496Y-81970000D01*
X142089186Y-81976565D01*
X142106625Y-82142484D01*
X142108458Y-82159928D01*
X142167473Y-82341556D01*
X142262960Y-82506944D01*
X142267378Y-82511851D01*
X142267379Y-82511852D01*
X142353954Y-82608003D01*
X142390747Y-82648866D01*
X142545248Y-82761118D01*
X142551276Y-82763802D01*
X142551278Y-82763803D01*
X142638497Y-82802635D01*
X142719712Y-82838794D01*
X142811965Y-82858403D01*
X142900056Y-82877128D01*
X142900061Y-82877128D01*
X142906513Y-82878500D01*
X143097487Y-82878500D01*
X143103939Y-82877128D01*
X143103944Y-82877128D01*
X143192035Y-82858403D01*
X143284288Y-82838794D01*
X143355252Y-82807199D01*
X143425618Y-82797765D01*
X143489915Y-82827871D01*
X143527728Y-82887960D01*
X143532500Y-82922306D01*
X143532500Y-91124092D01*
X143515619Y-91187091D01*
X143437473Y-91322444D01*
X143378458Y-91504072D01*
X143377768Y-91510633D01*
X143377768Y-91510635D01*
X143364591Y-91636010D01*
X143358496Y-91694000D01*
X143359186Y-91700565D01*
X143375397Y-91854801D01*
X143378458Y-91883928D01*
X143437473Y-92065556D01*
X143532960Y-92230944D01*
X143537378Y-92235851D01*
X143537379Y-92235852D01*
X143650914Y-92361945D01*
X143660747Y-92372866D01*
X143815248Y-92485118D01*
X143821276Y-92487802D01*
X143821278Y-92487803D01*
X143970086Y-92554056D01*
X143989712Y-92562794D01*
X144068119Y-92579460D01*
X144170056Y-92601128D01*
X144170061Y-92601128D01*
X144176513Y-92602500D01*
X144367487Y-92602500D01*
X144373939Y-92601128D01*
X144373944Y-92601128D01*
X144475881Y-92579460D01*
X144554288Y-92562794D01*
X144573914Y-92554056D01*
X144722722Y-92487803D01*
X144722724Y-92487802D01*
X144728752Y-92485118D01*
X144883253Y-92372866D01*
X144893086Y-92361945D01*
X145006621Y-92235852D01*
X145006622Y-92235851D01*
X145011040Y-92230944D01*
X145106527Y-92065556D01*
X145165542Y-91883928D01*
X145168604Y-91854801D01*
X145184814Y-91700565D01*
X145185504Y-91694000D01*
X145179409Y-91636010D01*
X145166232Y-91510635D01*
X145166232Y-91510633D01*
X145165542Y-91504072D01*
X145106527Y-91322444D01*
X145011040Y-91157056D01*
X144989530Y-91133166D01*
X144887675Y-91020045D01*
X144887674Y-91020044D01*
X144883253Y-91015134D01*
X144877913Y-91011255D01*
X144877905Y-91011247D01*
X144851440Y-90992020D01*
X144808085Y-90935798D01*
X144799500Y-90890084D01*
X144799500Y-80885004D01*
X144819502Y-80816883D01*
X144853229Y-80781791D01*
X144981270Y-80692136D01*
X144981273Y-80692134D01*
X144985781Y-80688977D01*
X145142977Y-80531781D01*
X145161468Y-80505374D01*
X145267331Y-80354185D01*
X145267332Y-80354183D01*
X145270488Y-80349676D01*
X145272811Y-80344694D01*
X145272814Y-80344689D01*
X145321805Y-80239627D01*
X145368723Y-80186342D01*
X145437000Y-80166881D01*
X145504960Y-80187423D01*
X145550195Y-80239627D01*
X145599186Y-80344689D01*
X145599189Y-80344694D01*
X145601512Y-80349676D01*
X145604668Y-80354183D01*
X145604669Y-80354185D01*
X145710533Y-80505374D01*
X145729023Y-80531781D01*
X145886219Y-80688977D01*
X145890727Y-80692134D01*
X145890730Y-80692136D01*
X146018771Y-80781791D01*
X146063099Y-80837248D01*
X146072500Y-80885004D01*
X146072500Y-86469569D01*
X146052498Y-86537690D01*
X146020561Y-86571505D01*
X145946747Y-86625134D01*
X145942326Y-86630044D01*
X145942325Y-86630045D01*
X145897526Y-86679800D01*
X145818960Y-86767056D01*
X145723473Y-86932444D01*
X145664458Y-87114072D01*
X145663768Y-87120633D01*
X145663768Y-87120635D01*
X145645186Y-87297435D01*
X145644496Y-87304000D01*
X145645186Y-87310565D01*
X145648942Y-87346297D01*
X145664458Y-87493928D01*
X145723473Y-87675556D01*
X145818960Y-87840944D01*
X145823378Y-87845851D01*
X145823379Y-87845852D01*
X145942325Y-87977955D01*
X145946747Y-87982866D01*
X146045843Y-88054864D01*
X146074877Y-88075958D01*
X146101248Y-88095118D01*
X146107276Y-88097802D01*
X146107278Y-88097803D01*
X146260203Y-88165889D01*
X146275712Y-88172794D01*
X146369113Y-88192647D01*
X146456056Y-88211128D01*
X146456061Y-88211128D01*
X146462513Y-88212500D01*
X146653487Y-88212500D01*
X146659939Y-88211128D01*
X146659944Y-88211128D01*
X146746887Y-88192647D01*
X146840288Y-88172794D01*
X146855797Y-88165889D01*
X147008722Y-88097803D01*
X147008724Y-88097802D01*
X147014752Y-88095118D01*
X147041124Y-88075958D01*
X147070157Y-88054864D01*
X147169253Y-87982866D01*
X147173675Y-87977955D01*
X147292621Y-87845852D01*
X147292622Y-87845851D01*
X147297040Y-87840944D01*
X147392527Y-87675556D01*
X147451542Y-87493928D01*
X147467059Y-87346297D01*
X147470814Y-87310565D01*
X147471504Y-87304000D01*
X147470814Y-87297435D01*
X147452232Y-87120635D01*
X147452232Y-87120633D01*
X147451542Y-87114072D01*
X147392527Y-86932444D01*
X147356380Y-86869836D01*
X147339500Y-86806838D01*
X147339500Y-80885004D01*
X147359502Y-80816883D01*
X147393229Y-80781791D01*
X147521270Y-80692136D01*
X147521273Y-80692134D01*
X147525781Y-80688977D01*
X147682977Y-80531781D01*
X147701468Y-80505374D01*
X147807331Y-80354185D01*
X147807332Y-80354183D01*
X147810488Y-80349676D01*
X147812811Y-80344694D01*
X147812814Y-80344689D01*
X147861805Y-80239627D01*
X147908723Y-80186342D01*
X147977000Y-80166881D01*
X148044960Y-80187423D01*
X148090195Y-80239627D01*
X148139186Y-80344689D01*
X148139189Y-80344694D01*
X148141512Y-80349676D01*
X148144668Y-80354183D01*
X148144669Y-80354185D01*
X148250533Y-80505374D01*
X148269023Y-80531781D01*
X148426219Y-80688977D01*
X148430727Y-80692134D01*
X148430730Y-80692136D01*
X148558771Y-80781791D01*
X148603099Y-80837248D01*
X148612500Y-80885004D01*
X148612500Y-82151569D01*
X148592498Y-82219690D01*
X148560561Y-82253505D01*
X148486747Y-82307134D01*
X148482326Y-82312044D01*
X148482325Y-82312045D01*
X148384937Y-82420206D01*
X148358960Y-82449056D01*
X148355659Y-82454774D01*
X148296192Y-82557774D01*
X148263473Y-82614444D01*
X148204458Y-82796072D01*
X148203768Y-82802633D01*
X148203768Y-82802635D01*
X148194800Y-82887960D01*
X148184496Y-82986000D01*
X148185186Y-82992565D01*
X148202969Y-83161758D01*
X148204458Y-83175928D01*
X148263473Y-83357556D01*
X148358960Y-83522944D01*
X148486747Y-83664866D01*
X148641248Y-83777118D01*
X148647276Y-83779802D01*
X148647278Y-83779803D01*
X148809681Y-83852109D01*
X148815712Y-83854794D01*
X148909112Y-83874647D01*
X148996056Y-83893128D01*
X148996061Y-83893128D01*
X149002513Y-83894500D01*
X149193487Y-83894500D01*
X149199939Y-83893128D01*
X149199944Y-83893128D01*
X149286888Y-83874647D01*
X149380288Y-83854794D01*
X149386319Y-83852109D01*
X149548722Y-83779803D01*
X149548724Y-83779802D01*
X149554752Y-83777118D01*
X149709253Y-83664866D01*
X149768864Y-83598661D01*
X149829310Y-83561421D01*
X149900293Y-83562773D01*
X149959278Y-83602286D01*
X149987536Y-83667417D01*
X149988500Y-83682971D01*
X149988500Y-98285476D01*
X149968498Y-98353597D01*
X149956142Y-98369779D01*
X149882960Y-98451056D01*
X149787473Y-98616444D01*
X149728458Y-98798072D01*
X149708496Y-98988000D01*
X149728458Y-99177928D01*
X149787473Y-99359556D01*
X149882960Y-99524944D01*
X149887378Y-99529851D01*
X149887379Y-99529852D01*
X149962739Y-99613548D01*
X150010747Y-99666866D01*
X150165248Y-99779118D01*
X150171276Y-99781802D01*
X150171278Y-99781803D01*
X150315178Y-99845871D01*
X150339712Y-99856794D01*
X150433112Y-99876647D01*
X150520056Y-99895128D01*
X150520061Y-99895128D01*
X150526513Y-99896500D01*
X150717487Y-99896500D01*
X150723939Y-99895128D01*
X150723944Y-99895128D01*
X150810888Y-99876647D01*
X150904288Y-99856794D01*
X150975252Y-99825199D01*
X151045618Y-99815765D01*
X151109915Y-99845871D01*
X151147728Y-99905960D01*
X151152500Y-99940306D01*
X151152500Y-101398996D01*
X151132498Y-101467117D01*
X151098771Y-101502209D01*
X150970730Y-101591864D01*
X150970727Y-101591866D01*
X150966219Y-101595023D01*
X150809023Y-101752219D01*
X150805866Y-101756727D01*
X150805864Y-101756730D01*
X150701363Y-101905974D01*
X150681512Y-101934324D01*
X150679189Y-101939306D01*
X150679186Y-101939311D01*
X150630195Y-102044373D01*
X150583277Y-102097658D01*
X150515000Y-102117119D01*
X150447040Y-102096577D01*
X150401805Y-102044373D01*
X150352814Y-101939311D01*
X150352811Y-101939306D01*
X150350488Y-101934324D01*
X150330637Y-101905974D01*
X150226136Y-101756730D01*
X150226134Y-101756727D01*
X150222977Y-101752219D01*
X150065781Y-101595023D01*
X150061273Y-101591866D01*
X150061270Y-101591864D01*
X149985505Y-101538813D01*
X149883677Y-101467512D01*
X149878695Y-101465189D01*
X149878690Y-101465186D01*
X149687178Y-101375883D01*
X149687177Y-101375882D01*
X149682196Y-101373560D01*
X149676888Y-101372138D01*
X149676886Y-101372137D01*
X149611051Y-101354497D01*
X149467463Y-101316022D01*
X149246000Y-101296647D01*
X149024537Y-101316022D01*
X148880949Y-101354497D01*
X148815114Y-101372137D01*
X148815112Y-101372138D01*
X148809804Y-101373560D01*
X148804823Y-101375882D01*
X148804822Y-101375883D01*
X148613311Y-101465186D01*
X148613306Y-101465189D01*
X148608324Y-101467512D01*
X148603817Y-101470668D01*
X148603815Y-101470669D01*
X148430730Y-101591864D01*
X148430727Y-101591866D01*
X148426219Y-101595023D01*
X148269023Y-101752219D01*
X148265866Y-101756727D01*
X148265864Y-101756730D01*
X148161363Y-101905974D01*
X148141512Y-101934324D01*
X148139189Y-101939306D01*
X148139186Y-101939311D01*
X148090195Y-102044373D01*
X148043277Y-102097658D01*
X147975000Y-102117119D01*
X147907040Y-102096577D01*
X147861805Y-102044373D01*
X147812814Y-101939311D01*
X147812811Y-101939306D01*
X147810488Y-101934324D01*
X147790637Y-101905974D01*
X147686136Y-101756730D01*
X147686134Y-101756727D01*
X147682977Y-101752219D01*
X147525781Y-101595023D01*
X147521273Y-101591866D01*
X147521270Y-101591864D01*
X147445505Y-101538813D01*
X147343677Y-101467512D01*
X147338695Y-101465189D01*
X147338690Y-101465186D01*
X147147178Y-101375883D01*
X147147177Y-101375882D01*
X147142196Y-101373560D01*
X147136888Y-101372138D01*
X147136886Y-101372137D01*
X147071051Y-101354497D01*
X146927463Y-101316022D01*
X146706000Y-101296647D01*
X146484537Y-101316022D01*
X146340949Y-101354497D01*
X146275114Y-101372137D01*
X146275112Y-101372138D01*
X146269804Y-101373560D01*
X146264823Y-101375882D01*
X146264822Y-101375883D01*
X146073311Y-101465186D01*
X146073306Y-101465189D01*
X146068324Y-101467512D01*
X146063817Y-101470668D01*
X146063815Y-101470669D01*
X145890730Y-101591864D01*
X145890727Y-101591866D01*
X145886219Y-101595023D01*
X145729023Y-101752219D01*
X145725866Y-101756727D01*
X145725864Y-101756730D01*
X145621363Y-101905974D01*
X145601512Y-101934324D01*
X145599189Y-101939306D01*
X145599186Y-101939311D01*
X145550195Y-102044373D01*
X145503277Y-102097658D01*
X145435000Y-102117119D01*
X145367040Y-102096577D01*
X145321805Y-102044373D01*
X145272814Y-101939311D01*
X145272811Y-101939306D01*
X145270488Y-101934324D01*
X145250637Y-101905974D01*
X145146136Y-101756730D01*
X145146134Y-101756727D01*
X145142977Y-101752219D01*
X144985781Y-101595023D01*
X144981273Y-101591866D01*
X144981270Y-101591864D01*
X144900275Y-101535151D01*
X144853229Y-101502209D01*
X144808901Y-101446752D01*
X144799500Y-101398996D01*
X144799500Y-95675162D01*
X144816380Y-95612164D01*
X144852527Y-95549556D01*
X144911542Y-95367928D01*
X144916107Y-95324500D01*
X144930814Y-95184565D01*
X144931504Y-95178000D01*
X144923175Y-95098753D01*
X144912232Y-94994635D01*
X144912232Y-94994633D01*
X144911542Y-94988072D01*
X144852527Y-94806444D01*
X144844529Y-94792590D01*
X144760341Y-94646774D01*
X144757040Y-94641056D01*
X144731064Y-94612206D01*
X144633675Y-94504045D01*
X144633674Y-94504044D01*
X144629253Y-94499134D01*
X144514829Y-94416000D01*
X144480094Y-94390763D01*
X144480093Y-94390762D01*
X144474752Y-94386882D01*
X144468724Y-94384198D01*
X144468722Y-94384197D01*
X144306319Y-94311891D01*
X144306318Y-94311891D01*
X144300288Y-94309206D01*
X144206888Y-94289353D01*
X144119944Y-94270872D01*
X144119939Y-94270872D01*
X144113487Y-94269500D01*
X143922513Y-94269500D01*
X143916061Y-94270872D01*
X143916056Y-94270872D01*
X143829112Y-94289353D01*
X143735712Y-94309206D01*
X143729682Y-94311891D01*
X143729681Y-94311891D01*
X143567278Y-94384197D01*
X143567276Y-94384198D01*
X143561248Y-94386882D01*
X143555907Y-94390762D01*
X143555906Y-94390763D01*
X143521171Y-94416000D01*
X143406747Y-94499134D01*
X143402326Y-94504044D01*
X143402325Y-94504045D01*
X143304937Y-94612206D01*
X143278960Y-94641056D01*
X143275659Y-94646774D01*
X143191472Y-94792590D01*
X143183473Y-94806444D01*
X143124458Y-94988072D01*
X143123769Y-94994631D01*
X143123768Y-94994634D01*
X143106388Y-95159996D01*
X143079375Y-95225652D01*
X143021153Y-95266282D01*
X142950208Y-95268985D01*
X142889064Y-95232903D01*
X142861245Y-95185761D01*
X142860857Y-95184565D01*
X142820527Y-95060444D01*
X142725040Y-94895056D01*
X142645254Y-94806444D01*
X142601675Y-94758045D01*
X142601674Y-94758044D01*
X142597253Y-94753134D01*
X142442752Y-94640882D01*
X142436724Y-94638198D01*
X142436722Y-94638197D01*
X142274319Y-94565891D01*
X142274318Y-94565891D01*
X142268288Y-94563206D01*
X142174887Y-94543353D01*
X142087944Y-94524872D01*
X142087939Y-94524872D01*
X142081487Y-94523500D01*
X141890513Y-94523500D01*
X141884061Y-94524872D01*
X141884056Y-94524872D01*
X141797112Y-94543353D01*
X141703712Y-94563206D01*
X141697682Y-94565891D01*
X141697681Y-94565891D01*
X141535278Y-94638197D01*
X141535276Y-94638198D01*
X141529248Y-94640882D01*
X141374747Y-94753134D01*
X141370326Y-94758044D01*
X141370325Y-94758045D01*
X141326747Y-94806444D01*
X141246960Y-94895056D01*
X141151473Y-95060444D01*
X141092458Y-95242072D01*
X141091768Y-95248633D01*
X141091768Y-95248635D01*
X141082059Y-95341015D01*
X141072496Y-95432000D01*
X141073186Y-95438565D01*
X141073186Y-95445169D01*
X141071127Y-95445169D01*
X141063083Y-95497699D01*
X141058826Y-95507536D01*
X141053606Y-95518193D01*
X141032305Y-95556940D01*
X141030334Y-95564615D01*
X141030334Y-95564616D01*
X141027267Y-95576562D01*
X141020863Y-95595266D01*
X141012819Y-95613855D01*
X141011580Y-95621678D01*
X141011577Y-95621688D01*
X141005901Y-95657524D01*
X141003495Y-95669144D01*
X140992500Y-95711970D01*
X140992500Y-95732224D01*
X140990949Y-95751934D01*
X140987780Y-95771943D01*
X140988526Y-95779835D01*
X140991941Y-95815961D01*
X140992500Y-95827819D01*
X140992500Y-101398996D01*
X140972498Y-101467117D01*
X140938771Y-101502209D01*
X140810730Y-101591864D01*
X140810727Y-101591866D01*
X140806219Y-101595023D01*
X140649023Y-101752219D01*
X140645866Y-101756727D01*
X140645864Y-101756730D01*
X140541363Y-101905974D01*
X140521512Y-101934324D01*
X140519189Y-101939306D01*
X140519186Y-101939311D01*
X140470195Y-102044373D01*
X140423277Y-102097658D01*
X140355000Y-102117119D01*
X140287040Y-102096577D01*
X140241805Y-102044373D01*
X140192814Y-101939311D01*
X140192811Y-101939306D01*
X140190488Y-101934324D01*
X140170637Y-101905974D01*
X140066136Y-101756730D01*
X140066134Y-101756727D01*
X140062977Y-101752219D01*
X139905781Y-101595023D01*
X139901273Y-101591866D01*
X139901270Y-101591864D01*
X139825505Y-101538813D01*
X139723677Y-101467512D01*
X139718695Y-101465189D01*
X139718690Y-101465186D01*
X139527178Y-101375883D01*
X139527177Y-101375882D01*
X139522196Y-101373560D01*
X139516888Y-101372138D01*
X139516886Y-101372137D01*
X139451051Y-101354497D01*
X139307463Y-101316022D01*
X139086000Y-101296647D01*
X138864537Y-101316022D01*
X138720949Y-101354497D01*
X138655114Y-101372137D01*
X138655112Y-101372138D01*
X138649804Y-101373560D01*
X138644823Y-101375882D01*
X138644822Y-101375883D01*
X138453311Y-101465186D01*
X138453306Y-101465189D01*
X138448324Y-101467512D01*
X138443817Y-101470668D01*
X138443815Y-101470669D01*
X138270730Y-101591864D01*
X138270727Y-101591866D01*
X138266219Y-101595023D01*
X138109023Y-101752219D01*
X138105866Y-101756727D01*
X138105864Y-101756730D01*
X138001363Y-101905974D01*
X137981512Y-101934324D01*
X137979189Y-101939306D01*
X137979186Y-101939311D01*
X137930195Y-102044373D01*
X137883277Y-102097658D01*
X137815000Y-102117119D01*
X137747040Y-102096577D01*
X137701805Y-102044373D01*
X137652814Y-101939311D01*
X137652811Y-101939306D01*
X137650488Y-101934324D01*
X137630637Y-101905974D01*
X137526136Y-101756730D01*
X137526134Y-101756727D01*
X137522977Y-101752219D01*
X137365781Y-101595023D01*
X137361273Y-101591866D01*
X137361270Y-101591864D01*
X137285505Y-101538813D01*
X137183677Y-101467512D01*
X137178695Y-101465189D01*
X137178690Y-101465186D01*
X136987178Y-101375883D01*
X136987177Y-101375882D01*
X136982196Y-101373560D01*
X136976888Y-101372138D01*
X136976886Y-101372137D01*
X136911051Y-101354497D01*
X136767463Y-101316022D01*
X136546000Y-101296647D01*
X136324537Y-101316022D01*
X136180949Y-101354497D01*
X136115114Y-101372137D01*
X136115112Y-101372138D01*
X136109804Y-101373560D01*
X136104823Y-101375882D01*
X136104822Y-101375883D01*
X135913311Y-101465186D01*
X135913306Y-101465189D01*
X135908324Y-101467512D01*
X135903817Y-101470668D01*
X135903815Y-101470669D01*
X135730730Y-101591864D01*
X135730727Y-101591866D01*
X135726219Y-101595023D01*
X135569023Y-101752219D01*
X135565866Y-101756727D01*
X135565864Y-101756730D01*
X135461363Y-101905974D01*
X135441512Y-101934324D01*
X135439189Y-101939306D01*
X135439186Y-101939311D01*
X135390195Y-102044373D01*
X135343277Y-102097658D01*
X135275000Y-102117119D01*
X135207040Y-102096577D01*
X135161805Y-102044373D01*
X135112814Y-101939311D01*
X135112811Y-101939306D01*
X135110488Y-101934324D01*
X135090637Y-101905974D01*
X134986136Y-101756730D01*
X134986134Y-101756727D01*
X134982977Y-101752219D01*
X134825781Y-101595023D01*
X134821273Y-101591866D01*
X134821270Y-101591864D01*
X134745505Y-101538813D01*
X134643677Y-101467512D01*
X134638695Y-101465189D01*
X134638690Y-101465186D01*
X134447178Y-101375883D01*
X134447177Y-101375882D01*
X134442196Y-101373560D01*
X134436888Y-101372138D01*
X134436886Y-101372137D01*
X134371051Y-101354497D01*
X134227463Y-101316022D01*
X134006000Y-101296647D01*
X133784537Y-101316022D01*
X133640949Y-101354497D01*
X133575114Y-101372137D01*
X133575112Y-101372138D01*
X133569804Y-101373560D01*
X133564823Y-101375882D01*
X133564822Y-101375883D01*
X133373311Y-101465186D01*
X133373306Y-101465189D01*
X133368324Y-101467512D01*
X133363817Y-101470668D01*
X133363815Y-101470669D01*
X133190730Y-101591864D01*
X133190727Y-101591866D01*
X133186219Y-101595023D01*
X133029023Y-101752219D01*
X133025866Y-101756727D01*
X133025864Y-101756730D01*
X132921363Y-101905974D01*
X132901512Y-101934324D01*
X132899189Y-101939306D01*
X132899186Y-101939311D01*
X132849919Y-102044965D01*
X132803001Y-102098250D01*
X132734724Y-102117711D01*
X132666764Y-102097169D01*
X132621529Y-102044965D01*
X132572377Y-101939559D01*
X132566897Y-101930068D01*
X132536206Y-101886235D01*
X132525729Y-101877860D01*
X132512282Y-101884928D01*
X131838022Y-102559188D01*
X131830408Y-102573132D01*
X131830539Y-102574965D01*
X131834790Y-102581580D01*
X132513003Y-103259793D01*
X132524777Y-103266223D01*
X132536793Y-103256926D01*
X132566897Y-103213932D01*
X132572377Y-103204441D01*
X132621529Y-103099035D01*
X132668447Y-103045750D01*
X132736724Y-103026289D01*
X132804684Y-103046831D01*
X132849919Y-103099035D01*
X132899186Y-103204689D01*
X132899189Y-103204694D01*
X132901512Y-103209676D01*
X132904668Y-103214183D01*
X132904669Y-103214185D01*
X132941107Y-103266223D01*
X133029023Y-103391781D01*
X133186219Y-103548977D01*
X133190727Y-103552134D01*
X133190730Y-103552136D01*
X133263500Y-103603090D01*
X133368323Y-103676488D01*
X133373305Y-103678811D01*
X133373310Y-103678814D01*
X133515256Y-103745004D01*
X133569804Y-103770440D01*
X133575112Y-103771862D01*
X133575114Y-103771863D01*
X133613681Y-103782197D01*
X133784537Y-103827978D01*
X134006000Y-103847353D01*
X134227463Y-103827978D01*
X134398319Y-103782197D01*
X134436886Y-103771863D01*
X134436888Y-103771862D01*
X134442196Y-103770440D01*
X134496744Y-103745004D01*
X134638690Y-103678814D01*
X134638695Y-103678811D01*
X134643677Y-103676488D01*
X134748500Y-103603090D01*
X134821270Y-103552136D01*
X134821273Y-103552134D01*
X134825781Y-103548977D01*
X134982977Y-103391781D01*
X135070894Y-103266223D01*
X135107331Y-103214185D01*
X135107332Y-103214183D01*
X135110488Y-103209676D01*
X135112811Y-103204694D01*
X135112814Y-103204689D01*
X135161805Y-103099627D01*
X135208723Y-103046342D01*
X135277000Y-103026881D01*
X135344960Y-103047423D01*
X135390195Y-103099627D01*
X135439186Y-103204689D01*
X135439189Y-103204694D01*
X135441512Y-103209676D01*
X135444668Y-103214183D01*
X135444669Y-103214185D01*
X135481107Y-103266223D01*
X135569023Y-103391781D01*
X135726219Y-103548977D01*
X135730727Y-103552134D01*
X135730730Y-103552136D01*
X135858771Y-103641791D01*
X135903099Y-103697248D01*
X135912500Y-103745004D01*
X135912500Y-107153233D01*
X135911973Y-107164416D01*
X135910298Y-107171909D01*
X135910547Y-107179835D01*
X135910547Y-107179836D01*
X135912438Y-107239986D01*
X135912500Y-107243945D01*
X135912500Y-107271856D01*
X135912997Y-107275790D01*
X135912997Y-107275791D01*
X135913005Y-107275856D01*
X135913938Y-107287693D01*
X135915327Y-107331889D01*
X135919992Y-107347945D01*
X135920978Y-107351339D01*
X135924987Y-107370700D01*
X135926136Y-107379791D01*
X135927526Y-107390797D01*
X135930445Y-107398168D01*
X135930445Y-107398170D01*
X135943804Y-107431912D01*
X135947649Y-107443142D01*
X135953959Y-107464861D01*
X135959982Y-107485593D01*
X135964015Y-107492412D01*
X135964017Y-107492417D01*
X135970293Y-107503028D01*
X135978988Y-107520776D01*
X135986448Y-107539617D01*
X135991110Y-107546033D01*
X135991110Y-107546034D01*
X136012436Y-107575387D01*
X136018952Y-107585307D01*
X136036846Y-107615563D01*
X136041458Y-107623362D01*
X136055779Y-107637683D01*
X136068619Y-107652716D01*
X136080528Y-107669107D01*
X136098763Y-107684192D01*
X136114605Y-107697298D01*
X136123384Y-107705288D01*
X139091636Y-110673540D01*
X139125662Y-110735852D01*
X139125060Y-110792049D01*
X139084259Y-110962000D01*
X139071465Y-111015289D01*
X139052835Y-111252000D01*
X139071465Y-111488711D01*
X139126895Y-111719594D01*
X139128788Y-111724165D01*
X139128789Y-111724167D01*
X139200807Y-111898034D01*
X139217760Y-111938963D01*
X139220346Y-111943183D01*
X139339241Y-112137202D01*
X139339245Y-112137208D01*
X139341824Y-112141416D01*
X139496031Y-112321969D01*
X139676584Y-112476176D01*
X139680792Y-112478755D01*
X139680798Y-112478759D01*
X139874817Y-112597654D01*
X139879037Y-112600240D01*
X139883607Y-112602133D01*
X139883611Y-112602135D01*
X140093833Y-112689211D01*
X140098406Y-112691105D01*
X140178609Y-112710360D01*
X140324476Y-112745380D01*
X140324482Y-112745381D01*
X140329289Y-112746535D01*
X140566000Y-112765165D01*
X140802711Y-112746535D01*
X140807518Y-112745381D01*
X140807524Y-112745380D01*
X140953391Y-112710360D01*
X141033594Y-112691105D01*
X141038167Y-112689211D01*
X141248389Y-112602135D01*
X141248393Y-112602133D01*
X141252963Y-112600240D01*
X141257183Y-112597654D01*
X141451202Y-112478759D01*
X141451208Y-112478755D01*
X141455416Y-112476176D01*
X141635969Y-112321969D01*
X141790176Y-112141416D01*
X141792755Y-112137208D01*
X141792759Y-112137202D01*
X141910133Y-111945665D01*
X141962781Y-111898034D01*
X142017566Y-111885500D01*
X145614434Y-111885500D01*
X145682555Y-111905502D01*
X145721867Y-111945665D01*
X145839241Y-112137202D01*
X145839245Y-112137208D01*
X145841824Y-112141416D01*
X145996031Y-112321969D01*
X146176584Y-112476176D01*
X146180792Y-112478755D01*
X146180798Y-112478759D01*
X146374817Y-112597654D01*
X146379037Y-112600240D01*
X146383607Y-112602133D01*
X146383611Y-112602135D01*
X146593833Y-112689211D01*
X146598406Y-112691105D01*
X146678609Y-112710360D01*
X146824476Y-112745380D01*
X146824482Y-112745381D01*
X146829289Y-112746535D01*
X147066000Y-112765165D01*
X147302711Y-112746535D01*
X147307518Y-112745381D01*
X147307524Y-112745380D01*
X147453391Y-112710360D01*
X147533594Y-112691105D01*
X147538167Y-112689211D01*
X147748389Y-112602135D01*
X147748393Y-112602133D01*
X147752963Y-112600240D01*
X147757183Y-112597654D01*
X147951202Y-112478759D01*
X147951208Y-112478755D01*
X147955416Y-112476176D01*
X148135969Y-112321969D01*
X148290176Y-112141416D01*
X148292755Y-112137208D01*
X148292759Y-112137202D01*
X148411654Y-111943183D01*
X148414240Y-111938963D01*
X148431194Y-111898034D01*
X148503211Y-111724167D01*
X148503212Y-111724165D01*
X148505105Y-111719594D01*
X148560535Y-111488711D01*
X148579165Y-111252000D01*
X148560535Y-111015289D01*
X148547742Y-110962000D01*
X148506260Y-110789218D01*
X148505105Y-110784406D01*
X148503211Y-110779833D01*
X148416135Y-110569611D01*
X148416133Y-110569607D01*
X148414240Y-110565037D01*
X148368155Y-110489833D01*
X148292759Y-110366798D01*
X148292755Y-110366792D01*
X148290176Y-110362584D01*
X148135969Y-110182031D01*
X147955416Y-110027824D01*
X147951208Y-110025245D01*
X147951202Y-110025241D01*
X147757183Y-109906346D01*
X147752963Y-109903760D01*
X147748393Y-109901867D01*
X147748389Y-109901865D01*
X147538167Y-109814789D01*
X147538165Y-109814788D01*
X147533594Y-109812895D01*
X147424892Y-109786798D01*
X147307524Y-109758620D01*
X147307518Y-109758619D01*
X147302711Y-109757465D01*
X147066000Y-109738835D01*
X146829289Y-109757465D01*
X146824482Y-109758619D01*
X146824476Y-109758620D01*
X146707108Y-109786798D01*
X146598406Y-109812895D01*
X146593835Y-109814788D01*
X146593833Y-109814789D01*
X146383611Y-109901865D01*
X146383607Y-109901867D01*
X146379037Y-109903760D01*
X146374817Y-109906346D01*
X146180798Y-110025241D01*
X146180792Y-110025245D01*
X146176584Y-110027824D01*
X145996031Y-110182031D01*
X145841824Y-110362584D01*
X145839245Y-110366792D01*
X145839241Y-110366798D01*
X145721867Y-110558335D01*
X145669219Y-110605966D01*
X145614434Y-110618500D01*
X142017566Y-110618500D01*
X141949445Y-110598498D01*
X141910133Y-110558335D01*
X141792759Y-110366798D01*
X141792755Y-110366792D01*
X141790176Y-110362584D01*
X141635969Y-110182031D01*
X141455416Y-110027824D01*
X141451208Y-110025245D01*
X141451202Y-110025241D01*
X141257183Y-109906346D01*
X141252963Y-109903760D01*
X141248393Y-109901867D01*
X141248389Y-109901865D01*
X141038167Y-109814789D01*
X141038165Y-109814788D01*
X141033594Y-109812895D01*
X140924892Y-109786798D01*
X140807524Y-109758620D01*
X140807518Y-109758619D01*
X140802711Y-109757465D01*
X140566000Y-109738835D01*
X140329289Y-109757465D01*
X140324482Y-109758619D01*
X140324476Y-109758620D01*
X140106049Y-109811060D01*
X140035141Y-109807513D01*
X139987540Y-109777636D01*
X139451213Y-109241309D01*
X139417187Y-109178997D01*
X139422252Y-109108182D01*
X139464799Y-109051346D01*
X139531319Y-109026535D01*
X139591556Y-109037107D01*
X139665677Y-109070108D01*
X139665685Y-109070111D01*
X139671712Y-109072794D01*
X139765113Y-109092647D01*
X139852056Y-109111128D01*
X139852061Y-109111128D01*
X139858513Y-109112500D01*
X140049487Y-109112500D01*
X140055939Y-109111128D01*
X140055944Y-109111128D01*
X140142888Y-109092647D01*
X140236288Y-109072794D01*
X140242321Y-109070108D01*
X140404722Y-108997803D01*
X140404724Y-108997802D01*
X140410752Y-108995118D01*
X140565253Y-108882866D01*
X140693040Y-108740944D01*
X140788527Y-108575556D01*
X140847542Y-108393928D01*
X140867504Y-108204000D01*
X140847542Y-108014072D01*
X140788527Y-107832444D01*
X140693040Y-107667056D01*
X140677714Y-107650034D01*
X140569675Y-107530045D01*
X140569674Y-107530044D01*
X140565253Y-107525134D01*
X140442418Y-107435889D01*
X140416094Y-107416763D01*
X140416093Y-107416762D01*
X140410752Y-107412882D01*
X140404724Y-107410198D01*
X140404722Y-107410197D01*
X140242319Y-107337891D01*
X140242318Y-107337891D01*
X140236288Y-107335206D01*
X140142888Y-107315353D01*
X140055944Y-107296872D01*
X140055939Y-107296872D01*
X140049487Y-107295500D01*
X139993595Y-107295500D01*
X139925474Y-107275498D01*
X139904500Y-107258595D01*
X139756405Y-107110500D01*
X139722379Y-107048188D01*
X139719500Y-107021405D01*
X139719500Y-103745004D01*
X139739502Y-103676883D01*
X139773229Y-103641791D01*
X139901270Y-103552136D01*
X139901273Y-103552134D01*
X139905781Y-103548977D01*
X140062977Y-103391781D01*
X140150894Y-103266223D01*
X140187331Y-103214185D01*
X140187332Y-103214183D01*
X140190488Y-103209676D01*
X140192811Y-103204694D01*
X140192814Y-103204689D01*
X140241805Y-103099627D01*
X140288723Y-103046342D01*
X140357000Y-103026881D01*
X140424960Y-103047423D01*
X140470195Y-103099627D01*
X140519186Y-103204689D01*
X140519189Y-103204694D01*
X140521512Y-103209676D01*
X140524668Y-103214183D01*
X140524669Y-103214185D01*
X140561107Y-103266223D01*
X140649023Y-103391781D01*
X140806219Y-103548977D01*
X140810727Y-103552134D01*
X140810730Y-103552136D01*
X140883500Y-103603090D01*
X140988323Y-103676488D01*
X140993305Y-103678811D01*
X140993310Y-103678814D01*
X141135256Y-103745004D01*
X141189804Y-103770440D01*
X141195112Y-103771862D01*
X141195114Y-103771863D01*
X141233681Y-103782197D01*
X141404537Y-103827978D01*
X141626000Y-103847353D01*
X141847463Y-103827978D01*
X142018319Y-103782197D01*
X142056886Y-103771863D01*
X142056888Y-103771862D01*
X142062196Y-103770440D01*
X142116744Y-103745004D01*
X142258690Y-103678814D01*
X142258695Y-103678811D01*
X142263677Y-103676488D01*
X142368500Y-103603090D01*
X142441270Y-103552136D01*
X142441273Y-103552134D01*
X142445781Y-103548977D01*
X142602977Y-103391781D01*
X142690894Y-103266223D01*
X142727331Y-103214185D01*
X142727332Y-103214183D01*
X142730488Y-103209676D01*
X142732811Y-103204694D01*
X142732814Y-103204689D01*
X142781805Y-103099627D01*
X142828723Y-103046342D01*
X142897000Y-103026881D01*
X142964960Y-103047423D01*
X143010195Y-103099627D01*
X143059186Y-103204689D01*
X143059189Y-103204694D01*
X143061512Y-103209676D01*
X143064668Y-103214183D01*
X143064669Y-103214185D01*
X143101107Y-103266223D01*
X143189023Y-103391781D01*
X143346219Y-103548977D01*
X143350727Y-103552134D01*
X143350730Y-103552136D01*
X143423500Y-103603090D01*
X143528323Y-103676488D01*
X143533305Y-103678811D01*
X143533310Y-103678814D01*
X143675256Y-103745004D01*
X143729804Y-103770440D01*
X143735112Y-103771862D01*
X143735114Y-103771863D01*
X143773681Y-103782197D01*
X143944537Y-103827978D01*
X144166000Y-103847353D01*
X144387463Y-103827978D01*
X144558319Y-103782197D01*
X144596886Y-103771863D01*
X144596888Y-103771862D01*
X144602196Y-103770440D01*
X144656744Y-103745004D01*
X144798690Y-103678814D01*
X144798695Y-103678811D01*
X144803677Y-103676488D01*
X144908500Y-103603090D01*
X144981270Y-103552136D01*
X144981273Y-103552134D01*
X144985781Y-103548977D01*
X145142977Y-103391781D01*
X145230894Y-103266223D01*
X145267331Y-103214185D01*
X145267332Y-103214183D01*
X145270488Y-103209676D01*
X145272811Y-103204694D01*
X145272814Y-103204689D01*
X145321805Y-103099627D01*
X145368723Y-103046342D01*
X145437000Y-103026881D01*
X145504960Y-103047423D01*
X145550195Y-103099627D01*
X145599186Y-103204689D01*
X145599189Y-103204694D01*
X145601512Y-103209676D01*
X145604668Y-103214183D01*
X145604669Y-103214185D01*
X145641107Y-103266223D01*
X145729023Y-103391781D01*
X145886219Y-103548977D01*
X145890727Y-103552134D01*
X145890730Y-103552136D01*
X146018771Y-103641791D01*
X146063099Y-103697248D01*
X146072500Y-103745004D01*
X146072500Y-106546092D01*
X146055619Y-106609091D01*
X145977473Y-106744444D01*
X145918458Y-106926072D01*
X145917768Y-106932633D01*
X145917768Y-106932635D01*
X145910005Y-107006500D01*
X145898496Y-107116000D01*
X145899186Y-107122565D01*
X145915291Y-107275791D01*
X145918458Y-107305928D01*
X145977473Y-107487556D01*
X145980776Y-107493278D01*
X145980777Y-107493279D01*
X145985910Y-107502170D01*
X146072960Y-107652944D01*
X146077378Y-107657851D01*
X146077379Y-107657852D01*
X146175381Y-107766694D01*
X146200747Y-107794866D01*
X146355248Y-107907118D01*
X146361276Y-107909802D01*
X146361278Y-107909803D01*
X146523681Y-107982109D01*
X146529712Y-107984794D01*
X146623112Y-108004647D01*
X146710056Y-108023128D01*
X146710061Y-108023128D01*
X146716513Y-108024500D01*
X146907487Y-108024500D01*
X146913939Y-108023128D01*
X146913944Y-108023128D01*
X147000888Y-108004647D01*
X147094288Y-107984794D01*
X147100319Y-107982109D01*
X147262722Y-107909803D01*
X147262724Y-107909802D01*
X147268752Y-107907118D01*
X147423253Y-107794866D01*
X147448619Y-107766694D01*
X147546621Y-107657852D01*
X147546622Y-107657851D01*
X147551040Y-107652944D01*
X147638090Y-107502170D01*
X147643223Y-107493279D01*
X147643224Y-107493278D01*
X147646527Y-107487556D01*
X147705542Y-107305928D01*
X147708710Y-107275791D01*
X147724814Y-107122565D01*
X147725504Y-107116000D01*
X147713995Y-107006500D01*
X147706232Y-106932635D01*
X147706232Y-106932633D01*
X147705542Y-106926072D01*
X147646527Y-106744444D01*
X147551040Y-106579056D01*
X147423253Y-106437134D01*
X147417913Y-106433255D01*
X147417905Y-106433247D01*
X147391440Y-106414020D01*
X147348085Y-106357798D01*
X147339500Y-106312084D01*
X147339500Y-103745004D01*
X147359502Y-103676883D01*
X147393229Y-103641791D01*
X147521270Y-103552136D01*
X147521273Y-103552134D01*
X147525781Y-103548977D01*
X147682977Y-103391781D01*
X147770894Y-103266223D01*
X147807331Y-103214185D01*
X147807332Y-103214183D01*
X147810488Y-103209676D01*
X147812811Y-103204694D01*
X147812814Y-103204689D01*
X147861805Y-103099627D01*
X147908723Y-103046342D01*
X147977000Y-103026881D01*
X148044960Y-103047423D01*
X148090195Y-103099627D01*
X148139186Y-103204689D01*
X148139189Y-103204694D01*
X148141512Y-103209676D01*
X148144668Y-103214183D01*
X148144669Y-103214185D01*
X148181107Y-103266223D01*
X148269023Y-103391781D01*
X148426219Y-103548977D01*
X148430727Y-103552134D01*
X148430730Y-103552136D01*
X148503500Y-103603090D01*
X148608323Y-103676488D01*
X148613305Y-103678811D01*
X148613310Y-103678814D01*
X148755256Y-103745004D01*
X148809804Y-103770440D01*
X148815112Y-103771862D01*
X148815114Y-103771863D01*
X148853681Y-103782197D01*
X149024537Y-103827978D01*
X149246000Y-103847353D01*
X149467463Y-103827978D01*
X149638319Y-103782197D01*
X149676886Y-103771863D01*
X149676888Y-103771862D01*
X149682196Y-103770440D01*
X149736744Y-103745004D01*
X149878690Y-103678814D01*
X149878695Y-103678811D01*
X149883677Y-103676488D01*
X149988500Y-103603090D01*
X150061270Y-103552136D01*
X150061273Y-103552134D01*
X150065781Y-103548977D01*
X150222977Y-103391781D01*
X150310894Y-103266223D01*
X150347331Y-103214185D01*
X150347332Y-103214183D01*
X150350488Y-103209676D01*
X150352811Y-103204694D01*
X150352814Y-103204689D01*
X150401805Y-103099627D01*
X150448723Y-103046342D01*
X150517000Y-103026881D01*
X150584960Y-103047423D01*
X150630195Y-103099627D01*
X150679186Y-103204689D01*
X150679189Y-103204694D01*
X150681512Y-103209676D01*
X150684668Y-103214183D01*
X150684669Y-103214185D01*
X150721107Y-103266223D01*
X150809023Y-103391781D01*
X150966219Y-103548977D01*
X150970727Y-103552134D01*
X150970730Y-103552136D01*
X151043500Y-103603090D01*
X151148323Y-103676488D01*
X151153305Y-103678811D01*
X151153310Y-103678814D01*
X151295256Y-103745004D01*
X151349804Y-103770440D01*
X151355112Y-103771862D01*
X151355114Y-103771863D01*
X151393681Y-103782197D01*
X151564537Y-103827978D01*
X151786000Y-103847353D01*
X152007463Y-103827978D01*
X152178319Y-103782197D01*
X152216886Y-103771863D01*
X152216888Y-103771862D01*
X152222196Y-103770440D01*
X152276744Y-103745004D01*
X152349250Y-103711194D01*
X152419442Y-103700533D01*
X152484255Y-103729513D01*
X152523111Y-103788933D01*
X152528500Y-103825389D01*
X152528500Y-113597476D01*
X152508498Y-113665597D01*
X152496142Y-113681779D01*
X152422960Y-113763056D01*
X152327473Y-113928444D01*
X152268458Y-114110072D01*
X152248496Y-114300000D01*
X152249186Y-114306565D01*
X152257832Y-114388823D01*
X152268458Y-114489928D01*
X152327473Y-114671556D01*
X152330776Y-114677278D01*
X152330777Y-114677279D01*
X152333521Y-114682031D01*
X152422960Y-114836944D01*
X152427378Y-114841851D01*
X152427379Y-114841852D01*
X152511510Y-114935289D01*
X152550747Y-114978866D01*
X152705248Y-115091118D01*
X152711276Y-115093802D01*
X152711278Y-115093803D01*
X152873681Y-115166109D01*
X152879712Y-115168794D01*
X152973112Y-115188647D01*
X153060056Y-115207128D01*
X153060061Y-115207128D01*
X153066513Y-115208500D01*
X153257487Y-115208500D01*
X153263939Y-115207128D01*
X153263944Y-115207128D01*
X153350888Y-115188647D01*
X153444288Y-115168794D01*
X153450319Y-115166109D01*
X153612722Y-115093803D01*
X153612724Y-115093802D01*
X153618752Y-115091118D01*
X153773253Y-114978866D01*
X153812490Y-114935289D01*
X153896621Y-114841852D01*
X153896622Y-114841851D01*
X153901040Y-114836944D01*
X153990479Y-114682031D01*
X153993223Y-114677279D01*
X153993224Y-114677278D01*
X153996527Y-114671556D01*
X154055542Y-114489928D01*
X154066169Y-114388823D01*
X154074814Y-114306565D01*
X154075504Y-114300000D01*
X154055542Y-114110072D01*
X153996527Y-113928444D01*
X153901040Y-113763056D01*
X153827863Y-113681785D01*
X153797147Y-113617779D01*
X153795500Y-113597476D01*
X153795500Y-103909378D01*
X153815502Y-103841257D01*
X153869158Y-103794764D01*
X153939432Y-103784660D01*
X153954105Y-103787670D01*
X154104537Y-103827978D01*
X154326000Y-103847353D01*
X154547463Y-103827978D01*
X154718319Y-103782197D01*
X154756886Y-103771863D01*
X154756888Y-103771862D01*
X154762196Y-103770440D01*
X154816744Y-103745004D01*
X154958690Y-103678814D01*
X154958695Y-103678811D01*
X154963677Y-103676488D01*
X155068500Y-103603090D01*
X155141270Y-103552136D01*
X155141273Y-103552134D01*
X155145781Y-103548977D01*
X155302977Y-103391781D01*
X155390894Y-103266223D01*
X155427331Y-103214185D01*
X155427332Y-103214183D01*
X155430488Y-103209676D01*
X155432811Y-103204694D01*
X155432814Y-103204689D01*
X155481805Y-103099627D01*
X155528723Y-103046342D01*
X155597000Y-103026881D01*
X155664960Y-103047423D01*
X155710195Y-103099627D01*
X155759186Y-103204689D01*
X155759189Y-103204694D01*
X155761512Y-103209676D01*
X155764668Y-103214183D01*
X155764669Y-103214185D01*
X155801107Y-103266223D01*
X155889023Y-103391781D01*
X156046219Y-103548977D01*
X156050727Y-103552134D01*
X156050730Y-103552136D01*
X156123500Y-103603090D01*
X156228323Y-103676488D01*
X156233305Y-103678811D01*
X156233310Y-103678814D01*
X156375256Y-103745004D01*
X156429804Y-103770440D01*
X156435112Y-103771862D01*
X156435114Y-103771863D01*
X156473681Y-103782197D01*
X156644537Y-103827978D01*
X156866000Y-103847353D01*
X157087463Y-103827978D01*
X157258319Y-103782197D01*
X157296886Y-103771863D01*
X157296888Y-103771862D01*
X157302196Y-103770440D01*
X157356744Y-103745004D01*
X157498690Y-103678814D01*
X157498695Y-103678811D01*
X157503677Y-103676488D01*
X157608500Y-103603090D01*
X157681270Y-103552136D01*
X157681273Y-103552134D01*
X157685781Y-103548977D01*
X157842977Y-103391781D01*
X157930894Y-103266223D01*
X157967331Y-103214185D01*
X157967332Y-103214183D01*
X157970488Y-103209676D01*
X157972811Y-103204694D01*
X157972814Y-103204689D01*
X158021805Y-103099627D01*
X158068723Y-103046342D01*
X158137000Y-103026881D01*
X158204960Y-103047423D01*
X158250195Y-103099627D01*
X158299186Y-103204689D01*
X158299189Y-103204694D01*
X158301512Y-103209676D01*
X158304668Y-103214183D01*
X158304669Y-103214185D01*
X158341107Y-103266223D01*
X158429023Y-103391781D01*
X158586219Y-103548977D01*
X158590727Y-103552134D01*
X158590730Y-103552136D01*
X158663500Y-103603090D01*
X158768323Y-103676488D01*
X158773305Y-103678811D01*
X158773310Y-103678814D01*
X158915256Y-103745004D01*
X158969804Y-103770440D01*
X158975112Y-103771862D01*
X158975114Y-103771863D01*
X159013681Y-103782197D01*
X159184537Y-103827978D01*
X159406000Y-103847353D01*
X159627463Y-103827978D01*
X159798319Y-103782197D01*
X159836886Y-103771863D01*
X159836888Y-103771862D01*
X159842196Y-103770440D01*
X159896744Y-103745004D01*
X159969250Y-103711194D01*
X160039442Y-103700533D01*
X160104255Y-103729513D01*
X160143111Y-103788933D01*
X160148500Y-103825389D01*
X160148500Y-113851476D01*
X160128498Y-113919597D01*
X160116142Y-113935779D01*
X160042960Y-114017056D01*
X159947473Y-114182444D01*
X159888458Y-114364072D01*
X159887768Y-114370633D01*
X159887768Y-114370635D01*
X159884486Y-114401865D01*
X159868496Y-114554000D01*
X159888458Y-114743928D01*
X159947473Y-114925556D01*
X160042960Y-115090944D01*
X160170747Y-115232866D01*
X160325248Y-115345118D01*
X160331276Y-115347802D01*
X160331278Y-115347803D01*
X160468081Y-115408711D01*
X160499712Y-115422794D01*
X160593112Y-115442647D01*
X160680056Y-115461128D01*
X160680061Y-115461128D01*
X160686513Y-115462500D01*
X160877487Y-115462500D01*
X160879838Y-115462000D01*
X162622835Y-115462000D01*
X162641465Y-115698711D01*
X162642619Y-115703518D01*
X162642620Y-115703524D01*
X162655442Y-115756930D01*
X162696895Y-115929594D01*
X162698788Y-115934165D01*
X162698789Y-115934167D01*
X162749752Y-116057202D01*
X162787760Y-116148963D01*
X162790346Y-116153183D01*
X162909241Y-116347202D01*
X162909245Y-116347208D01*
X162911824Y-116351416D01*
X163066031Y-116531969D01*
X163246584Y-116686176D01*
X163250792Y-116688755D01*
X163250798Y-116688759D01*
X163444817Y-116807654D01*
X163449037Y-116810240D01*
X163453607Y-116812133D01*
X163453611Y-116812135D01*
X163663833Y-116899211D01*
X163668406Y-116901105D01*
X163748609Y-116920360D01*
X163894476Y-116955380D01*
X163894482Y-116955381D01*
X163899289Y-116956535D01*
X164136000Y-116975165D01*
X164372711Y-116956535D01*
X164377518Y-116955381D01*
X164377524Y-116955380D01*
X164523391Y-116920360D01*
X164603594Y-116901105D01*
X164608167Y-116899211D01*
X164818389Y-116812135D01*
X164818393Y-116812133D01*
X164822963Y-116810240D01*
X164827183Y-116807654D01*
X165021202Y-116688759D01*
X165021208Y-116688755D01*
X165025416Y-116686176D01*
X165205969Y-116531969D01*
X165360176Y-116351416D01*
X165362755Y-116347208D01*
X165362759Y-116347202D01*
X165481654Y-116153183D01*
X165484240Y-116148963D01*
X165522249Y-116057202D01*
X165573211Y-115934167D01*
X165573212Y-115934165D01*
X165575105Y-115929594D01*
X165616558Y-115756930D01*
X165629380Y-115703524D01*
X165629381Y-115703518D01*
X165630535Y-115698711D01*
X165649165Y-115462000D01*
X169122835Y-115462000D01*
X169141465Y-115698711D01*
X169142619Y-115703518D01*
X169142620Y-115703524D01*
X169155442Y-115756930D01*
X169196895Y-115929594D01*
X169198788Y-115934165D01*
X169198789Y-115934167D01*
X169249752Y-116057202D01*
X169287760Y-116148963D01*
X169290346Y-116153183D01*
X169409241Y-116347202D01*
X169409245Y-116347208D01*
X169411824Y-116351416D01*
X169566031Y-116531969D01*
X169746584Y-116686176D01*
X169750792Y-116688755D01*
X169750798Y-116688759D01*
X169944817Y-116807654D01*
X169949037Y-116810240D01*
X169953607Y-116812133D01*
X169953611Y-116812135D01*
X170163833Y-116899211D01*
X170168406Y-116901105D01*
X170248609Y-116920360D01*
X170394476Y-116955380D01*
X170394482Y-116955381D01*
X170399289Y-116956535D01*
X170636000Y-116975165D01*
X170872711Y-116956535D01*
X170877518Y-116955381D01*
X170877524Y-116955380D01*
X171023391Y-116920360D01*
X171103594Y-116901105D01*
X171108167Y-116899211D01*
X171318389Y-116812135D01*
X171318393Y-116812133D01*
X171322963Y-116810240D01*
X171327183Y-116807654D01*
X171521202Y-116688759D01*
X171521208Y-116688755D01*
X171525416Y-116686176D01*
X171705969Y-116531969D01*
X171860176Y-116351416D01*
X171862755Y-116347208D01*
X171862759Y-116347202D01*
X171981654Y-116153183D01*
X171984240Y-116148963D01*
X172022249Y-116057202D01*
X172073211Y-115934167D01*
X172073212Y-115934165D01*
X172075105Y-115929594D01*
X172116558Y-115756930D01*
X172129380Y-115703524D01*
X172129381Y-115703518D01*
X172130535Y-115698711D01*
X172149165Y-115462000D01*
X172130535Y-115225289D01*
X172126505Y-115208500D01*
X172076260Y-114999218D01*
X172075105Y-114994406D01*
X172046587Y-114925556D01*
X171986135Y-114779611D01*
X171986133Y-114779607D01*
X171984240Y-114775037D01*
X171981654Y-114770817D01*
X171862759Y-114576798D01*
X171862755Y-114576792D01*
X171860176Y-114572584D01*
X171705969Y-114392031D01*
X171525416Y-114237824D01*
X171521208Y-114235245D01*
X171521202Y-114235241D01*
X171327183Y-114116346D01*
X171322963Y-114113760D01*
X171318393Y-114111867D01*
X171318389Y-114111865D01*
X171108167Y-114024789D01*
X171108165Y-114024788D01*
X171103594Y-114022895D01*
X171023391Y-114003640D01*
X170877524Y-113968620D01*
X170877518Y-113968619D01*
X170872711Y-113967465D01*
X170636000Y-113948835D01*
X170399289Y-113967465D01*
X170394482Y-113968619D01*
X170394476Y-113968620D01*
X170248609Y-114003640D01*
X170168406Y-114022895D01*
X170163835Y-114024788D01*
X170163833Y-114024789D01*
X169953611Y-114111865D01*
X169953607Y-114111867D01*
X169949037Y-114113760D01*
X169944817Y-114116346D01*
X169750798Y-114235241D01*
X169750792Y-114235245D01*
X169746584Y-114237824D01*
X169566031Y-114392031D01*
X169411824Y-114572584D01*
X169409245Y-114576792D01*
X169409241Y-114576798D01*
X169290346Y-114770817D01*
X169287760Y-114775037D01*
X169285867Y-114779607D01*
X169285865Y-114779611D01*
X169225413Y-114925556D01*
X169196895Y-114994406D01*
X169195740Y-114999218D01*
X169145496Y-115208500D01*
X169141465Y-115225289D01*
X169122835Y-115462000D01*
X165649165Y-115462000D01*
X165630535Y-115225289D01*
X165626505Y-115208500D01*
X165576260Y-114999218D01*
X165575105Y-114994406D01*
X165546587Y-114925556D01*
X165486135Y-114779611D01*
X165486133Y-114779607D01*
X165484240Y-114775037D01*
X165481654Y-114770817D01*
X165362759Y-114576798D01*
X165362755Y-114576792D01*
X165360176Y-114572584D01*
X165205969Y-114392031D01*
X165025416Y-114237824D01*
X165021208Y-114235245D01*
X165021202Y-114235241D01*
X164827183Y-114116346D01*
X164822963Y-114113760D01*
X164818393Y-114111867D01*
X164818389Y-114111865D01*
X164608167Y-114024789D01*
X164608165Y-114024788D01*
X164603594Y-114022895D01*
X164523391Y-114003640D01*
X164377524Y-113968620D01*
X164377518Y-113968619D01*
X164372711Y-113967465D01*
X164136000Y-113948835D01*
X163899289Y-113967465D01*
X163894482Y-113968619D01*
X163894476Y-113968620D01*
X163748609Y-114003640D01*
X163668406Y-114022895D01*
X163663835Y-114024788D01*
X163663833Y-114024789D01*
X163453611Y-114111865D01*
X163453607Y-114111867D01*
X163449037Y-114113760D01*
X163444817Y-114116346D01*
X163250798Y-114235241D01*
X163250792Y-114235245D01*
X163246584Y-114237824D01*
X163066031Y-114392031D01*
X162911824Y-114572584D01*
X162909245Y-114576792D01*
X162909241Y-114576798D01*
X162790346Y-114770817D01*
X162787760Y-114775037D01*
X162785867Y-114779607D01*
X162785865Y-114779611D01*
X162725413Y-114925556D01*
X162696895Y-114994406D01*
X162695740Y-114999218D01*
X162645496Y-115208500D01*
X162641465Y-115225289D01*
X162622835Y-115462000D01*
X160879838Y-115462000D01*
X160883939Y-115461128D01*
X160883944Y-115461128D01*
X160970888Y-115442647D01*
X161064288Y-115422794D01*
X161095919Y-115408711D01*
X161232722Y-115347803D01*
X161232724Y-115347802D01*
X161238752Y-115345118D01*
X161393253Y-115232866D01*
X161521040Y-115090944D01*
X161616527Y-114925556D01*
X161675542Y-114743928D01*
X161695504Y-114554000D01*
X161679514Y-114401865D01*
X161676232Y-114370635D01*
X161676232Y-114370633D01*
X161675542Y-114364072D01*
X161616527Y-114182444D01*
X161521040Y-114017056D01*
X161447863Y-113935785D01*
X161417147Y-113871779D01*
X161415500Y-113851476D01*
X161415500Y-104576000D01*
X162408496Y-104576000D01*
X162428458Y-104765928D01*
X162487473Y-104947556D01*
X162582960Y-105112944D01*
X162587378Y-105117851D01*
X162587379Y-105117852D01*
X162597940Y-105129581D01*
X162710747Y-105254866D01*
X162770165Y-105298036D01*
X162836394Y-105346154D01*
X162865248Y-105367118D01*
X162871276Y-105369802D01*
X162871278Y-105369803D01*
X163033681Y-105442109D01*
X163039712Y-105444794D01*
X163133112Y-105464647D01*
X163220056Y-105483128D01*
X163220061Y-105483128D01*
X163226513Y-105484500D01*
X163282405Y-105484500D01*
X163350526Y-105504502D01*
X163371500Y-105521405D01*
X163465595Y-105615500D01*
X163499621Y-105677812D01*
X163502500Y-105704595D01*
X163502500Y-109510434D01*
X163482498Y-109578555D01*
X163442335Y-109617867D01*
X163250798Y-109735241D01*
X163250792Y-109735245D01*
X163246584Y-109737824D01*
X163066031Y-109892031D01*
X162911824Y-110072584D01*
X162909245Y-110076792D01*
X162909241Y-110076798D01*
X162833845Y-110199833D01*
X162787760Y-110275037D01*
X162785867Y-110279607D01*
X162785865Y-110279611D01*
X162723375Y-110430476D01*
X162696895Y-110494406D01*
X162695740Y-110499218D01*
X162653889Y-110673540D01*
X162641465Y-110725289D01*
X162622835Y-110962000D01*
X162641465Y-111198711D01*
X162642619Y-111203518D01*
X162642620Y-111203524D01*
X162655442Y-111256930D01*
X162696895Y-111429594D01*
X162698788Y-111434165D01*
X162698789Y-111434167D01*
X162770807Y-111608034D01*
X162787760Y-111648963D01*
X162790346Y-111653183D01*
X162909241Y-111847202D01*
X162909245Y-111847208D01*
X162911824Y-111851416D01*
X163066031Y-112031969D01*
X163246584Y-112186176D01*
X163250792Y-112188755D01*
X163250798Y-112188759D01*
X163444817Y-112307654D01*
X163449037Y-112310240D01*
X163453607Y-112312133D01*
X163453611Y-112312135D01*
X163663833Y-112399211D01*
X163668406Y-112401105D01*
X163748609Y-112420360D01*
X163894476Y-112455380D01*
X163894482Y-112455381D01*
X163899289Y-112456535D01*
X164136000Y-112475165D01*
X164372711Y-112456535D01*
X164377518Y-112455381D01*
X164377524Y-112455380D01*
X164523391Y-112420360D01*
X164603594Y-112401105D01*
X164608167Y-112399211D01*
X164818389Y-112312135D01*
X164818393Y-112312133D01*
X164822963Y-112310240D01*
X164827183Y-112307654D01*
X165021202Y-112188759D01*
X165021208Y-112188755D01*
X165025416Y-112186176D01*
X165205969Y-112031969D01*
X165360176Y-111851416D01*
X165362755Y-111847208D01*
X165362759Y-111847202D01*
X165480133Y-111655665D01*
X165532781Y-111608034D01*
X165587566Y-111595500D01*
X169184434Y-111595500D01*
X169252555Y-111615502D01*
X169291867Y-111655665D01*
X169409241Y-111847202D01*
X169409245Y-111847208D01*
X169411824Y-111851416D01*
X169566031Y-112031969D01*
X169746584Y-112186176D01*
X169750792Y-112188755D01*
X169750798Y-112188759D01*
X169944817Y-112307654D01*
X169949037Y-112310240D01*
X169953607Y-112312133D01*
X169953611Y-112312135D01*
X170163833Y-112399211D01*
X170168406Y-112401105D01*
X170248609Y-112420360D01*
X170394476Y-112455380D01*
X170394482Y-112455381D01*
X170399289Y-112456535D01*
X170636000Y-112475165D01*
X170872711Y-112456535D01*
X170877518Y-112455381D01*
X170877524Y-112455380D01*
X171023391Y-112420360D01*
X171103594Y-112401105D01*
X171108167Y-112399211D01*
X171318389Y-112312135D01*
X171318393Y-112312133D01*
X171322963Y-112310240D01*
X171327183Y-112307654D01*
X171521202Y-112188759D01*
X171521208Y-112188755D01*
X171525416Y-112186176D01*
X171705969Y-112031969D01*
X171860176Y-111851416D01*
X171862755Y-111847208D01*
X171862759Y-111847202D01*
X171981654Y-111653183D01*
X171984240Y-111648963D01*
X172001194Y-111608034D01*
X172073211Y-111434167D01*
X172073212Y-111434165D01*
X172075105Y-111429594D01*
X172116558Y-111256930D01*
X172129380Y-111203524D01*
X172129381Y-111203518D01*
X172130535Y-111198711D01*
X172149165Y-110962000D01*
X172130535Y-110725289D01*
X172118112Y-110673540D01*
X172076260Y-110499218D01*
X172075105Y-110494406D01*
X172048625Y-110430476D01*
X171986135Y-110279611D01*
X171986133Y-110279607D01*
X171984240Y-110275037D01*
X171938155Y-110199833D01*
X171862759Y-110076798D01*
X171862755Y-110076792D01*
X171860176Y-110072584D01*
X171705969Y-109892031D01*
X171525416Y-109737824D01*
X171521208Y-109735245D01*
X171521202Y-109735241D01*
X171327183Y-109616346D01*
X171322963Y-109613760D01*
X171318393Y-109611867D01*
X171318389Y-109611865D01*
X171108167Y-109524789D01*
X171108165Y-109524788D01*
X171103594Y-109522895D01*
X171023391Y-109503640D01*
X170877524Y-109468620D01*
X170877518Y-109468619D01*
X170872711Y-109467465D01*
X170636000Y-109448835D01*
X170399289Y-109467465D01*
X170394482Y-109468619D01*
X170394476Y-109468620D01*
X170248609Y-109503640D01*
X170168406Y-109522895D01*
X170163835Y-109524788D01*
X170163833Y-109524789D01*
X169953611Y-109611865D01*
X169953607Y-109611867D01*
X169949037Y-109613760D01*
X169944817Y-109616346D01*
X169750798Y-109735241D01*
X169750792Y-109735245D01*
X169746584Y-109737824D01*
X169566031Y-109892031D01*
X169411824Y-110072584D01*
X169409245Y-110076792D01*
X169409241Y-110076798D01*
X169291867Y-110268335D01*
X169239219Y-110315966D01*
X169184434Y-110328500D01*
X165587566Y-110328500D01*
X165519445Y-110308498D01*
X165480133Y-110268335D01*
X165362759Y-110076798D01*
X165362755Y-110076792D01*
X165360176Y-110072584D01*
X165205969Y-109892031D01*
X165025416Y-109737824D01*
X165021208Y-109735245D01*
X165021202Y-109735241D01*
X164829665Y-109617867D01*
X164782034Y-109565219D01*
X164769500Y-109510434D01*
X164769500Y-105468767D01*
X164770027Y-105457584D01*
X164771702Y-105450091D01*
X164769562Y-105382000D01*
X164769500Y-105378043D01*
X164769500Y-105350144D01*
X164768996Y-105346153D01*
X164768063Y-105334311D01*
X164766923Y-105298036D01*
X164766674Y-105290111D01*
X164764462Y-105282497D01*
X164764461Y-105282492D01*
X164761023Y-105270659D01*
X164757012Y-105251295D01*
X164755467Y-105239064D01*
X164754474Y-105231203D01*
X164751557Y-105223836D01*
X164751556Y-105223831D01*
X164738198Y-105190092D01*
X164734354Y-105178865D01*
X164724230Y-105144022D01*
X164722018Y-105136407D01*
X164711707Y-105118972D01*
X164703012Y-105101224D01*
X164695552Y-105082383D01*
X164669564Y-105046613D01*
X164663048Y-105036693D01*
X164644580Y-105005465D01*
X164644578Y-105005462D01*
X164640542Y-104998638D01*
X164626221Y-104984317D01*
X164613380Y-104969283D01*
X164606131Y-104959306D01*
X164601472Y-104952893D01*
X164595367Y-104947842D01*
X164595362Y-104947837D01*
X164567402Y-104924706D01*
X164558624Y-104916719D01*
X164414111Y-104772206D01*
X164269122Y-104627218D01*
X164235097Y-104564905D01*
X164232907Y-104551292D01*
X164216232Y-104392635D01*
X164216232Y-104392633D01*
X164215542Y-104386072D01*
X164156527Y-104204444D01*
X164061040Y-104039056D01*
X163933253Y-103897134D01*
X163834157Y-103825136D01*
X163784094Y-103788763D01*
X163784093Y-103788762D01*
X163778752Y-103784882D01*
X163772724Y-103782198D01*
X163772722Y-103782197D01*
X163610319Y-103709891D01*
X163610318Y-103709891D01*
X163604288Y-103707206D01*
X163510887Y-103687353D01*
X163423944Y-103668872D01*
X163423939Y-103668872D01*
X163417487Y-103667500D01*
X163226513Y-103667500D01*
X163220061Y-103668872D01*
X163220056Y-103668872D01*
X163133113Y-103687353D01*
X163039712Y-103707206D01*
X163033682Y-103709891D01*
X163033681Y-103709891D01*
X162871278Y-103782197D01*
X162871276Y-103782198D01*
X162865248Y-103784882D01*
X162859907Y-103788762D01*
X162859906Y-103788763D01*
X162809843Y-103825136D01*
X162710747Y-103897134D01*
X162582960Y-104039056D01*
X162487473Y-104204444D01*
X162428458Y-104386072D01*
X162408496Y-104576000D01*
X161415500Y-104576000D01*
X161415500Y-102241439D01*
X161435502Y-102173318D01*
X161489158Y-102126825D01*
X161559432Y-102116721D01*
X161624012Y-102146215D01*
X161634390Y-102157233D01*
X161634792Y-102156863D01*
X161638598Y-102161001D01*
X161642009Y-102165447D01*
X161705404Y-102223132D01*
X161805605Y-102314308D01*
X161805608Y-102314310D01*
X161809752Y-102318081D01*
X161814503Y-102321062D01*
X161814504Y-102321062D01*
X161997118Y-102435616D01*
X161997122Y-102435618D01*
X162001874Y-102438599D01*
X162212301Y-102523190D01*
X162434382Y-102569181D01*
X162438993Y-102569447D01*
X162438994Y-102569447D01*
X162490121Y-102572395D01*
X162490125Y-102572395D01*
X162491944Y-102572500D01*
X162638535Y-102572500D01*
X162641322Y-102572251D01*
X162641328Y-102572251D01*
X162711506Y-102565987D01*
X162806895Y-102557474D01*
X163025651Y-102497630D01*
X163030709Y-102495218D01*
X163030713Y-102495216D01*
X163225284Y-102402410D01*
X163225285Y-102402409D01*
X163230351Y-102399993D01*
X163299176Y-102350537D01*
X163409966Y-102270926D01*
X163409968Y-102270924D01*
X163414526Y-102267649D01*
X163526215Y-102152396D01*
X163568452Y-102108811D01*
X163568454Y-102108808D01*
X163572355Y-102104783D01*
X163652497Y-101985519D01*
X163695721Y-101921195D01*
X163695724Y-101921190D01*
X163698847Y-101916542D01*
X163705632Y-101901087D01*
X163769000Y-101756730D01*
X163790007Y-101708876D01*
X163816405Y-101598920D01*
X163841640Y-101493808D01*
X163841641Y-101493802D01*
X163842950Y-101488349D01*
X163854295Y-101291604D01*
X163855683Y-101267537D01*
X163855683Y-101267534D01*
X163856006Y-101261931D01*
X163828759Y-101036781D01*
X163762073Y-100820013D01*
X163658054Y-100618481D01*
X163519991Y-100438553D01*
X163399235Y-100328674D01*
X163356395Y-100289692D01*
X163356392Y-100289690D01*
X163352248Y-100285919D01*
X163299050Y-100252548D01*
X163164882Y-100168384D01*
X163164878Y-100168382D01*
X163160126Y-100165401D01*
X162949699Y-100080810D01*
X162727618Y-100034819D01*
X162723007Y-100034553D01*
X162723006Y-100034553D01*
X162671879Y-100031605D01*
X162671875Y-100031605D01*
X162670056Y-100031500D01*
X162523465Y-100031500D01*
X162520678Y-100031749D01*
X162520672Y-100031749D01*
X162450494Y-100038013D01*
X162355105Y-100046526D01*
X162136349Y-100106370D01*
X162131291Y-100108782D01*
X162131287Y-100108784D01*
X162006334Y-100168384D01*
X161931649Y-100204007D01*
X161927088Y-100207284D01*
X161927087Y-100207285D01*
X161758158Y-100328674D01*
X161747474Y-100336351D01*
X161642257Y-100444926D01*
X161631984Y-100455527D01*
X161570214Y-100490527D01*
X161499327Y-100486575D01*
X161441830Y-100444926D01*
X161415978Y-100378803D01*
X161415500Y-100367842D01*
X161415500Y-99456000D01*
X161435502Y-99387879D01*
X161489158Y-99341386D01*
X161541500Y-99330000D01*
X162033885Y-99330000D01*
X162049124Y-99325525D01*
X162050329Y-99324135D01*
X162052000Y-99316452D01*
X162052000Y-99311884D01*
X162560000Y-99311884D01*
X162564475Y-99327123D01*
X162565865Y-99328328D01*
X162573548Y-99329999D01*
X163200669Y-99329999D01*
X163207490Y-99329629D01*
X163258352Y-99324105D01*
X163273604Y-99320479D01*
X163394054Y-99275324D01*
X163409649Y-99266786D01*
X163511724Y-99190285D01*
X163524285Y-99177724D01*
X163600786Y-99075649D01*
X163609324Y-99060054D01*
X163654478Y-98939606D01*
X163658105Y-98924351D01*
X163663631Y-98873486D01*
X163664000Y-98866672D01*
X163664000Y-98244115D01*
X163659525Y-98228876D01*
X163658135Y-98227671D01*
X163650452Y-98226000D01*
X162578115Y-98226000D01*
X162562876Y-98230475D01*
X162561671Y-98231865D01*
X162560000Y-98239548D01*
X162560000Y-99311884D01*
X162052000Y-99311884D01*
X162052000Y-97844000D01*
X162072002Y-97775879D01*
X162125658Y-97729386D01*
X162178000Y-97718000D01*
X163645884Y-97718000D01*
X163661123Y-97713525D01*
X163662328Y-97712135D01*
X163663999Y-97704452D01*
X163663999Y-97077331D01*
X163663629Y-97070510D01*
X163658105Y-97019648D01*
X163654479Y-97004396D01*
X163609324Y-96883946D01*
X163600786Y-96868351D01*
X163524285Y-96766276D01*
X163511724Y-96753715D01*
X163409649Y-96677214D01*
X163394054Y-96668676D01*
X163283813Y-96627348D01*
X163227049Y-96584706D01*
X163202349Y-96518145D01*
X163217557Y-96448796D01*
X163239104Y-96420115D01*
X163340430Y-96319144D01*
X163340440Y-96319132D01*
X163344096Y-96315489D01*
X163353670Y-96302166D01*
X163471435Y-96138277D01*
X163474453Y-96134077D01*
X163484006Y-96114749D01*
X163571136Y-95938453D01*
X163571137Y-95938451D01*
X163573430Y-95933811D01*
X163638370Y-95720069D01*
X163667529Y-95498590D01*
X163668292Y-95467360D01*
X163669074Y-95435365D01*
X163669074Y-95435361D01*
X163669156Y-95432000D01*
X163650852Y-95209361D01*
X163596431Y-94992702D01*
X163507354Y-94787840D01*
X163416094Y-94646774D01*
X163388822Y-94604617D01*
X163388820Y-94604614D01*
X163386014Y-94600277D01*
X163235670Y-94435051D01*
X163231619Y-94431852D01*
X163231615Y-94431848D01*
X163064414Y-94299800D01*
X163064410Y-94299798D01*
X163060359Y-94296598D01*
X163019053Y-94273796D01*
X162969084Y-94223364D01*
X162954312Y-94153921D01*
X162979428Y-94087516D01*
X163006780Y-94060909D01*
X163052115Y-94028572D01*
X163185860Y-93933173D01*
X163234429Y-93884774D01*
X163340435Y-93779137D01*
X163344096Y-93775489D01*
X163351666Y-93764955D01*
X163471435Y-93598277D01*
X163474453Y-93594077D01*
X163527128Y-93487498D01*
X163571136Y-93398453D01*
X163571137Y-93398451D01*
X163573430Y-93393811D01*
X163618681Y-93244873D01*
X163636865Y-93185023D01*
X163636865Y-93185021D01*
X163638370Y-93180069D01*
X163667529Y-92958590D01*
X163668371Y-92924144D01*
X163669074Y-92895365D01*
X163669074Y-92895361D01*
X163669156Y-92892000D01*
X163650852Y-92669361D01*
X163596431Y-92452702D01*
X163507354Y-92247840D01*
X163386014Y-92060277D01*
X163235670Y-91895051D01*
X163231619Y-91891852D01*
X163231615Y-91891848D01*
X163064414Y-91759800D01*
X163064410Y-91759798D01*
X163060359Y-91756598D01*
X163019053Y-91733796D01*
X162969084Y-91683364D01*
X162954312Y-91613921D01*
X162979428Y-91547516D01*
X163006780Y-91520909D01*
X163073901Y-91473032D01*
X163185860Y-91393173D01*
X163344096Y-91235489D01*
X163351436Y-91225275D01*
X163471435Y-91058277D01*
X163474453Y-91054077D01*
X163481147Y-91040534D01*
X163571136Y-90858453D01*
X163571137Y-90858451D01*
X163573430Y-90853811D01*
X163638370Y-90640069D01*
X163667529Y-90418590D01*
X163669156Y-90352000D01*
X163650852Y-90129361D01*
X163596431Y-89912702D01*
X163507354Y-89707840D01*
X163467906Y-89646862D01*
X163388822Y-89524617D01*
X163388820Y-89524614D01*
X163386014Y-89520277D01*
X163235670Y-89355051D01*
X163231619Y-89351852D01*
X163231615Y-89351848D01*
X163064414Y-89219800D01*
X163064410Y-89219798D01*
X163060359Y-89216598D01*
X163019053Y-89193796D01*
X162969084Y-89143364D01*
X162954312Y-89073921D01*
X162979428Y-89007516D01*
X163006780Y-88980909D01*
X163050603Y-88949650D01*
X163185860Y-88853173D01*
X163192581Y-88846476D01*
X163287322Y-88752065D01*
X163344096Y-88695489D01*
X163349450Y-88688039D01*
X163471435Y-88518277D01*
X163474453Y-88514077D01*
X163477379Y-88508158D01*
X163571136Y-88318453D01*
X163571137Y-88318451D01*
X163573430Y-88313811D01*
X163633603Y-88115760D01*
X163636865Y-88105023D01*
X163636865Y-88105021D01*
X163638370Y-88100069D01*
X163667529Y-87878590D01*
X163667611Y-87875240D01*
X163669074Y-87815365D01*
X163669074Y-87815361D01*
X163669156Y-87812000D01*
X163650852Y-87589361D01*
X163596431Y-87372702D01*
X163507354Y-87167840D01*
X163386014Y-86980277D01*
X163235670Y-86815051D01*
X163231619Y-86811852D01*
X163231615Y-86811848D01*
X163064414Y-86679800D01*
X163064410Y-86679798D01*
X163060359Y-86676598D01*
X163019053Y-86653796D01*
X162969084Y-86603364D01*
X162954312Y-86533921D01*
X162979428Y-86467516D01*
X163006780Y-86440909D01*
X163050603Y-86409650D01*
X163185860Y-86313173D01*
X163344096Y-86155489D01*
X163403594Y-86072689D01*
X163471435Y-85978277D01*
X163474453Y-85974077D01*
X163573430Y-85773811D01*
X163638370Y-85560069D01*
X163667529Y-85338590D01*
X163669156Y-85272000D01*
X163650852Y-85049361D01*
X163596431Y-84832702D01*
X163507354Y-84627840D01*
X163386014Y-84440277D01*
X163235670Y-84275051D01*
X163231619Y-84271852D01*
X163231615Y-84271848D01*
X163064414Y-84139800D01*
X163064410Y-84139798D01*
X163060359Y-84136598D01*
X162864789Y-84028638D01*
X162859920Y-84026914D01*
X162859916Y-84026912D01*
X162659087Y-83955795D01*
X162659083Y-83955794D01*
X162654212Y-83954069D01*
X162649119Y-83953162D01*
X162649116Y-83953161D01*
X162439373Y-83915800D01*
X162439367Y-83915799D01*
X162434284Y-83914894D01*
X162360452Y-83913992D01*
X162216081Y-83912228D01*
X162216079Y-83912228D01*
X162210911Y-83912165D01*
X161990091Y-83945955D01*
X161777756Y-84015357D01*
X161579607Y-84118507D01*
X161575474Y-84121610D01*
X161575471Y-84121612D01*
X161551247Y-84139800D01*
X161400965Y-84252635D01*
X161246629Y-84414138D01*
X161120743Y-84598680D01*
X161026688Y-84801305D01*
X160966989Y-85016570D01*
X160943251Y-85238695D01*
X160943548Y-85243848D01*
X160943548Y-85243851D01*
X160949011Y-85338590D01*
X160956110Y-85461715D01*
X160957247Y-85466761D01*
X160957248Y-85466767D01*
X160977119Y-85554939D01*
X161005222Y-85679639D01*
X161089266Y-85886616D01*
X161205987Y-86077088D01*
X161352250Y-86245938D01*
X161524126Y-86388632D01*
X161594595Y-86429811D01*
X161597445Y-86431476D01*
X161646169Y-86483114D01*
X161659240Y-86552897D01*
X161632509Y-86618669D01*
X161592055Y-86652027D01*
X161579607Y-86658507D01*
X161575474Y-86661610D01*
X161575471Y-86661612D01*
X161435033Y-86767056D01*
X161400965Y-86792635D01*
X161335346Y-86861301D01*
X161272825Y-86926726D01*
X161246629Y-86954138D01*
X161120743Y-87138680D01*
X161105003Y-87172590D01*
X161047052Y-87297435D01*
X161026688Y-87341305D01*
X160966989Y-87556570D01*
X160943251Y-87778695D01*
X160943548Y-87783853D01*
X160943422Y-87789024D01*
X160941914Y-87788987D01*
X160927411Y-87851482D01*
X160876520Y-87900986D01*
X160806944Y-87915117D01*
X160740773Y-87889389D01*
X160728574Y-87878669D01*
X160690405Y-87840500D01*
X160656379Y-87778188D01*
X160653500Y-87751405D01*
X160653500Y-82926524D01*
X160673502Y-82858403D01*
X160685858Y-82842221D01*
X160759040Y-82760944D01*
X160854527Y-82595556D01*
X160913542Y-82413928D01*
X160925175Y-82303251D01*
X160932814Y-82230565D01*
X160933504Y-82224000D01*
X160925891Y-82151569D01*
X160914232Y-82040635D01*
X160914232Y-82040633D01*
X160913542Y-82034072D01*
X160854527Y-81852444D01*
X160849918Y-81844460D01*
X160809118Y-81773794D01*
X160759040Y-81687056D01*
X160686848Y-81606878D01*
X160635675Y-81550045D01*
X160635674Y-81550044D01*
X160631253Y-81545134D01*
X160519564Y-81463987D01*
X160482094Y-81436763D01*
X160482093Y-81436762D01*
X160476752Y-81432882D01*
X160470724Y-81430198D01*
X160470722Y-81430197D01*
X160308319Y-81357891D01*
X160308318Y-81357891D01*
X160302288Y-81355206D01*
X160202659Y-81334029D01*
X160121944Y-81316872D01*
X160121939Y-81316872D01*
X160115487Y-81315500D01*
X159924513Y-81315500D01*
X159918061Y-81316872D01*
X159918056Y-81316872D01*
X159837341Y-81334029D01*
X159737712Y-81355206D01*
X159731682Y-81357891D01*
X159731681Y-81357891D01*
X159569278Y-81430197D01*
X159569276Y-81430198D01*
X159563248Y-81432882D01*
X159557907Y-81436762D01*
X159557906Y-81436763D01*
X159520436Y-81463987D01*
X159408747Y-81545134D01*
X159404326Y-81550044D01*
X159404325Y-81550045D01*
X159353153Y-81606878D01*
X159280960Y-81687056D01*
X159230882Y-81773794D01*
X159190083Y-81844460D01*
X159185473Y-81852444D01*
X159126458Y-82034072D01*
X159125768Y-82040633D01*
X159125768Y-82040635D01*
X159114109Y-82151569D01*
X159106496Y-82224000D01*
X159107186Y-82230565D01*
X159114826Y-82303251D01*
X159126458Y-82413928D01*
X159185473Y-82595556D01*
X159280960Y-82760944D01*
X159354137Y-82842215D01*
X159384853Y-82906221D01*
X159386500Y-82926524D01*
X159386500Y-87987233D01*
X159385973Y-87998416D01*
X159384298Y-88005909D01*
X159384547Y-88013835D01*
X159384547Y-88013836D01*
X159386438Y-88073986D01*
X159386500Y-88077945D01*
X159386500Y-88105856D01*
X159386997Y-88109790D01*
X159386997Y-88109791D01*
X159387005Y-88109856D01*
X159387938Y-88121693D01*
X159389327Y-88165889D01*
X159391732Y-88174166D01*
X159394978Y-88185339D01*
X159398987Y-88204700D01*
X159401526Y-88224797D01*
X159404445Y-88232168D01*
X159404445Y-88232170D01*
X159417804Y-88265912D01*
X159421649Y-88277142D01*
X159433982Y-88319593D01*
X159438015Y-88326412D01*
X159438017Y-88326417D01*
X159444293Y-88337028D01*
X159452988Y-88354776D01*
X159460448Y-88373617D01*
X159465110Y-88380033D01*
X159465110Y-88380034D01*
X159486436Y-88409387D01*
X159492952Y-88419307D01*
X159510865Y-88449595D01*
X159515458Y-88457362D01*
X159529779Y-88471683D01*
X159542619Y-88486716D01*
X159554528Y-88503107D01*
X159588605Y-88531298D01*
X159597384Y-88539288D01*
X160955778Y-89897682D01*
X160989804Y-89959994D01*
X160988100Y-90020448D01*
X160966989Y-90096570D01*
X160966441Y-90101700D01*
X160966440Y-90101704D01*
X160962933Y-90134522D01*
X160943251Y-90318695D01*
X160943548Y-90323848D01*
X160943548Y-90323851D01*
X160949011Y-90418590D01*
X160956110Y-90541715D01*
X160957247Y-90546761D01*
X160957248Y-90546767D01*
X160961266Y-90564595D01*
X161005222Y-90759639D01*
X161043461Y-90853811D01*
X161084259Y-90954284D01*
X161089266Y-90966616D01*
X161134563Y-91040534D01*
X161202960Y-91152148D01*
X161205987Y-91157088D01*
X161352250Y-91325938D01*
X161524126Y-91468632D01*
X161574031Y-91497794D01*
X161597445Y-91511476D01*
X161646169Y-91563114D01*
X161659240Y-91632897D01*
X161632509Y-91698669D01*
X161592055Y-91732027D01*
X161579607Y-91738507D01*
X161575474Y-91741610D01*
X161575471Y-91741612D01*
X161414723Y-91862305D01*
X161400965Y-91872635D01*
X161397393Y-91876373D01*
X161298494Y-91979865D01*
X161246629Y-92034138D01*
X161243715Y-92038410D01*
X161243714Y-92038411D01*
X161226431Y-92063747D01*
X161120743Y-92218680D01*
X161081249Y-92303763D01*
X161039460Y-92393791D01*
X161026688Y-92421305D01*
X160966989Y-92636570D01*
X160966440Y-92641707D01*
X160946414Y-92829096D01*
X160919286Y-92894706D01*
X160860994Y-92935234D01*
X160790044Y-92937813D01*
X160727492Y-92900019D01*
X160631253Y-92793134D01*
X160476752Y-92680882D01*
X160470724Y-92678198D01*
X160470722Y-92678197D01*
X160308319Y-92605891D01*
X160308318Y-92605891D01*
X160302288Y-92603206D01*
X160208887Y-92583353D01*
X160121944Y-92564872D01*
X160121939Y-92564872D01*
X160115487Y-92563500D01*
X159924513Y-92563500D01*
X159918061Y-92564872D01*
X159918056Y-92564872D01*
X159831113Y-92583353D01*
X159737712Y-92603206D01*
X159731682Y-92605891D01*
X159731681Y-92605891D01*
X159569278Y-92678197D01*
X159569276Y-92678198D01*
X159563248Y-92680882D01*
X159408747Y-92793134D01*
X159404329Y-92798041D01*
X159404325Y-92798045D01*
X159294390Y-92920141D01*
X159280960Y-92935056D01*
X159277659Y-92940774D01*
X159190926Y-93091000D01*
X159185473Y-93100444D01*
X159126458Y-93282072D01*
X159125768Y-93288633D01*
X159125768Y-93288635D01*
X159114714Y-93393811D01*
X159106496Y-93472000D01*
X159107186Y-93478565D01*
X159114683Y-93549891D01*
X159126458Y-93661928D01*
X159185473Y-93843556D01*
X159280960Y-94008944D01*
X159285378Y-94013851D01*
X159285379Y-94013852D01*
X159334838Y-94068782D01*
X159408747Y-94150866D01*
X159563248Y-94263118D01*
X159569276Y-94265802D01*
X159569278Y-94265803D01*
X159672794Y-94311891D01*
X159737712Y-94340794D01*
X159831113Y-94360647D01*
X159918056Y-94379128D01*
X159918061Y-94379128D01*
X159924513Y-94380500D01*
X159980405Y-94380500D01*
X160048526Y-94400502D01*
X160069500Y-94417405D01*
X160111595Y-94459500D01*
X160145621Y-94521812D01*
X160148500Y-94548595D01*
X160148500Y-101318611D01*
X160128498Y-101386732D01*
X160074842Y-101433225D01*
X160004568Y-101443329D01*
X159969250Y-101432806D01*
X159847178Y-101375883D01*
X159847177Y-101375882D01*
X159842196Y-101373560D01*
X159836888Y-101372138D01*
X159836886Y-101372137D01*
X159771051Y-101354497D01*
X159627463Y-101316022D01*
X159406000Y-101296647D01*
X159184537Y-101316022D01*
X159040949Y-101354497D01*
X158975114Y-101372137D01*
X158975112Y-101372138D01*
X158969804Y-101373560D01*
X158964823Y-101375882D01*
X158964822Y-101375883D01*
X158773311Y-101465186D01*
X158773306Y-101465189D01*
X158768324Y-101467512D01*
X158763817Y-101470668D01*
X158763815Y-101470669D01*
X158590730Y-101591864D01*
X158590727Y-101591866D01*
X158586219Y-101595023D01*
X158429023Y-101752219D01*
X158425866Y-101756727D01*
X158425864Y-101756730D01*
X158321363Y-101905974D01*
X158301512Y-101934324D01*
X158299189Y-101939306D01*
X158299186Y-101939311D01*
X158250195Y-102044373D01*
X158203277Y-102097658D01*
X158135000Y-102117119D01*
X158067040Y-102096577D01*
X158021805Y-102044373D01*
X157972814Y-101939311D01*
X157972811Y-101939306D01*
X157970488Y-101934324D01*
X157950637Y-101905974D01*
X157846136Y-101756730D01*
X157846134Y-101756727D01*
X157842977Y-101752219D01*
X157685781Y-101595023D01*
X157681273Y-101591866D01*
X157681270Y-101591864D01*
X157605505Y-101538813D01*
X157503677Y-101467512D01*
X157498695Y-101465189D01*
X157498690Y-101465186D01*
X157307178Y-101375883D01*
X157307177Y-101375882D01*
X157302196Y-101373560D01*
X157296888Y-101372138D01*
X157296886Y-101372137D01*
X157231051Y-101354497D01*
X157087463Y-101316022D01*
X156866000Y-101296647D01*
X156644537Y-101316022D01*
X156500949Y-101354497D01*
X156435114Y-101372137D01*
X156435112Y-101372138D01*
X156429804Y-101373560D01*
X156424823Y-101375882D01*
X156424822Y-101375883D01*
X156233311Y-101465186D01*
X156233306Y-101465189D01*
X156228324Y-101467512D01*
X156223817Y-101470668D01*
X156223815Y-101470669D01*
X156050730Y-101591864D01*
X156050727Y-101591866D01*
X156046219Y-101595023D01*
X155889023Y-101752219D01*
X155885866Y-101756727D01*
X155885864Y-101756730D01*
X155781363Y-101905974D01*
X155761512Y-101934324D01*
X155759189Y-101939306D01*
X155759186Y-101939311D01*
X155710195Y-102044373D01*
X155663277Y-102097658D01*
X155595000Y-102117119D01*
X155527040Y-102096577D01*
X155481805Y-102044373D01*
X155432814Y-101939311D01*
X155432811Y-101939306D01*
X155430488Y-101934324D01*
X155410637Y-101905974D01*
X155306136Y-101756730D01*
X155306134Y-101756727D01*
X155302977Y-101752219D01*
X155145781Y-101595023D01*
X155141273Y-101591866D01*
X155141270Y-101591864D01*
X155060275Y-101535151D01*
X155013229Y-101502209D01*
X154968901Y-101446752D01*
X154959500Y-101398996D01*
X154959500Y-95219916D01*
X154979502Y-95151795D01*
X155011440Y-95117980D01*
X155037905Y-95098753D01*
X155037913Y-95098745D01*
X155043253Y-95094866D01*
X155139517Y-94987954D01*
X155166621Y-94957852D01*
X155166622Y-94957851D01*
X155171040Y-94952944D01*
X155229314Y-94852010D01*
X155263223Y-94793279D01*
X155263224Y-94793278D01*
X155266527Y-94787556D01*
X155325542Y-94605928D01*
X155326538Y-94596457D01*
X155344814Y-94422565D01*
X155345504Y-94416000D01*
X155337600Y-94340794D01*
X155326232Y-94232635D01*
X155326232Y-94232633D01*
X155325542Y-94226072D01*
X155266527Y-94044444D01*
X155171040Y-93879056D01*
X155043253Y-93737134D01*
X154888752Y-93624882D01*
X154882724Y-93622198D01*
X154882722Y-93622197D01*
X154720319Y-93549891D01*
X154720318Y-93549891D01*
X154714288Y-93547206D01*
X154620887Y-93527353D01*
X154533944Y-93508872D01*
X154533939Y-93508872D01*
X154527487Y-93507500D01*
X154336513Y-93507500D01*
X154330061Y-93508872D01*
X154330056Y-93508872D01*
X154243113Y-93527353D01*
X154149712Y-93547206D01*
X154143682Y-93549891D01*
X154143681Y-93549891D01*
X153979915Y-93622804D01*
X153975248Y-93624882D01*
X153974323Y-93622804D01*
X153915512Y-93637076D01*
X153848419Y-93613859D01*
X153804528Y-93558055D01*
X153795500Y-93511218D01*
X153795500Y-93042763D01*
X153796027Y-93031579D01*
X153797701Y-93024091D01*
X153795562Y-92956032D01*
X153795500Y-92952075D01*
X153795500Y-92924144D01*
X153794994Y-92920138D01*
X153794061Y-92908292D01*
X153794041Y-92907635D01*
X153792673Y-92864110D01*
X153787022Y-92844658D01*
X153783014Y-92825306D01*
X153781468Y-92813068D01*
X153781467Y-92813066D01*
X153780474Y-92805203D01*
X153764194Y-92764086D01*
X153760359Y-92752885D01*
X153748018Y-92710406D01*
X153743985Y-92703587D01*
X153743983Y-92703582D01*
X153737707Y-92692971D01*
X153729010Y-92675221D01*
X153721552Y-92656383D01*
X153695571Y-92620623D01*
X153689053Y-92610701D01*
X153670578Y-92579460D01*
X153670574Y-92579455D01*
X153666542Y-92572637D01*
X153652218Y-92558313D01*
X153639376Y-92543278D01*
X153627472Y-92526893D01*
X153593406Y-92498711D01*
X153584627Y-92490722D01*
X153157652Y-92063747D01*
X153150112Y-92055461D01*
X153146000Y-92048982D01*
X153096348Y-92002356D01*
X153093507Y-91999602D01*
X153073770Y-91979865D01*
X153070573Y-91977385D01*
X153061551Y-91969680D01*
X153035100Y-91944841D01*
X153029321Y-91939414D01*
X153022375Y-91935595D01*
X153022372Y-91935593D01*
X153011566Y-91929652D01*
X152995048Y-91918802D01*
X152979823Y-91906992D01*
X152938255Y-91849439D01*
X152934401Y-91778547D01*
X152969487Y-91716825D01*
X153027526Y-91684938D01*
X153034057Y-91683364D01*
X153048534Y-91679875D01*
X153053992Y-91677393D01*
X153053996Y-91677392D01*
X153177705Y-91621144D01*
X153241087Y-91592326D01*
X153413611Y-91469946D01*
X153554813Y-91322444D01*
X153555736Y-91321480D01*
X153559881Y-91317150D01*
X153575610Y-91292791D01*
X153580746Y-91284837D01*
X153634501Y-91238460D01*
X153704797Y-91228507D01*
X153769314Y-91258139D01*
X153785681Y-91275351D01*
X153879604Y-91394920D01*
X153884135Y-91398852D01*
X153884138Y-91398855D01*
X154013923Y-91511476D01*
X154039363Y-91533552D01*
X154044549Y-91536552D01*
X154044553Y-91536555D01*
X154140957Y-91592326D01*
X154222454Y-91639473D01*
X154422271Y-91708861D01*
X154428206Y-91709722D01*
X154428208Y-91709722D01*
X154625664Y-91738352D01*
X154625667Y-91738352D01*
X154631604Y-91739213D01*
X154842899Y-91729433D01*
X154989924Y-91694000D01*
X155042701Y-91681281D01*
X155042703Y-91681280D01*
X155048534Y-91679875D01*
X155053992Y-91677393D01*
X155053996Y-91677392D01*
X155177705Y-91621144D01*
X155241087Y-91592326D01*
X155413611Y-91469946D01*
X155417753Y-91465619D01*
X155417759Y-91465614D01*
X155504806Y-91374683D01*
X155566361Y-91339306D01*
X155637270Y-91342825D01*
X155695021Y-91384121D01*
X155702965Y-91395504D01*
X155737522Y-91451348D01*
X155862697Y-91576305D01*
X155868927Y-91580145D01*
X155868928Y-91580146D01*
X156006090Y-91664694D01*
X156013262Y-91669115D01*
X156081098Y-91691615D01*
X156174611Y-91722632D01*
X156174613Y-91722632D01*
X156181139Y-91724797D01*
X156187975Y-91725497D01*
X156187978Y-91725498D01*
X156226386Y-91729433D01*
X156285600Y-91735500D01*
X157086400Y-91735500D01*
X157089646Y-91735163D01*
X157089650Y-91735163D01*
X157185308Y-91725238D01*
X157185312Y-91725237D01*
X157192166Y-91724526D01*
X157198702Y-91722345D01*
X157198704Y-91722345D01*
X157334867Y-91676917D01*
X157359946Y-91668550D01*
X157510348Y-91575478D01*
X157635305Y-91450303D01*
X157672767Y-91389529D01*
X157724275Y-91305968D01*
X157724276Y-91305966D01*
X157728115Y-91299738D01*
X157773544Y-91162774D01*
X157781632Y-91138389D01*
X157781632Y-91138387D01*
X157783797Y-91131861D01*
X157794500Y-91027400D01*
X157794500Y-89676600D01*
X157783526Y-89570834D01*
X157779749Y-89559511D01*
X157729868Y-89410002D01*
X157727550Y-89403054D01*
X157634478Y-89252652D01*
X157509303Y-89127695D01*
X157503072Y-89123854D01*
X157379384Y-89047611D01*
X157331890Y-88994838D01*
X157319500Y-88940351D01*
X157319500Y-83540768D01*
X157320027Y-83529585D01*
X157321702Y-83522092D01*
X157319562Y-83454001D01*
X157319500Y-83450044D01*
X157319500Y-83422144D01*
X157318996Y-83418153D01*
X157318063Y-83406311D01*
X157316923Y-83370036D01*
X157316674Y-83362111D01*
X157311021Y-83342652D01*
X157307012Y-83323293D01*
X157306846Y-83321983D01*
X157304474Y-83303203D01*
X157301558Y-83295837D01*
X157301556Y-83295831D01*
X157288200Y-83262098D01*
X157284355Y-83250868D01*
X157274230Y-83216017D01*
X157274230Y-83216016D01*
X157272019Y-83208407D01*
X157261705Y-83190966D01*
X157253008Y-83173213D01*
X157248472Y-83161758D01*
X157245552Y-83154383D01*
X157219563Y-83118612D01*
X157213047Y-83108692D01*
X157206701Y-83097961D01*
X157190542Y-83070638D01*
X157176221Y-83056317D01*
X157163380Y-83041283D01*
X157156131Y-83031306D01*
X157151472Y-83024893D01*
X157151714Y-83024717D01*
X157121730Y-82965451D01*
X157120322Y-82955722D01*
X157104232Y-82802635D01*
X157104232Y-82802633D01*
X157103542Y-82796072D01*
X157044527Y-82614444D01*
X157011809Y-82557774D01*
X156952341Y-82454774D01*
X156949040Y-82449056D01*
X156923064Y-82420206D01*
X156825675Y-82312045D01*
X156825674Y-82312044D01*
X156821253Y-82307134D01*
X156700897Y-82219690D01*
X156672094Y-82198763D01*
X156672093Y-82198762D01*
X156666752Y-82194882D01*
X156660724Y-82192198D01*
X156660722Y-82192197D01*
X156498319Y-82119891D01*
X156498318Y-82119891D01*
X156492288Y-82117206D01*
X156398887Y-82097353D01*
X156311944Y-82078872D01*
X156311939Y-82078872D01*
X156305487Y-82077500D01*
X156114513Y-82077500D01*
X156108061Y-82078872D01*
X156108056Y-82078872D01*
X156021113Y-82097353D01*
X155927712Y-82117206D01*
X155921682Y-82119891D01*
X155921681Y-82119891D01*
X155759278Y-82192197D01*
X155759276Y-82192198D01*
X155753248Y-82194882D01*
X155747907Y-82198762D01*
X155747906Y-82198763D01*
X155719103Y-82219690D01*
X155598747Y-82307134D01*
X155594326Y-82312044D01*
X155594325Y-82312045D01*
X155496937Y-82420206D01*
X155470960Y-82449056D01*
X155467659Y-82454774D01*
X155408192Y-82557774D01*
X155375473Y-82614444D01*
X155316458Y-82796072D01*
X155315768Y-82802633D01*
X155315768Y-82802635D01*
X155306800Y-82887960D01*
X155296496Y-82986000D01*
X155297186Y-82992565D01*
X155314969Y-83161758D01*
X155316458Y-83175928D01*
X155375473Y-83357556D01*
X155470960Y-83522944D01*
X155598747Y-83664866D01*
X155753248Y-83777118D01*
X155759276Y-83779802D01*
X155759278Y-83779803D01*
X155859878Y-83824593D01*
X155927712Y-83854794D01*
X155952698Y-83860105D01*
X156015171Y-83893833D01*
X156049492Y-83955983D01*
X156052500Y-83983351D01*
X156052500Y-88940219D01*
X156032498Y-89008340D01*
X155992803Y-89047363D01*
X155861652Y-89128522D01*
X155736695Y-89253697D01*
X155732855Y-89259927D01*
X155732854Y-89259928D01*
X155704926Y-89305236D01*
X155652154Y-89352729D01*
X155582082Y-89364153D01*
X155516958Y-89335879D01*
X155498582Y-89316955D01*
X155492396Y-89309080D01*
X155487865Y-89305148D01*
X155487862Y-89305145D01*
X155337167Y-89174379D01*
X155332637Y-89170448D01*
X155327451Y-89167448D01*
X155327447Y-89167445D01*
X155154742Y-89067533D01*
X155149546Y-89064527D01*
X155143878Y-89062559D01*
X155143872Y-89062556D01*
X155023579Y-89020783D01*
X154965790Y-88979542D01*
X154939471Y-88913604D01*
X154940465Y-88882043D01*
X154946099Y-88846476D01*
X154948505Y-88834856D01*
X154957528Y-88799711D01*
X154957528Y-88799710D01*
X154959500Y-88792030D01*
X154959500Y-88771776D01*
X154961051Y-88752065D01*
X154962980Y-88739886D01*
X154964220Y-88732057D01*
X154960059Y-88688038D01*
X154959500Y-88676181D01*
X154959500Y-81022069D01*
X161305994Y-81022069D01*
X161333241Y-81247219D01*
X161334891Y-81252581D01*
X161334891Y-81252583D01*
X161356616Y-81323200D01*
X161399927Y-81463987D01*
X161503946Y-81665519D01*
X161642009Y-81845447D01*
X161675825Y-81876217D01*
X161805605Y-81994308D01*
X161805608Y-81994310D01*
X161809752Y-81998081D01*
X161814503Y-82001062D01*
X161814504Y-82001062D01*
X161997118Y-82115616D01*
X161997122Y-82115618D01*
X162001874Y-82118599D01*
X162212301Y-82203190D01*
X162434382Y-82249181D01*
X162438993Y-82249447D01*
X162438994Y-82249447D01*
X162490121Y-82252395D01*
X162490125Y-82252395D01*
X162491944Y-82252500D01*
X162638535Y-82252500D01*
X162641322Y-82252251D01*
X162641328Y-82252251D01*
X162711506Y-82245987D01*
X162806895Y-82237474D01*
X163025651Y-82177630D01*
X163030709Y-82175218D01*
X163030713Y-82175216D01*
X163225284Y-82082410D01*
X163225285Y-82082409D01*
X163230351Y-82079993D01*
X163234913Y-82076715D01*
X163409966Y-81950926D01*
X163409968Y-81950924D01*
X163414526Y-81947649D01*
X163540219Y-81817945D01*
X163568452Y-81788811D01*
X163568454Y-81788808D01*
X163572355Y-81784783D01*
X163634182Y-81692774D01*
X163695721Y-81601195D01*
X163695724Y-81601190D01*
X163698847Y-81596542D01*
X163723119Y-81541251D01*
X163770613Y-81433056D01*
X163790007Y-81388876D01*
X163815549Y-81282485D01*
X163821332Y-81258399D01*
X173197304Y-81258399D01*
X173197711Y-81265451D01*
X173213457Y-81538539D01*
X173214282Y-81542746D01*
X173214283Y-81542751D01*
X173237392Y-81660536D01*
X173267480Y-81813894D01*
X173358372Y-82079371D01*
X173484454Y-82330055D01*
X173643390Y-82561309D01*
X173646277Y-82564482D01*
X173646278Y-82564483D01*
X173674552Y-82595556D01*
X173832241Y-82768853D01*
X173835530Y-82771603D01*
X174044219Y-82946096D01*
X174044224Y-82946100D01*
X174047511Y-82948848D01*
X174110363Y-82988275D01*
X174281578Y-83095678D01*
X174281582Y-83095680D01*
X174285218Y-83097961D01*
X174351043Y-83127682D01*
X174537050Y-83211668D01*
X174537054Y-83211670D01*
X174540962Y-83213434D01*
X174545082Y-83214654D01*
X174545081Y-83214654D01*
X174805899Y-83291912D01*
X174805903Y-83291913D01*
X174810012Y-83293130D01*
X174814246Y-83293778D01*
X174814251Y-83293779D01*
X175083147Y-83334925D01*
X175083149Y-83334925D01*
X175087389Y-83335574D01*
X175230199Y-83337818D01*
X175363668Y-83339915D01*
X175363674Y-83339915D01*
X175367959Y-83339982D01*
X175646532Y-83306271D01*
X175917952Y-83235065D01*
X176177197Y-83127682D01*
X176192719Y-83118612D01*
X176415764Y-82988275D01*
X176419471Y-82986109D01*
X176640289Y-82812966D01*
X176650301Y-82802635D01*
X176832582Y-82614534D01*
X176835565Y-82611456D01*
X176838098Y-82608008D01*
X176838102Y-82608003D01*
X176999149Y-82388763D01*
X177001687Y-82385308D01*
X177022335Y-82347279D01*
X177133530Y-82142484D01*
X177133531Y-82142482D01*
X177135580Y-82138708D01*
X177234767Y-81876217D01*
X177279215Y-81682148D01*
X177296454Y-81606878D01*
X177296455Y-81606874D01*
X177297412Y-81602694D01*
X177298420Y-81591406D01*
X177322137Y-81325665D01*
X177322357Y-81323200D01*
X177322809Y-81280000D01*
X177321629Y-81262682D01*
X177315570Y-81173808D01*
X177303724Y-81000045D01*
X177302857Y-80995859D01*
X177302856Y-80995851D01*
X177247689Y-80729467D01*
X177246820Y-80725270D01*
X177176705Y-80527270D01*
X177154584Y-80464801D01*
X177153153Y-80460760D01*
X177024453Y-80211409D01*
X177007596Y-80187423D01*
X176905940Y-80042782D01*
X176863104Y-79981832D01*
X176734378Y-79843307D01*
X176675011Y-79779420D01*
X176675008Y-79779418D01*
X176672090Y-79776277D01*
X176454946Y-79598547D01*
X176405445Y-79568213D01*
X176219341Y-79454167D01*
X176219333Y-79454163D01*
X176215691Y-79451931D01*
X176211774Y-79450212D01*
X176211771Y-79450210D01*
X176098591Y-79400528D01*
X175958752Y-79339143D01*
X175954624Y-79337967D01*
X175954621Y-79337966D01*
X175693010Y-79263444D01*
X175693011Y-79263444D01*
X175688882Y-79262268D01*
X175481487Y-79232752D01*
X175415328Y-79223336D01*
X175415326Y-79223336D01*
X175411076Y-79222731D01*
X175406787Y-79222709D01*
X175406780Y-79222708D01*
X175134761Y-79221283D01*
X175134754Y-79221283D01*
X175130475Y-79221261D01*
X175126230Y-79221820D01*
X175126228Y-79221820D01*
X175063034Y-79230140D01*
X174852271Y-79257888D01*
X174581611Y-79331932D01*
X174564705Y-79339143D01*
X174327446Y-79440342D01*
X174327439Y-79440346D01*
X174323504Y-79442024D01*
X174082727Y-79586126D01*
X174079376Y-79588810D01*
X174079374Y-79588812D01*
X174067223Y-79598547D01*
X173863734Y-79761572D01*
X173781353Y-79848384D01*
X173700616Y-79933463D01*
X173670578Y-79965116D01*
X173506834Y-80192991D01*
X173375530Y-80440980D01*
X173279098Y-80704495D01*
X173219320Y-80978659D01*
X173197304Y-81258399D01*
X163821332Y-81258399D01*
X163841640Y-81173808D01*
X163841641Y-81173802D01*
X163842950Y-81168349D01*
X163853387Y-80987353D01*
X163855683Y-80947537D01*
X163855683Y-80947534D01*
X163856006Y-80941931D01*
X163828759Y-80716781D01*
X163824980Y-80704495D01*
X163763722Y-80505374D01*
X163762073Y-80500013D01*
X163658054Y-80298481D01*
X163519991Y-80118553D01*
X163404071Y-80013074D01*
X163356395Y-79969692D01*
X163356392Y-79969690D01*
X163352248Y-79965919D01*
X163346012Y-79962007D01*
X163164882Y-79848384D01*
X163164878Y-79848382D01*
X163160126Y-79845401D01*
X162949699Y-79760810D01*
X162727618Y-79714819D01*
X162723007Y-79714553D01*
X162723006Y-79714553D01*
X162671879Y-79711605D01*
X162671875Y-79711605D01*
X162670056Y-79711500D01*
X162523465Y-79711500D01*
X162520678Y-79711749D01*
X162520672Y-79711749D01*
X162450494Y-79718013D01*
X162355105Y-79726526D01*
X162136349Y-79786370D01*
X162131291Y-79788782D01*
X162131287Y-79788784D01*
X162006334Y-79848384D01*
X161931649Y-79884007D01*
X161927088Y-79887284D01*
X161927087Y-79887285D01*
X161813932Y-79968596D01*
X161747474Y-80016351D01*
X161674446Y-80091710D01*
X161602530Y-80165921D01*
X161589645Y-80179217D01*
X161577833Y-80196795D01*
X161466279Y-80362805D01*
X161466276Y-80362810D01*
X161463153Y-80367458D01*
X161460900Y-80372590D01*
X161460898Y-80372594D01*
X161430879Y-80440980D01*
X161371993Y-80575124D01*
X161370683Y-80580581D01*
X161320360Y-80790192D01*
X161320359Y-80790198D01*
X161319050Y-80795651D01*
X161313898Y-80885004D01*
X161307018Y-81004319D01*
X161305994Y-81022069D01*
X154959500Y-81022069D01*
X154959500Y-80885004D01*
X154979502Y-80816883D01*
X155013229Y-80781791D01*
X155141270Y-80692136D01*
X155141273Y-80692134D01*
X155145781Y-80688977D01*
X155302977Y-80531781D01*
X155321468Y-80505374D01*
X155427331Y-80354185D01*
X155427332Y-80354183D01*
X155430488Y-80349676D01*
X155432811Y-80344694D01*
X155432814Y-80344689D01*
X155481805Y-80239627D01*
X155528723Y-80186342D01*
X155597000Y-80166881D01*
X155664960Y-80187423D01*
X155710195Y-80239627D01*
X155759186Y-80344689D01*
X155759189Y-80344694D01*
X155761512Y-80349676D01*
X155764668Y-80354183D01*
X155764669Y-80354185D01*
X155870533Y-80505374D01*
X155889023Y-80531781D01*
X156046219Y-80688977D01*
X156050727Y-80692134D01*
X156050730Y-80692136D01*
X156126495Y-80745187D01*
X156228323Y-80816488D01*
X156233305Y-80818811D01*
X156233310Y-80818814D01*
X156375256Y-80885004D01*
X156429804Y-80910440D01*
X156435112Y-80911862D01*
X156435114Y-80911863D01*
X156500949Y-80929503D01*
X156644537Y-80967978D01*
X156866000Y-80987353D01*
X157087463Y-80967978D01*
X157231051Y-80929503D01*
X157296886Y-80911863D01*
X157296888Y-80911862D01*
X157302196Y-80910440D01*
X157356744Y-80885004D01*
X157498690Y-80818814D01*
X157498695Y-80818811D01*
X157503677Y-80816488D01*
X157605505Y-80745187D01*
X157681270Y-80692136D01*
X157681273Y-80692134D01*
X157685781Y-80688977D01*
X157842977Y-80531781D01*
X157861468Y-80505374D01*
X157967331Y-80354185D01*
X157967332Y-80354183D01*
X157970488Y-80349676D01*
X157972811Y-80344694D01*
X157972814Y-80344689D01*
X158021805Y-80239627D01*
X158068723Y-80186342D01*
X158137000Y-80166881D01*
X158204960Y-80187423D01*
X158250195Y-80239627D01*
X158299186Y-80344689D01*
X158299189Y-80344694D01*
X158301512Y-80349676D01*
X158304668Y-80354183D01*
X158304669Y-80354185D01*
X158410533Y-80505374D01*
X158429023Y-80531781D01*
X158586219Y-80688977D01*
X158590727Y-80692134D01*
X158590730Y-80692136D01*
X158666495Y-80745187D01*
X158768323Y-80816488D01*
X158773305Y-80818811D01*
X158773310Y-80818814D01*
X158915256Y-80885004D01*
X158969804Y-80910440D01*
X158975112Y-80911862D01*
X158975114Y-80911863D01*
X159040949Y-80929503D01*
X159184537Y-80967978D01*
X159406000Y-80987353D01*
X159627463Y-80967978D01*
X159771051Y-80929503D01*
X159836886Y-80911863D01*
X159836888Y-80911862D01*
X159842196Y-80910440D01*
X159896744Y-80885004D01*
X160038690Y-80818814D01*
X160038695Y-80818811D01*
X160043677Y-80816488D01*
X160145505Y-80745187D01*
X160221270Y-80692136D01*
X160221273Y-80692134D01*
X160225781Y-80688977D01*
X160382977Y-80531781D01*
X160401468Y-80505374D01*
X160507331Y-80354185D01*
X160507332Y-80354183D01*
X160510488Y-80349676D01*
X160512811Y-80344694D01*
X160512814Y-80344689D01*
X160602117Y-80153178D01*
X160602118Y-80153177D01*
X160604440Y-80148196D01*
X160661978Y-79933463D01*
X160681353Y-79712000D01*
X160661978Y-79490537D01*
X160604440Y-79275804D01*
X160602117Y-79270822D01*
X160512814Y-79079311D01*
X160512811Y-79079306D01*
X160510488Y-79074324D01*
X160382977Y-78892219D01*
X160225781Y-78735023D01*
X160221273Y-78731866D01*
X160221270Y-78731864D01*
X160145505Y-78678813D01*
X160043677Y-78607512D01*
X160038695Y-78605189D01*
X160038690Y-78605186D01*
X159847178Y-78515883D01*
X159847177Y-78515882D01*
X159842196Y-78513560D01*
X159836888Y-78512138D01*
X159836886Y-78512137D01*
X159771051Y-78494497D01*
X159627463Y-78456022D01*
X159406000Y-78436647D01*
X159184537Y-78456022D01*
X159040949Y-78494497D01*
X158975114Y-78512137D01*
X158975112Y-78512138D01*
X158969804Y-78513560D01*
X158964823Y-78515882D01*
X158964822Y-78515883D01*
X158773311Y-78605186D01*
X158773306Y-78605189D01*
X158768324Y-78607512D01*
X158763817Y-78610668D01*
X158763815Y-78610669D01*
X158590730Y-78731864D01*
X158590727Y-78731866D01*
X158586219Y-78735023D01*
X158429023Y-78892219D01*
X158301512Y-79074324D01*
X158299189Y-79079306D01*
X158299186Y-79079311D01*
X158250195Y-79184373D01*
X158203277Y-79237658D01*
X158135000Y-79257119D01*
X158067040Y-79236577D01*
X158021805Y-79184373D01*
X157972814Y-79079311D01*
X157972811Y-79079306D01*
X157970488Y-79074324D01*
X157842977Y-78892219D01*
X157685781Y-78735023D01*
X157681273Y-78731866D01*
X157681270Y-78731864D01*
X157605505Y-78678813D01*
X157503677Y-78607512D01*
X157498695Y-78605189D01*
X157498690Y-78605186D01*
X157307178Y-78515883D01*
X157307177Y-78515882D01*
X157302196Y-78513560D01*
X157296888Y-78512138D01*
X157296886Y-78512137D01*
X157231051Y-78494497D01*
X157087463Y-78456022D01*
X156866000Y-78436647D01*
X156644537Y-78456022D01*
X156500949Y-78494497D01*
X156435114Y-78512137D01*
X156435112Y-78512138D01*
X156429804Y-78513560D01*
X156424823Y-78515882D01*
X156424822Y-78515883D01*
X156233311Y-78605186D01*
X156233306Y-78605189D01*
X156228324Y-78607512D01*
X156223817Y-78610668D01*
X156223815Y-78610669D01*
X156050730Y-78731864D01*
X156050727Y-78731866D01*
X156046219Y-78735023D01*
X155889023Y-78892219D01*
X155761512Y-79074324D01*
X155759189Y-79079306D01*
X155759186Y-79079311D01*
X155710195Y-79184373D01*
X155663277Y-79237658D01*
X155595000Y-79257119D01*
X155527040Y-79236577D01*
X155481805Y-79184373D01*
X155432814Y-79079311D01*
X155432811Y-79079306D01*
X155430488Y-79074324D01*
X155302977Y-78892219D01*
X155145781Y-78735023D01*
X155141273Y-78731866D01*
X155141270Y-78731864D01*
X155065505Y-78678813D01*
X154963677Y-78607512D01*
X154958695Y-78605189D01*
X154958690Y-78605186D01*
X154767178Y-78515883D01*
X154767177Y-78515882D01*
X154762196Y-78513560D01*
X154756888Y-78512138D01*
X154756886Y-78512137D01*
X154691051Y-78494497D01*
X154547463Y-78456022D01*
X154326000Y-78436647D01*
X154104537Y-78456022D01*
X153960949Y-78494497D01*
X153895114Y-78512137D01*
X153895112Y-78512138D01*
X153889804Y-78513560D01*
X153884823Y-78515882D01*
X153884822Y-78515883D01*
X153693311Y-78605186D01*
X153693306Y-78605189D01*
X153688324Y-78607512D01*
X153683817Y-78610668D01*
X153683815Y-78610669D01*
X153510730Y-78731864D01*
X153510727Y-78731866D01*
X153506219Y-78735023D01*
X153349023Y-78892219D01*
X153221512Y-79074324D01*
X153219189Y-79079306D01*
X153219186Y-79079311D01*
X153170195Y-79184373D01*
X153123277Y-79237658D01*
X153055000Y-79257119D01*
X152987040Y-79236577D01*
X152941805Y-79184373D01*
X152892814Y-79079311D01*
X152892811Y-79079306D01*
X152890488Y-79074324D01*
X152762977Y-78892219D01*
X152605781Y-78735023D01*
X152601273Y-78731866D01*
X152601270Y-78731864D01*
X152525505Y-78678813D01*
X152423677Y-78607512D01*
X152418695Y-78605189D01*
X152418690Y-78605186D01*
X152227178Y-78515883D01*
X152227177Y-78515882D01*
X152222196Y-78513560D01*
X152216888Y-78512138D01*
X152216886Y-78512137D01*
X152151051Y-78494497D01*
X152007463Y-78456022D01*
X151786000Y-78436647D01*
X151564537Y-78456022D01*
X151420949Y-78494497D01*
X151355114Y-78512137D01*
X151355112Y-78512138D01*
X151349804Y-78513560D01*
X151344823Y-78515882D01*
X151344822Y-78515883D01*
X151153311Y-78605186D01*
X151153306Y-78605189D01*
X151148324Y-78607512D01*
X151143817Y-78610668D01*
X151143815Y-78610669D01*
X150970730Y-78731864D01*
X150970727Y-78731866D01*
X150966219Y-78735023D01*
X150809023Y-78892219D01*
X150681512Y-79074324D01*
X150679189Y-79079306D01*
X150679186Y-79079311D01*
X150630195Y-79184373D01*
X150583277Y-79237658D01*
X150515000Y-79257119D01*
X150447040Y-79236577D01*
X150401805Y-79184373D01*
X150352814Y-79079311D01*
X150352811Y-79079306D01*
X150350488Y-79074324D01*
X150222977Y-78892219D01*
X150065781Y-78735023D01*
X150061273Y-78731866D01*
X150061270Y-78731864D01*
X149985505Y-78678813D01*
X149883677Y-78607512D01*
X149878695Y-78605189D01*
X149878690Y-78605186D01*
X149687178Y-78515883D01*
X149687177Y-78515882D01*
X149682196Y-78513560D01*
X149676888Y-78512138D01*
X149676886Y-78512137D01*
X149611051Y-78494497D01*
X149467463Y-78456022D01*
X149246000Y-78436647D01*
X149024537Y-78456022D01*
X148880949Y-78494497D01*
X148815114Y-78512137D01*
X148815112Y-78512138D01*
X148809804Y-78513560D01*
X148804823Y-78515882D01*
X148804822Y-78515883D01*
X148613311Y-78605186D01*
X148613306Y-78605189D01*
X148608324Y-78607512D01*
X148603817Y-78610668D01*
X148603815Y-78610669D01*
X148430730Y-78731864D01*
X148430727Y-78731866D01*
X148426219Y-78735023D01*
X148269023Y-78892219D01*
X148141512Y-79074324D01*
X148139189Y-79079306D01*
X148139186Y-79079311D01*
X148090195Y-79184373D01*
X148043277Y-79237658D01*
X147975000Y-79257119D01*
X147907040Y-79236577D01*
X147861805Y-79184373D01*
X147812814Y-79079311D01*
X147812811Y-79079306D01*
X147810488Y-79074324D01*
X147682977Y-78892219D01*
X147525781Y-78735023D01*
X147521273Y-78731866D01*
X147521270Y-78731864D01*
X147445505Y-78678813D01*
X147343677Y-78607512D01*
X147338695Y-78605189D01*
X147338690Y-78605186D01*
X147147178Y-78515883D01*
X147147177Y-78515882D01*
X147142196Y-78513560D01*
X147136888Y-78512138D01*
X147136886Y-78512137D01*
X147071051Y-78494497D01*
X146927463Y-78456022D01*
X146706000Y-78436647D01*
X146484537Y-78456022D01*
X146340949Y-78494497D01*
X146275114Y-78512137D01*
X146275112Y-78512138D01*
X146269804Y-78513560D01*
X146264823Y-78515882D01*
X146264822Y-78515883D01*
X146073311Y-78605186D01*
X146073306Y-78605189D01*
X146068324Y-78607512D01*
X146063817Y-78610668D01*
X146063815Y-78610669D01*
X145890730Y-78731864D01*
X145890727Y-78731866D01*
X145886219Y-78735023D01*
X145729023Y-78892219D01*
X145601512Y-79074324D01*
X145599189Y-79079306D01*
X145599186Y-79079311D01*
X145550195Y-79184373D01*
X145503277Y-79237658D01*
X145435000Y-79257119D01*
X145367040Y-79236577D01*
X145321805Y-79184373D01*
X145272814Y-79079311D01*
X145272811Y-79079306D01*
X145270488Y-79074324D01*
X145142977Y-78892219D01*
X144985781Y-78735023D01*
X144981273Y-78731866D01*
X144981270Y-78731864D01*
X144905505Y-78678813D01*
X144803677Y-78607512D01*
X144798695Y-78605189D01*
X144798690Y-78605186D01*
X144607178Y-78515883D01*
X144607177Y-78515882D01*
X144602196Y-78513560D01*
X144596888Y-78512138D01*
X144596886Y-78512137D01*
X144531051Y-78494497D01*
X144387463Y-78456022D01*
X144166000Y-78436647D01*
X143944537Y-78456022D01*
X143800949Y-78494497D01*
X143735114Y-78512137D01*
X143735112Y-78512138D01*
X143729804Y-78513560D01*
X143724823Y-78515882D01*
X143724822Y-78515883D01*
X143533311Y-78605186D01*
X143533306Y-78605189D01*
X143528324Y-78607512D01*
X143523817Y-78610668D01*
X143523815Y-78610669D01*
X143350730Y-78731864D01*
X143350727Y-78731866D01*
X143346219Y-78735023D01*
X143189023Y-78892219D01*
X143061512Y-79074324D01*
X143059189Y-79079306D01*
X143059186Y-79079311D01*
X143010195Y-79184373D01*
X142963277Y-79237658D01*
X142895000Y-79257119D01*
X142827040Y-79236577D01*
X142781805Y-79184373D01*
X142732814Y-79079311D01*
X142732811Y-79079306D01*
X142730488Y-79074324D01*
X142602977Y-78892219D01*
X142445781Y-78735023D01*
X142441273Y-78731866D01*
X142441270Y-78731864D01*
X142365505Y-78678813D01*
X142263677Y-78607512D01*
X142258695Y-78605189D01*
X142258690Y-78605186D01*
X142067178Y-78515883D01*
X142067177Y-78515882D01*
X142062196Y-78513560D01*
X142056888Y-78512138D01*
X142056886Y-78512137D01*
X141991051Y-78494497D01*
X141847463Y-78456022D01*
X141626000Y-78436647D01*
X141404537Y-78456022D01*
X141260949Y-78494497D01*
X141195114Y-78512137D01*
X141195112Y-78512138D01*
X141189804Y-78513560D01*
X141184823Y-78515882D01*
X141184822Y-78515883D01*
X140993311Y-78605186D01*
X140993306Y-78605189D01*
X140988324Y-78607512D01*
X140983817Y-78610668D01*
X140983815Y-78610669D01*
X140810730Y-78731864D01*
X140810727Y-78731866D01*
X140806219Y-78735023D01*
X140649023Y-78892219D01*
X140521512Y-79074324D01*
X140519189Y-79079306D01*
X140519186Y-79079311D01*
X140470195Y-79184373D01*
X140423277Y-79237658D01*
X140355000Y-79257119D01*
X140287040Y-79236577D01*
X140241805Y-79184373D01*
X140192814Y-79079311D01*
X140192811Y-79079306D01*
X140190488Y-79074324D01*
X140062977Y-78892219D01*
X139905781Y-78735023D01*
X139901273Y-78731866D01*
X139901270Y-78731864D01*
X139825505Y-78678813D01*
X139723677Y-78607512D01*
X139718695Y-78605189D01*
X139718690Y-78605186D01*
X139527178Y-78515883D01*
X139527177Y-78515882D01*
X139522196Y-78513560D01*
X139516888Y-78512138D01*
X139516886Y-78512137D01*
X139451051Y-78494497D01*
X139307463Y-78456022D01*
X139086000Y-78436647D01*
X138864537Y-78456022D01*
X138720949Y-78494497D01*
X138655114Y-78512137D01*
X138655112Y-78512138D01*
X138649804Y-78513560D01*
X138644823Y-78515882D01*
X138644822Y-78515883D01*
X138453311Y-78605186D01*
X138453306Y-78605189D01*
X138448324Y-78607512D01*
X138443817Y-78610668D01*
X138443815Y-78610669D01*
X138270730Y-78731864D01*
X138270727Y-78731866D01*
X138266219Y-78735023D01*
X138109023Y-78892219D01*
X137981512Y-79074324D01*
X137979189Y-79079306D01*
X137979186Y-79079311D01*
X137930195Y-79184373D01*
X137883277Y-79237658D01*
X137815000Y-79257119D01*
X137747040Y-79236577D01*
X137701805Y-79184373D01*
X137652814Y-79079311D01*
X137652811Y-79079306D01*
X137650488Y-79074324D01*
X137522977Y-78892219D01*
X137365781Y-78735023D01*
X137361273Y-78731866D01*
X137361270Y-78731864D01*
X137285505Y-78678813D01*
X137183677Y-78607512D01*
X137178695Y-78605189D01*
X137178690Y-78605186D01*
X136987178Y-78515883D01*
X136987177Y-78515882D01*
X136982196Y-78513560D01*
X136976888Y-78512138D01*
X136976886Y-78512137D01*
X136911051Y-78494497D01*
X136767463Y-78456022D01*
X136546000Y-78436647D01*
X136324537Y-78456022D01*
X136180949Y-78494497D01*
X136115114Y-78512137D01*
X136115112Y-78512138D01*
X136109804Y-78513560D01*
X136104823Y-78515882D01*
X136104822Y-78515883D01*
X135913311Y-78605186D01*
X135913306Y-78605189D01*
X135908324Y-78607512D01*
X135903817Y-78610668D01*
X135903815Y-78610669D01*
X135730730Y-78731864D01*
X135730727Y-78731866D01*
X135726219Y-78735023D01*
X135569023Y-78892219D01*
X135441512Y-79074324D01*
X135439189Y-79079306D01*
X135439186Y-79079311D01*
X135390195Y-79184373D01*
X135343277Y-79237658D01*
X135275000Y-79257119D01*
X135207040Y-79236577D01*
X135161805Y-79184373D01*
X135112814Y-79079311D01*
X135112811Y-79079306D01*
X135110488Y-79074324D01*
X134982977Y-78892219D01*
X134825781Y-78735023D01*
X134821273Y-78731866D01*
X134821270Y-78731864D01*
X134745505Y-78678813D01*
X134643677Y-78607512D01*
X134638695Y-78605189D01*
X134638690Y-78605186D01*
X134447178Y-78515883D01*
X134447177Y-78515882D01*
X134442196Y-78513560D01*
X134436888Y-78512138D01*
X134436886Y-78512137D01*
X134371051Y-78494497D01*
X134227463Y-78456022D01*
X134006000Y-78436647D01*
X133784537Y-78456022D01*
X133640949Y-78494497D01*
X133575114Y-78512137D01*
X133575112Y-78512138D01*
X133569804Y-78513560D01*
X133564823Y-78515882D01*
X133564822Y-78515883D01*
X133373311Y-78605186D01*
X133373306Y-78605189D01*
X133368324Y-78607512D01*
X133363817Y-78610668D01*
X133363815Y-78610669D01*
X133190730Y-78731864D01*
X133190727Y-78731866D01*
X133186219Y-78735023D01*
X133029023Y-78892219D01*
X132901512Y-79074324D01*
X132899189Y-79079306D01*
X132899186Y-79079311D01*
X132850195Y-79184373D01*
X132803277Y-79237658D01*
X132735000Y-79257119D01*
X132667040Y-79236577D01*
X132621805Y-79184373D01*
X132572814Y-79079311D01*
X132572811Y-79079306D01*
X132570488Y-79074324D01*
X132442977Y-78892219D01*
X132285781Y-78735023D01*
X132281273Y-78731866D01*
X132281270Y-78731864D01*
X132205505Y-78678813D01*
X132103677Y-78607512D01*
X132098695Y-78605189D01*
X132098690Y-78605186D01*
X131907178Y-78515883D01*
X131907177Y-78515882D01*
X131902196Y-78513560D01*
X131896888Y-78512138D01*
X131896886Y-78512137D01*
X131831051Y-78494497D01*
X131687463Y-78456022D01*
X131466000Y-78436647D01*
X131244537Y-78456022D01*
X131100949Y-78494497D01*
X131035114Y-78512137D01*
X131035112Y-78512138D01*
X131029804Y-78513560D01*
X131024823Y-78515882D01*
X131024822Y-78515883D01*
X130833311Y-78605186D01*
X130833306Y-78605189D01*
X130828324Y-78607512D01*
X130823817Y-78610668D01*
X130823815Y-78610669D01*
X130650730Y-78731864D01*
X130650727Y-78731866D01*
X130646219Y-78735023D01*
X130489023Y-78892219D01*
X130361512Y-79074324D01*
X130359189Y-79079306D01*
X130359186Y-79079311D01*
X130269883Y-79270822D01*
X130267560Y-79275804D01*
X130210022Y-79490537D01*
X130190647Y-79712000D01*
X108013559Y-79712000D01*
X107874946Y-79598547D01*
X107825445Y-79568213D01*
X107639341Y-79454167D01*
X107639333Y-79454163D01*
X107635691Y-79451931D01*
X107631774Y-79450212D01*
X107631771Y-79450210D01*
X107518591Y-79400528D01*
X107378752Y-79339143D01*
X107374624Y-79337967D01*
X107374621Y-79337966D01*
X107113010Y-79263444D01*
X107113011Y-79263444D01*
X107108882Y-79262268D01*
X106901487Y-79232752D01*
X106835328Y-79223336D01*
X106835326Y-79223336D01*
X106831076Y-79222731D01*
X106826787Y-79222709D01*
X106826780Y-79222708D01*
X106554761Y-79221283D01*
X106554754Y-79221283D01*
X106550475Y-79221261D01*
X106546230Y-79221820D01*
X106546228Y-79221820D01*
X106483034Y-79230140D01*
X106272271Y-79257888D01*
X106001611Y-79331932D01*
X105984705Y-79339143D01*
X105747446Y-79440342D01*
X105747439Y-79440346D01*
X105743504Y-79442024D01*
X105502727Y-79586126D01*
X105499376Y-79588810D01*
X105499374Y-79588812D01*
X105487223Y-79598547D01*
X105283734Y-79761572D01*
X105201353Y-79848384D01*
X105120616Y-79933463D01*
X105090578Y-79965116D01*
X104926834Y-80192991D01*
X104795530Y-80440980D01*
X104699098Y-80704495D01*
X104639320Y-80978659D01*
X104617304Y-81258399D01*
X102108000Y-81258399D01*
X102108000Y-76834000D01*
X102128002Y-76765879D01*
X102181658Y-76719386D01*
X102234000Y-76708000D01*
X179706000Y-76708000D01*
X179774121Y-76728002D01*
G37*
%TD.AperFunction*%
%TD*%
M02*
