M48
; DRILL file {KiCad 6.0.0-d3dd2cf0fa~116~ubuntu21.04.1} date Tue 04 Jan 2022 02:06:46 PM EST
; FORMAT={-:-/ absolute / inch / decimal}
; #@! TF.CreationDate,2022-01-04T14:06:46-05:00
; #@! TF.GenerationSoftware,Kicad,Pcbnew,6.0.0-d3dd2cf0fa~116~ubuntu21.04.1
; #@! TF.FileFunction,Plated,1,2,PTH
FMAT,2
INCH
; #@! TA.AperFunction,Plated,PTH,ViaDrill
T1C0.0157
; #@! TA.AperFunction,Plated,PTH,ComponentDrill
T2C0.0295
; #@! TA.AperFunction,Plated,PTH,ComponentDrill
T3C0.0300
; #@! TA.AperFunction,Plated,PTH,ComponentDrill
T4C0.0394
; #@! TA.AperFunction,Plated,PTH,ComponentDrill
T5C0.0433
; #@! TA.AperFunction,Plated,PTH,ComponentDrill
T6C0.0469
%
G90
G05
T1
X5.09Y-3.7572
X5.45Y-3.7172
X5.505Y-3.665
X5.51Y-4.26
X5.59Y-3.7572
X5.63Y-3.2272
X5.67Y-3.7472
X5.68Y-3.61
X5.77Y-3.4372
X5.78Y-4.2172
X5.87Y-3.2672
X5.93Y-3.8972
X5.97Y-3.6365
X5.98Y-3.7672
X6.03Y-4.5
X6.08Y-3.7172
X6.15Y-3.2672
X6.3Y-3.2372
X6.3Y-3.68
X6.33Y-4.51
X6.43Y-4.1172
T2
X4.21Y-3.9113
X4.21Y-3.99
X4.8113Y-3.5572
X4.89Y-3.5572
X5.1325Y-3.5572
X5.2113Y-3.5572
X5.29Y-3.5572
X6.0113Y-3.5572
X6.09Y-3.5572
X6.1687Y-3.5572
T3
X5.1758Y-3.1383
X5.1758Y-4.0383
X5.2758Y-3.1383
X5.2758Y-4.0383
X5.3758Y-3.1383
X5.3758Y-4.0383
X5.4758Y-3.1383
X5.4758Y-4.0383
X5.5758Y-3.1383
X5.5758Y-4.0383
X5.6758Y-3.1383
X5.6758Y-4.0383
X5.7758Y-3.1383
X5.7758Y-4.0383
X5.8758Y-3.1383
X5.8758Y-4.0383
X5.9758Y-3.1383
X5.9758Y-4.0383
X6.0758Y-3.1383
X6.0758Y-4.0383
X6.1758Y-3.1383
X6.1758Y-4.0383
X6.2758Y-3.1383
X6.2758Y-4.0383
T4
X6.39Y-3.3572
X6.39Y-3.4572
X6.39Y-3.5572
X6.39Y-3.6572
X6.39Y-3.7572
X6.39Y-3.8572
T5
X4.5341Y-4.3572
X4.5341Y-4.5343
X4.79Y-4.3572
X4.79Y-4.5343
X5.5341Y-4.38
X5.5341Y-4.5572
X5.79Y-4.38
X5.79Y-4.5572
X6.462Y-4.3686
X6.462Y-4.5457
X6.718Y-4.3686
X6.718Y-4.5457
T6
X5.29Y-5.3492
X5.39Y-5.3492
X5.49Y-5.3492
X5.59Y-5.3492
X5.69Y-5.3492
T0
M30
