%TF.GenerationSoftware,KiCad,Pcbnew,6.0.0-d3dd2cf0fa~116~ubuntu21.04.1*%
%TF.CreationDate,2022-01-04T14:06:44-05:00*%
%TF.ProjectId,control_pcb,636f6e74-726f-46c5-9f70-63622e6b6963,rev?*%
%TF.SameCoordinates,Original*%
%TF.FileFunction,Legend,Top*%
%TF.FilePolarity,Positive*%
%FSLAX46Y46*%
G04 Gerber Fmt 4.6, Leading zero omitted, Abs format (unit mm)*
G04 Created by KiCad (PCBNEW 6.0.0-d3dd2cf0fa~116~ubuntu21.04.1) date 2022-01-04 14:06:44*
%MOMM*%
%LPD*%
G01*
G04 APERTURE LIST*
%ADD10C,0.300000*%
%ADD11C,0.150000*%
%ADD12C,0.100000*%
%ADD13C,0.120000*%
G04 APERTURE END LIST*
D10*
X169325642Y-104415714D02*
X169397071Y-104201428D01*
X169397071Y-103844285D01*
X169325642Y-103701428D01*
X169254214Y-103630000D01*
X169111357Y-103558571D01*
X168968500Y-103558571D01*
X168825642Y-103630000D01*
X168754214Y-103701428D01*
X168682785Y-103844285D01*
X168611357Y-104130000D01*
X168539928Y-104272857D01*
X168468500Y-104344285D01*
X168325642Y-104415714D01*
X168182785Y-104415714D01*
X168039928Y-104344285D01*
X167968500Y-104272857D01*
X167897071Y-104130000D01*
X167897071Y-103772857D01*
X167968500Y-103558571D01*
X168397071Y-102915714D02*
X169897071Y-102915714D01*
X168468500Y-102915714D02*
X168397071Y-102772857D01*
X168397071Y-102487142D01*
X168468500Y-102344285D01*
X168539928Y-102272857D01*
X168682785Y-102201428D01*
X169111357Y-102201428D01*
X169254214Y-102272857D01*
X169325642Y-102344285D01*
X169397071Y-102487142D01*
X169397071Y-102772857D01*
X169325642Y-102915714D01*
X169397071Y-101558571D02*
X168397071Y-101558571D01*
X167897071Y-101558571D02*
X167968500Y-101630000D01*
X168039928Y-101558571D01*
X167968500Y-101487142D01*
X167897071Y-101558571D01*
X168039928Y-101558571D01*
X168397071Y-100844285D02*
X169397071Y-100844285D01*
X168539928Y-100844285D02*
X168468500Y-100772857D01*
X168397071Y-100630000D01*
X168397071Y-100415714D01*
X168468500Y-100272857D01*
X168611357Y-100201428D01*
X169397071Y-100201428D01*
X169325642Y-98844285D02*
X169397071Y-98987142D01*
X169397071Y-99272857D01*
X169325642Y-99415714D01*
X169254214Y-99487142D01*
X169111357Y-99558571D01*
X168682785Y-99558571D01*
X168539928Y-99487142D01*
X168468500Y-99415714D01*
X168397071Y-99272857D01*
X168397071Y-98987142D01*
X168468500Y-98844285D01*
X169397071Y-97558571D02*
X168611357Y-97558571D01*
X168468500Y-97630000D01*
X168397071Y-97772857D01*
X168397071Y-98058571D01*
X168468500Y-98201428D01*
X169325642Y-97558571D02*
X169397071Y-97701428D01*
X169397071Y-98058571D01*
X169325642Y-98201428D01*
X169182785Y-98272857D01*
X169039928Y-98272857D01*
X168897071Y-98201428D01*
X168825642Y-98058571D01*
X168825642Y-97701428D01*
X168754214Y-97558571D01*
X169325642Y-96915714D02*
X169397071Y-96772857D01*
X169397071Y-96487142D01*
X169325642Y-96344285D01*
X169182785Y-96272857D01*
X169111357Y-96272857D01*
X168968500Y-96344285D01*
X168897071Y-96487142D01*
X168897071Y-96701428D01*
X168825642Y-96844285D01*
X168682785Y-96915714D01*
X168611357Y-96915714D01*
X168468500Y-96844285D01*
X168397071Y-96701428D01*
X168397071Y-96487142D01*
X168468500Y-96344285D01*
X168397071Y-95844285D02*
X168397071Y-95272857D01*
X167897071Y-95630000D02*
X169182785Y-95630000D01*
X169325642Y-95558571D01*
X169397071Y-95415714D01*
X169397071Y-95272857D01*
X169325642Y-94201428D02*
X169397071Y-94344285D01*
X169397071Y-94630000D01*
X169325642Y-94772857D01*
X169182785Y-94844285D01*
X168611357Y-94844285D01*
X168468500Y-94772857D01*
X168397071Y-94630000D01*
X168397071Y-94344285D01*
X168468500Y-94201428D01*
X168611357Y-94130000D01*
X168754214Y-94130000D01*
X168897071Y-94844285D01*
X169397071Y-93487142D02*
X168397071Y-93487142D01*
X168682785Y-93487142D02*
X168539928Y-93415714D01*
X168468500Y-93344285D01*
X168397071Y-93201428D01*
X168397071Y-93058571D01*
X169397071Y-91415714D02*
X167897071Y-91415714D01*
X168468500Y-91415714D02*
X168397071Y-91272857D01*
X168397071Y-90987142D01*
X168468500Y-90844285D01*
X168539928Y-90772857D01*
X168682785Y-90701428D01*
X169111357Y-90701428D01*
X169254214Y-90772857D01*
X169325642Y-90844285D01*
X169397071Y-90987142D01*
X169397071Y-91272857D01*
X169325642Y-91415714D01*
X169397071Y-89844285D02*
X169325642Y-89987142D01*
X169254214Y-90058571D01*
X169111357Y-90130000D01*
X168682785Y-90130000D01*
X168539928Y-90058571D01*
X168468500Y-89987142D01*
X168397071Y-89844285D01*
X168397071Y-89630000D01*
X168468500Y-89487142D01*
X168539928Y-89415714D01*
X168682785Y-89344285D01*
X169111357Y-89344285D01*
X169254214Y-89415714D01*
X169325642Y-89487142D01*
X169397071Y-89630000D01*
X169397071Y-89844285D01*
X169397071Y-88058571D02*
X168611357Y-88058571D01*
X168468500Y-88130000D01*
X168397071Y-88272857D01*
X168397071Y-88558571D01*
X168468500Y-88701428D01*
X169325642Y-88058571D02*
X169397071Y-88201428D01*
X169397071Y-88558571D01*
X169325642Y-88701428D01*
X169182785Y-88772857D01*
X169039928Y-88772857D01*
X168897071Y-88701428D01*
X168825642Y-88558571D01*
X168825642Y-88201428D01*
X168754214Y-88058571D01*
X169397071Y-87344285D02*
X168397071Y-87344285D01*
X168682785Y-87344285D02*
X168539928Y-87272857D01*
X168468500Y-87201428D01*
X168397071Y-87058571D01*
X168397071Y-86915714D01*
X169397071Y-85772857D02*
X167897071Y-85772857D01*
X169325642Y-85772857D02*
X169397071Y-85915714D01*
X169397071Y-86201428D01*
X169325642Y-86344285D01*
X169254214Y-86415714D01*
X169111357Y-86487142D01*
X168682785Y-86487142D01*
X168539928Y-86415714D01*
X168468500Y-86344285D01*
X168397071Y-86201428D01*
X168397071Y-85915714D01*
X168468500Y-85772857D01*
X168397071Y-84058571D02*
X169397071Y-83701428D01*
X168397071Y-83344285D01*
X169397071Y-81987142D02*
X169397071Y-82844285D01*
X169397071Y-82415714D02*
X167897071Y-82415714D01*
X168111357Y-82558571D01*
X168254214Y-82701428D01*
X168325642Y-82844285D01*
X169254214Y-81344285D02*
X169325642Y-81272857D01*
X169397071Y-81344285D01*
X169325642Y-81415714D01*
X169254214Y-81344285D01*
X169397071Y-81344285D01*
X167897071Y-80344285D02*
X167897071Y-80201428D01*
X167968500Y-80058571D01*
X168039928Y-79987142D01*
X168182785Y-79915714D01*
X168468500Y-79844285D01*
X168825642Y-79844285D01*
X169111357Y-79915714D01*
X169254214Y-79987142D01*
X169325642Y-80058571D01*
X169397071Y-80201428D01*
X169397071Y-80344285D01*
X169325642Y-80487142D01*
X169254214Y-80558571D01*
X169111357Y-80630000D01*
X168825642Y-80701428D01*
X168468500Y-80701428D01*
X168182785Y-80630000D01*
X168039928Y-80558571D01*
X167968500Y-80487142D01*
X167897071Y-80344285D01*
X171740642Y-103701428D02*
X171812071Y-103487142D01*
X171812071Y-103130000D01*
X171740642Y-102987142D01*
X171669214Y-102915714D01*
X171526357Y-102844285D01*
X171383500Y-102844285D01*
X171240642Y-102915714D01*
X171169214Y-102987142D01*
X171097785Y-103130000D01*
X171026357Y-103415714D01*
X170954928Y-103558571D01*
X170883500Y-103630000D01*
X170740642Y-103701428D01*
X170597785Y-103701428D01*
X170454928Y-103630000D01*
X170383500Y-103558571D01*
X170312071Y-103415714D01*
X170312071Y-103058571D01*
X170383500Y-102844285D01*
X171740642Y-101558571D02*
X171812071Y-101701428D01*
X171812071Y-101987142D01*
X171740642Y-102130000D01*
X171669214Y-102201428D01*
X171526357Y-102272857D01*
X171097785Y-102272857D01*
X170954928Y-102201428D01*
X170883500Y-102130000D01*
X170812071Y-101987142D01*
X170812071Y-101701428D01*
X170883500Y-101558571D01*
X171812071Y-100701428D02*
X171740642Y-100844285D01*
X171669214Y-100915714D01*
X171526357Y-100987142D01*
X171097785Y-100987142D01*
X170954928Y-100915714D01*
X170883500Y-100844285D01*
X170812071Y-100701428D01*
X170812071Y-100487142D01*
X170883500Y-100344285D01*
X170954928Y-100272857D01*
X171097785Y-100201428D01*
X171526357Y-100201428D01*
X171669214Y-100272857D01*
X171740642Y-100344285D01*
X171812071Y-100487142D01*
X171812071Y-100701428D01*
X170812071Y-99772857D02*
X170812071Y-99201428D01*
X170312071Y-99558571D02*
X171597785Y-99558571D01*
X171740642Y-99487142D01*
X171812071Y-99344285D01*
X171812071Y-99201428D01*
X170812071Y-98915714D02*
X170812071Y-98344285D01*
X170312071Y-98701428D02*
X171597785Y-98701428D01*
X171740642Y-98630000D01*
X171812071Y-98487142D01*
X171812071Y-98344285D01*
X171812071Y-96701428D02*
X170312071Y-96701428D01*
X171383500Y-96201428D01*
X170312071Y-95701428D01*
X171812071Y-95701428D01*
X171812071Y-94344285D02*
X171026357Y-94344285D01*
X170883500Y-94415714D01*
X170812071Y-94558571D01*
X170812071Y-94844285D01*
X170883500Y-94987142D01*
X171740642Y-94344285D02*
X171812071Y-94487142D01*
X171812071Y-94844285D01*
X171740642Y-94987142D01*
X171597785Y-95058571D01*
X171454928Y-95058571D01*
X171312071Y-94987142D01*
X171240642Y-94844285D01*
X171240642Y-94487142D01*
X171169214Y-94344285D01*
X171812071Y-93630000D02*
X170812071Y-93630000D01*
X171097785Y-93630000D02*
X170954928Y-93558571D01*
X170883500Y-93487142D01*
X170812071Y-93344285D01*
X170812071Y-93201428D01*
X170812071Y-92915714D02*
X170812071Y-92344285D01*
X170312071Y-92701428D02*
X171597785Y-92701428D01*
X171740642Y-92630000D01*
X171812071Y-92487142D01*
X171812071Y-92344285D01*
X171812071Y-91844285D02*
X170812071Y-91844285D01*
X170312071Y-91844285D02*
X170383500Y-91915714D01*
X170454928Y-91844285D01*
X170383500Y-91772857D01*
X170312071Y-91844285D01*
X170454928Y-91844285D01*
X170812071Y-91130000D02*
X171812071Y-91130000D01*
X170954928Y-91130000D02*
X170883500Y-91058571D01*
X170812071Y-90915714D01*
X170812071Y-90701428D01*
X170883500Y-90558571D01*
X171026357Y-90487142D01*
X171812071Y-90487142D01*
X170454928Y-88701428D02*
X170383500Y-88630000D01*
X170312071Y-88487142D01*
X170312071Y-88130000D01*
X170383500Y-87987142D01*
X170454928Y-87915714D01*
X170597785Y-87844285D01*
X170740642Y-87844285D01*
X170954928Y-87915714D01*
X171812071Y-88772857D01*
X171812071Y-87844285D01*
X170312071Y-86915714D02*
X170312071Y-86772857D01*
X170383500Y-86630000D01*
X170454928Y-86558571D01*
X170597785Y-86487142D01*
X170883500Y-86415714D01*
X171240642Y-86415714D01*
X171526357Y-86487142D01*
X171669214Y-86558571D01*
X171740642Y-86630000D01*
X171812071Y-86772857D01*
X171812071Y-86915714D01*
X171740642Y-87058571D01*
X171669214Y-87130000D01*
X171526357Y-87201428D01*
X171240642Y-87272857D01*
X170883500Y-87272857D01*
X170597785Y-87201428D01*
X170454928Y-87130000D01*
X170383500Y-87058571D01*
X170312071Y-86915714D01*
X170454928Y-85844285D02*
X170383500Y-85772857D01*
X170312071Y-85630000D01*
X170312071Y-85272857D01*
X170383500Y-85130000D01*
X170454928Y-85058571D01*
X170597785Y-84987142D01*
X170740642Y-84987142D01*
X170954928Y-85058571D01*
X171812071Y-85915714D01*
X171812071Y-84987142D01*
X171812071Y-83558571D02*
X171812071Y-84415714D01*
X171812071Y-83987142D02*
X170312071Y-83987142D01*
X170526357Y-84130000D01*
X170669214Y-84272857D01*
X170740642Y-84415714D01*
X171954928Y-81915714D02*
X171883500Y-82058571D01*
X171740642Y-82201428D01*
X171526357Y-82415714D01*
X171454928Y-82558571D01*
X171454928Y-82701428D01*
X171812071Y-82630000D02*
X171740642Y-82772857D01*
X171597785Y-82915714D01*
X171312071Y-82987142D01*
X170812071Y-82987142D01*
X170526357Y-82915714D01*
X170383500Y-82772857D01*
X170312071Y-82630000D01*
X170312071Y-82344285D01*
X170383500Y-82201428D01*
X170526357Y-82058571D01*
X170812071Y-81987142D01*
X171312071Y-81987142D01*
X171597785Y-82058571D01*
X171740642Y-82201428D01*
X171812071Y-82344285D01*
X171812071Y-82630000D01*
X170812071Y-80701428D02*
X171812071Y-80701428D01*
X170240642Y-81058571D02*
X171312071Y-81415714D01*
X171312071Y-80487142D01*
D11*
%TO.C,TTGO1*%
X116599333Y-105834380D02*
X117170761Y-105834380D01*
X116885047Y-106834380D02*
X116885047Y-105834380D01*
X117361238Y-105834380D02*
X117932666Y-105834380D01*
X117646952Y-106834380D02*
X117646952Y-105834380D01*
X118789809Y-105882000D02*
X118694571Y-105834380D01*
X118551714Y-105834380D01*
X118408857Y-105882000D01*
X118313619Y-105977238D01*
X118266000Y-106072476D01*
X118218380Y-106262952D01*
X118218380Y-106405809D01*
X118266000Y-106596285D01*
X118313619Y-106691523D01*
X118408857Y-106786761D01*
X118551714Y-106834380D01*
X118646952Y-106834380D01*
X118789809Y-106786761D01*
X118837428Y-106739142D01*
X118837428Y-106405809D01*
X118646952Y-106405809D01*
X119456476Y-105834380D02*
X119646952Y-105834380D01*
X119742190Y-105882000D01*
X119837428Y-105977238D01*
X119885047Y-106167714D01*
X119885047Y-106501047D01*
X119837428Y-106691523D01*
X119742190Y-106786761D01*
X119646952Y-106834380D01*
X119456476Y-106834380D01*
X119361238Y-106786761D01*
X119266000Y-106691523D01*
X119218380Y-106501047D01*
X119218380Y-106167714D01*
X119266000Y-105977238D01*
X119361238Y-105882000D01*
X119456476Y-105834380D01*
X120837428Y-106834380D02*
X120266000Y-106834380D01*
X120551714Y-106834380D02*
X120551714Y-105834380D01*
X120456476Y-105977238D01*
X120361238Y-106072476D01*
X120266000Y-106120095D01*
X122545523Y-99484380D02*
X123116952Y-99484380D01*
X122831238Y-100484380D02*
X122831238Y-99484380D01*
X123307428Y-99484380D02*
X123878857Y-99484380D01*
X123593142Y-100484380D02*
X123593142Y-99484380D01*
X124736000Y-99532000D02*
X124640761Y-99484380D01*
X124497904Y-99484380D01*
X124355047Y-99532000D01*
X124259809Y-99627238D01*
X124212190Y-99722476D01*
X124164571Y-99912952D01*
X124164571Y-100055809D01*
X124212190Y-100246285D01*
X124259809Y-100341523D01*
X124355047Y-100436761D01*
X124497904Y-100484380D01*
X124593142Y-100484380D01*
X124736000Y-100436761D01*
X124783619Y-100389142D01*
X124783619Y-100055809D01*
X124593142Y-100055809D01*
X125402666Y-99484380D02*
X125593142Y-99484380D01*
X125688380Y-99532000D01*
X125783619Y-99627238D01*
X125831238Y-99817714D01*
X125831238Y-100151047D01*
X125783619Y-100341523D01*
X125688380Y-100436761D01*
X125593142Y-100484380D01*
X125402666Y-100484380D01*
X125307428Y-100436761D01*
X125212190Y-100341523D01*
X125164571Y-100151047D01*
X125164571Y-99817714D01*
X125212190Y-99627238D01*
X125307428Y-99532000D01*
X125402666Y-99484380D01*
X126021714Y-100579619D02*
X126783619Y-100579619D01*
X127021714Y-99960571D02*
X127355047Y-99960571D01*
X127497904Y-100484380D02*
X127021714Y-100484380D01*
X127021714Y-99484380D01*
X127497904Y-99484380D01*
X127878857Y-100436761D02*
X128021714Y-100484380D01*
X128259809Y-100484380D01*
X128355047Y-100436761D01*
X128402666Y-100389142D01*
X128450285Y-100293904D01*
X128450285Y-100198666D01*
X128402666Y-100103428D01*
X128355047Y-100055809D01*
X128259809Y-100008190D01*
X128069333Y-99960571D01*
X127974095Y-99912952D01*
X127926476Y-99865333D01*
X127878857Y-99770095D01*
X127878857Y-99674857D01*
X127926476Y-99579619D01*
X127974095Y-99532000D01*
X128069333Y-99484380D01*
X128307428Y-99484380D01*
X128450285Y-99532000D01*
X128878857Y-100484380D02*
X128878857Y-99484380D01*
X129259809Y-99484380D01*
X129355047Y-99532000D01*
X129402666Y-99579619D01*
X129450285Y-99674857D01*
X129450285Y-99817714D01*
X129402666Y-99912952D01*
X129355047Y-99960571D01*
X129259809Y-100008190D01*
X128878857Y-100008190D01*
X129783619Y-99484380D02*
X130402666Y-99484380D01*
X130069333Y-99865333D01*
X130212190Y-99865333D01*
X130307428Y-99912952D01*
X130355047Y-99960571D01*
X130402666Y-100055809D01*
X130402666Y-100293904D01*
X130355047Y-100389142D01*
X130307428Y-100436761D01*
X130212190Y-100484380D01*
X129926476Y-100484380D01*
X129831238Y-100436761D01*
X129783619Y-100389142D01*
X130783619Y-99579619D02*
X130831238Y-99532000D01*
X130926476Y-99484380D01*
X131164571Y-99484380D01*
X131259809Y-99532000D01*
X131307428Y-99579619D01*
X131355047Y-99674857D01*
X131355047Y-99770095D01*
X131307428Y-99912952D01*
X130736000Y-100484380D01*
X131355047Y-100484380D01*
X131545523Y-100579619D02*
X132307428Y-100579619D01*
X132402666Y-99484380D02*
X132974095Y-99484380D01*
X132688380Y-100484380D02*
X132688380Y-99484380D01*
X133307428Y-100484380D02*
X133307428Y-99484380D01*
X133545523Y-99484380D01*
X133688380Y-99532000D01*
X133783619Y-99627238D01*
X133831238Y-99722476D01*
X133878857Y-99912952D01*
X133878857Y-100055809D01*
X133831238Y-100246285D01*
X133783619Y-100341523D01*
X133688380Y-100436761D01*
X133545523Y-100484380D01*
X133307428Y-100484380D01*
X134307428Y-100484380D02*
X134307428Y-99484380D01*
X134736000Y-100436761D02*
X134878857Y-100484380D01*
X135116952Y-100484380D01*
X135212190Y-100436761D01*
X135259809Y-100389142D01*
X135307428Y-100293904D01*
X135307428Y-100198666D01*
X135259809Y-100103428D01*
X135212190Y-100055809D01*
X135116952Y-100008190D01*
X134926476Y-99960571D01*
X134831238Y-99912952D01*
X134783619Y-99865333D01*
X134736000Y-99770095D01*
X134736000Y-99674857D01*
X134783619Y-99579619D01*
X134831238Y-99532000D01*
X134926476Y-99484380D01*
X135164571Y-99484380D01*
X135307428Y-99532000D01*
X135736000Y-100484380D02*
X135736000Y-99484380D01*
X136116952Y-99484380D01*
X136212190Y-99532000D01*
X136259809Y-99579619D01*
X136307428Y-99674857D01*
X136307428Y-99817714D01*
X136259809Y-99912952D01*
X136212190Y-99960571D01*
X136116952Y-100008190D01*
X135736000Y-100008190D01*
X137212190Y-100484380D02*
X136736000Y-100484380D01*
X136736000Y-99484380D01*
X137497904Y-100198666D02*
X137974095Y-100198666D01*
X137402666Y-100484380D02*
X137736000Y-99484380D01*
X138069333Y-100484380D01*
X138593142Y-100008190D02*
X138593142Y-100484380D01*
X138259809Y-99484380D02*
X138593142Y-100008190D01*
X138926476Y-99484380D01*
X139021714Y-100579619D02*
X139783619Y-100579619D01*
X139878857Y-99484380D02*
X140212190Y-100484380D01*
X140545523Y-99484380D01*
X141402666Y-100484380D02*
X140831238Y-100484380D01*
X141116952Y-100484380D02*
X141116952Y-99484380D01*
X141021714Y-99627238D01*
X140926476Y-99722476D01*
X140831238Y-99770095D01*
X141831238Y-100389142D02*
X141878857Y-100436761D01*
X141831238Y-100484380D01*
X141783619Y-100436761D01*
X141831238Y-100389142D01*
X141831238Y-100484380D01*
X142831238Y-100484380D02*
X142259809Y-100484380D01*
X142545523Y-100484380D02*
X142545523Y-99484380D01*
X142450285Y-99627238D01*
X142355047Y-99722476D01*
X142259809Y-99770095D01*
D12*
X113275285Y-92088428D02*
X113882428Y-92088428D01*
X113953857Y-92052714D01*
X113989571Y-92017000D01*
X114025285Y-91945571D01*
X114025285Y-91802714D01*
X113989571Y-91731285D01*
X113953857Y-91695571D01*
X113882428Y-91659857D01*
X113275285Y-91659857D01*
X113989571Y-91338428D02*
X114025285Y-91231285D01*
X114025285Y-91052714D01*
X113989571Y-90981285D01*
X113953857Y-90945571D01*
X113882428Y-90909857D01*
X113811000Y-90909857D01*
X113739571Y-90945571D01*
X113703857Y-90981285D01*
X113668142Y-91052714D01*
X113632428Y-91195571D01*
X113596714Y-91267000D01*
X113561000Y-91302714D01*
X113489571Y-91338428D01*
X113418142Y-91338428D01*
X113346714Y-91302714D01*
X113311000Y-91267000D01*
X113275285Y-91195571D01*
X113275285Y-91017000D01*
X113311000Y-90909857D01*
X113632428Y-90338428D02*
X113668142Y-90231285D01*
X113703857Y-90195571D01*
X113775285Y-90159857D01*
X113882428Y-90159857D01*
X113953857Y-90195571D01*
X113989571Y-90231285D01*
X114025285Y-90302714D01*
X114025285Y-90588428D01*
X113275285Y-90588428D01*
X113275285Y-90338428D01*
X113311000Y-90267000D01*
X113346714Y-90231285D01*
X113418142Y-90195571D01*
X113489571Y-90195571D01*
X113561000Y-90231285D01*
X113596714Y-90267000D01*
X113632428Y-90338428D01*
X113632428Y-90588428D01*
X156493857Y-98097000D02*
X156851000Y-98097000D01*
X156422428Y-98311285D02*
X156672428Y-97561285D01*
X156922428Y-98311285D01*
X157172428Y-97811285D02*
X157172428Y-98311285D01*
X157172428Y-97882714D02*
X157208142Y-97847000D01*
X157279571Y-97811285D01*
X157386714Y-97811285D01*
X157458142Y-97847000D01*
X157493857Y-97918428D01*
X157493857Y-98311285D01*
X157743857Y-97811285D02*
X158029571Y-97811285D01*
X157851000Y-97561285D02*
X157851000Y-98204142D01*
X157886714Y-98275571D01*
X157958142Y-98311285D01*
X158029571Y-98311285D01*
D11*
%TO.C,SW2*%
X117082666Y-109076761D02*
X117225523Y-109124380D01*
X117463619Y-109124380D01*
X117558857Y-109076761D01*
X117606476Y-109029142D01*
X117654095Y-108933904D01*
X117654095Y-108838666D01*
X117606476Y-108743428D01*
X117558857Y-108695809D01*
X117463619Y-108648190D01*
X117273142Y-108600571D01*
X117177904Y-108552952D01*
X117130285Y-108505333D01*
X117082666Y-108410095D01*
X117082666Y-108314857D01*
X117130285Y-108219619D01*
X117177904Y-108172000D01*
X117273142Y-108124380D01*
X117511238Y-108124380D01*
X117654095Y-108172000D01*
X117987428Y-108124380D02*
X118225523Y-109124380D01*
X118416000Y-108410095D01*
X118606476Y-109124380D01*
X118844571Y-108124380D01*
X119177904Y-108219619D02*
X119225523Y-108172000D01*
X119320761Y-108124380D01*
X119558857Y-108124380D01*
X119654095Y-108172000D01*
X119701714Y-108219619D01*
X119749333Y-108314857D01*
X119749333Y-108410095D01*
X119701714Y-108552952D01*
X119130285Y-109124380D01*
X119749333Y-109124380D01*
X116130285Y-117824380D02*
X116130285Y-116824380D01*
X116606476Y-117824380D02*
X116606476Y-116824380D01*
X117177904Y-117824380D01*
X117177904Y-116824380D01*
X117654095Y-117824380D02*
X117654095Y-116824380D01*
X117892190Y-116824380D01*
X118035047Y-116872000D01*
X118130285Y-116967238D01*
X118177904Y-117062476D01*
X118225523Y-117252952D01*
X118225523Y-117395809D01*
X118177904Y-117586285D01*
X118130285Y-117681523D01*
X118035047Y-117776761D01*
X117892190Y-117824380D01*
X117654095Y-117824380D01*
X118416000Y-117919619D02*
X119177904Y-117919619D01*
X119606476Y-116824380D02*
X119796952Y-116824380D01*
X119892190Y-116872000D01*
X119987428Y-116967238D01*
X120035047Y-117157714D01*
X120035047Y-117491047D01*
X119987428Y-117681523D01*
X119892190Y-117776761D01*
X119796952Y-117824380D01*
X119606476Y-117824380D01*
X119511238Y-117776761D01*
X119416000Y-117681523D01*
X119368380Y-117491047D01*
X119368380Y-117157714D01*
X119416000Y-116967238D01*
X119511238Y-116872000D01*
X119606476Y-116824380D01*
X120796952Y-117300571D02*
X120463619Y-117300571D01*
X120463619Y-117824380D02*
X120463619Y-116824380D01*
X120939809Y-116824380D01*
X121654095Y-117300571D02*
X121320761Y-117300571D01*
X121320761Y-117824380D02*
X121320761Y-116824380D01*
X121796952Y-116824380D01*
%TO.C,SW3*%
X142482666Y-109656761D02*
X142625523Y-109704380D01*
X142863619Y-109704380D01*
X142958857Y-109656761D01*
X143006476Y-109609142D01*
X143054095Y-109513904D01*
X143054095Y-109418666D01*
X143006476Y-109323428D01*
X142958857Y-109275809D01*
X142863619Y-109228190D01*
X142673142Y-109180571D01*
X142577904Y-109132952D01*
X142530285Y-109085333D01*
X142482666Y-108990095D01*
X142482666Y-108894857D01*
X142530285Y-108799619D01*
X142577904Y-108752000D01*
X142673142Y-108704380D01*
X142911238Y-108704380D01*
X143054095Y-108752000D01*
X143387428Y-108704380D02*
X143625523Y-109704380D01*
X143816000Y-108990095D01*
X144006476Y-109704380D01*
X144244571Y-108704380D01*
X144530285Y-108704380D02*
X145149333Y-108704380D01*
X144816000Y-109085333D01*
X144958857Y-109085333D01*
X145054095Y-109132952D01*
X145101714Y-109180571D01*
X145149333Y-109275809D01*
X145149333Y-109513904D01*
X145101714Y-109609142D01*
X145054095Y-109656761D01*
X144958857Y-109704380D01*
X144673142Y-109704380D01*
X144577904Y-109656761D01*
X144530285Y-109609142D01*
X141863619Y-118404380D02*
X141863619Y-117404380D01*
X142339809Y-118404380D02*
X142339809Y-117404380D01*
X142911238Y-118404380D01*
X142911238Y-117404380D01*
X143387428Y-118404380D02*
X143387428Y-117404380D01*
X143625523Y-117404380D01*
X143768380Y-117452000D01*
X143863619Y-117547238D01*
X143911238Y-117642476D01*
X143958857Y-117832952D01*
X143958857Y-117975809D01*
X143911238Y-118166285D01*
X143863619Y-118261523D01*
X143768380Y-118356761D01*
X143625523Y-118404380D01*
X143387428Y-118404380D01*
X144149333Y-118499619D02*
X144911238Y-118499619D01*
X145339809Y-117404380D02*
X145530285Y-117404380D01*
X145625523Y-117452000D01*
X145720761Y-117547238D01*
X145768380Y-117737714D01*
X145768380Y-118071047D01*
X145720761Y-118261523D01*
X145625523Y-118356761D01*
X145530285Y-118404380D01*
X145339809Y-118404380D01*
X145244571Y-118356761D01*
X145149333Y-118261523D01*
X145101714Y-118071047D01*
X145101714Y-117737714D01*
X145149333Y-117547238D01*
X145244571Y-117452000D01*
X145339809Y-117404380D01*
X146196952Y-118404380D02*
X146196952Y-117404380D01*
X146768380Y-118404380D01*
X146768380Y-117404380D01*
%TO.C,SW4*%
X166052666Y-109366761D02*
X166195523Y-109414380D01*
X166433619Y-109414380D01*
X166528857Y-109366761D01*
X166576476Y-109319142D01*
X166624095Y-109223904D01*
X166624095Y-109128666D01*
X166576476Y-109033428D01*
X166528857Y-108985809D01*
X166433619Y-108938190D01*
X166243142Y-108890571D01*
X166147904Y-108842952D01*
X166100285Y-108795333D01*
X166052666Y-108700095D01*
X166052666Y-108604857D01*
X166100285Y-108509619D01*
X166147904Y-108462000D01*
X166243142Y-108414380D01*
X166481238Y-108414380D01*
X166624095Y-108462000D01*
X166957428Y-108414380D02*
X167195523Y-109414380D01*
X167386000Y-108700095D01*
X167576476Y-109414380D01*
X167814571Y-108414380D01*
X168624095Y-108747714D02*
X168624095Y-109414380D01*
X168386000Y-108366761D02*
X168147904Y-109081047D01*
X168766952Y-109081047D01*
X164124095Y-118114380D02*
X164124095Y-117114380D01*
X164600285Y-118114380D02*
X164600285Y-117114380D01*
X165171714Y-118114380D01*
X165171714Y-117114380D01*
X165647904Y-118114380D02*
X165647904Y-117114380D01*
X165886000Y-117114380D01*
X166028857Y-117162000D01*
X166124095Y-117257238D01*
X166171714Y-117352476D01*
X166219333Y-117542952D01*
X166219333Y-117685809D01*
X166171714Y-117876285D01*
X166124095Y-117971523D01*
X166028857Y-118066761D01*
X165886000Y-118114380D01*
X165647904Y-118114380D01*
X166409809Y-118209619D02*
X167171714Y-118209619D01*
X167409809Y-118114380D02*
X167409809Y-117114380D01*
X167790761Y-117114380D01*
X167886000Y-117162000D01*
X167933619Y-117209619D01*
X167981238Y-117304857D01*
X167981238Y-117447714D01*
X167933619Y-117542952D01*
X167886000Y-117590571D01*
X167790761Y-117638190D01*
X167409809Y-117638190D01*
X168409809Y-117114380D02*
X168409809Y-117923904D01*
X168457428Y-118019142D01*
X168505047Y-118066761D01*
X168600285Y-118114380D01*
X168790761Y-118114380D01*
X168886000Y-118066761D01*
X168933619Y-118019142D01*
X168981238Y-117923904D01*
X168981238Y-117114380D01*
X169933619Y-118114380D02*
X169457428Y-118114380D01*
X169457428Y-117114380D01*
X170219333Y-118066761D02*
X170362190Y-118114380D01*
X170600285Y-118114380D01*
X170695523Y-118066761D01*
X170743142Y-118019142D01*
X170790761Y-117923904D01*
X170790761Y-117828666D01*
X170743142Y-117733428D01*
X170695523Y-117685809D01*
X170600285Y-117638190D01*
X170409809Y-117590571D01*
X170314571Y-117542952D01*
X170266952Y-117495333D01*
X170219333Y-117400095D01*
X170219333Y-117304857D01*
X170266952Y-117209619D01*
X170314571Y-117162000D01*
X170409809Y-117114380D01*
X170647904Y-117114380D01*
X170790761Y-117162000D01*
X171219333Y-117590571D02*
X171552666Y-117590571D01*
X171695523Y-118114380D02*
X171219333Y-118114380D01*
X171219333Y-117114380D01*
X171695523Y-117114380D01*
%TO.C,TTGO1*%
X161311000Y-80982000D02*
X161311000Y-101302000D01*
X118766000Y-84157000D02*
X113686000Y-84157000D01*
X164486000Y-78442000D02*
X160676000Y-78442000D01*
X113686000Y-98127000D02*
X118766000Y-98127000D01*
X164486000Y-103842000D02*
X159406000Y-103842000D01*
X159406000Y-103842000D02*
X114956000Y-103842000D01*
X113686000Y-101302000D02*
X113686000Y-98127000D01*
X113686000Y-80982000D02*
X118766000Y-80982000D01*
X113686000Y-103842000D02*
X112416000Y-102572000D01*
X161311000Y-101302000D02*
X127656000Y-101302000D01*
X113686000Y-78442000D02*
X114956000Y-78442000D01*
X114956000Y-103842000D02*
X113686000Y-103842000D01*
X118766000Y-95587000D02*
X112416000Y-95587000D01*
X118766000Y-86697000D02*
X118766000Y-95587000D01*
X127656000Y-80982000D02*
X161311000Y-80982000D01*
X160676000Y-78442000D02*
X114956000Y-78442000D01*
X127656000Y-101302000D02*
X127656000Y-80982000D01*
X164486000Y-78442000D02*
X164486000Y-103842000D01*
X112416000Y-95587000D02*
X116226000Y-95587000D01*
X112416000Y-102572000D02*
X112416000Y-79712000D01*
X113686000Y-84157000D02*
X113686000Y-80982000D01*
X118766000Y-98127000D02*
X118766000Y-101302000D01*
X116226000Y-86697000D02*
X118766000Y-86697000D01*
X118766000Y-80982000D02*
X118766000Y-84157000D01*
X116226000Y-86697000D02*
X112416000Y-86697000D01*
X112416000Y-79712000D02*
X113686000Y-78442000D01*
X118766000Y-101302000D02*
X113686000Y-101302000D01*
X163479026Y-101302000D02*
G75*
G03*
X163479026Y-101302000I-898026J0D01*
G01*
X117615923Y-82506000D02*
G75*
G03*
X117615923Y-82506000I-1135923J0D01*
G01*
X164114026Y-91142000D02*
G75*
G03*
X164114026Y-91142000I-898026J0D01*
G01*
X117615923Y-99778000D02*
G75*
G03*
X117615923Y-99778000I-1135923J0D01*
G01*
X163479026Y-80982000D02*
G75*
G03*
X163479026Y-80982000I-898026J0D01*
G01*
D13*
%TO.C,SW2*%
X120666000Y-109672000D02*
X116166000Y-109672000D01*
X121916000Y-113672000D02*
X121916000Y-112172000D01*
X114916000Y-112172000D02*
X114916000Y-113672000D01*
X116166000Y-116172000D02*
X120666000Y-116172000D01*
%TO.C,SW3*%
X141566000Y-116752000D02*
X146066000Y-116752000D01*
X146066000Y-110252000D02*
X141566000Y-110252000D01*
X140316000Y-112752000D02*
X140316000Y-114252000D01*
X147316000Y-114252000D02*
X147316000Y-112752000D01*
%TO.C,SW4*%
X163886000Y-112462000D02*
X163886000Y-113962000D01*
X169636000Y-109962000D02*
X165136000Y-109962000D01*
X170886000Y-113962000D02*
X170886000Y-112462000D01*
X165136000Y-116462000D02*
X169636000Y-116462000D01*
%TD*%
M02*
